<?xml version="1.0" encoding="UTF-8"?>
<svg xmlns="http://www.w3.org/2000/svg" xmlns:xlink="http://www.w3.org/1999/xlink" width="103.04" height="58.11" viewBox="0 0 103.04 58.11">
<defs>
<clipPath id="clip-0">
<path clip-rule="nonzero" d="M 0 0 L 32 0 L 32 58.109375 L 0 58.109375 Z M 0 0 "/>
</clipPath>
<clipPath id="clip-1">
<path clip-rule="nonzero" d="M 20 23 L 100 23 L 100 58.109375 L 20 58.109375 Z M 20 23 "/>
</clipPath>
<clipPath id="clip-2">
<path clip-rule="nonzero" d="M 71 0 L 103.039062 0 L 103.039062 58.109375 L 71 58.109375 Z M 71 0 "/>
</clipPath>
<clipPath id="clip-3">
<path clip-rule="nonzero" d="M 8 0 L 92 0 L 92 58.109375 L 8 58.109375 Z M 8 0 "/>
</clipPath>
<clipPath id="clip-4">
<path clip-rule="nonzero" d="M 33 19 L 65 19 L 65 58.109375 L 33 58.109375 Z M 33 19 "/>
</clipPath>
<clipPath id="clip-5">
<path clip-rule="nonzero" d="M 33 33 L 68 33 L 68 58.109375 L 33 58.109375 Z M 33 33 "/>
</clipPath>
<clipPath id="clip-6">
<path clip-rule="nonzero" d="M 60 26 L 95 26 L 95 58.109375 L 60 58.109375 Z M 60 26 "/>
</clipPath>
<clipPath id="clip-7">
<path clip-rule="nonzero" d="M 75 2 L 103.039062 2 L 103.039062 36 L 75 36 Z M 75 2 "/>
</clipPath>
<clipPath id="clip-8">
<path clip-rule="nonzero" d="M 22 51 L 30 51 L 30 58.109375 L 22 58.109375 Z M 22 51 "/>
</clipPath>
</defs>
<g clip-path="url(#clip-0)">
<path fill="none" stroke-width="0.99214" stroke-linecap="round" stroke-linejoin="miter" stroke="rgb(90.194702%, 27.059937%, 32.548523%)" stroke-opacity="1" stroke-miterlimit="10" d="M -0.28509 0.00031375 L -16.72259 0.00031375 C -16.882746 0.00031375 -17.007746 0.125314 -17.007746 0.281564 L -17.007746 50.738595 C -17.007746 50.898751 -16.882746 51.023751 -16.72259 51.023751 L -0.28509 51.023751 C -0.12884 51.023751 0.00006625 50.898751 0.00006625 50.738595 L 0.00006625 0.281564 C 0.00006625 0.125314 -0.12884 0.00031375 -0.28509 0.00031375 Z M -0.28509 0.00031375 " transform="matrix(1, 0, 0, -1, 17.50384, 54.56672)"/>
</g>
<path fill="none" stroke-width="0.99214" stroke-linecap="round" stroke-linejoin="miter" stroke="rgb(90.194702%, 27.059937%, 32.548523%)" stroke-opacity="1" stroke-miterlimit="10" d="M 0.285223 34.015939 L 50.742254 34.015939 C 50.898504 34.015939 51.023504 34.144845 51.023504 34.301095 L 51.023504 50.738595 C 51.023504 50.898751 50.898504 51.023751 50.742254 51.023751 L 0.285223 51.023751 C 0.125066 51.023751 0.00006625 50.898751 0.00006625 50.738595 L 0.00006625 34.301095 C 0.00006625 34.144845 0.125066 34.015939 0.285223 34.015939 Z M 0.285223 34.015939 " transform="matrix(1, 0, 0, -1, 17.50384, 54.56672)"/>
<g clip-path="url(#clip-1)">
<path fill="none" stroke-width="0.99214" stroke-linecap="round" stroke-linejoin="miter" stroke="rgb(90.194702%, 27.059937%, 32.548523%)" stroke-opacity="1" stroke-miterlimit="10" d="M 17.293035 0.00031375 L 67.750066 0.00031375 C 67.906316 0.00031375 68.031316 0.125314 68.031316 0.281564 L 68.031316 16.72297 C 68.031316 16.87922 67.906316 17.008126 67.750066 17.008126 L 17.293035 17.008126 C 17.136785 17.008126 17.007879 16.87922 17.007879 16.72297 L 17.007879 0.281564 C 17.007879 0.125314 17.136785 0.00031375 17.293035 0.00031375 Z M 17.293035 0.00031375 " transform="matrix(1, 0, 0, -1, 17.50384, 54.56672)"/>
</g>
<g clip-path="url(#clip-2)">
<path fill="none" stroke-width="0.99214" stroke-linecap="round" stroke-linejoin="miter" stroke="rgb(90.194702%, 27.059937%, 32.548523%)" stroke-opacity="1" stroke-miterlimit="10" d="M 68.316473 0.00031375 L 84.757879 0.00031375 C 84.914129 0.00031375 85.039129 0.125314 85.039129 0.281564 L 85.039129 50.738595 C 85.039129 50.898751 84.914129 51.023751 84.757879 51.023751 L 68.316473 51.023751 C 68.160223 51.023751 68.031316 50.898751 68.031316 50.738595 L 68.031316 0.281564 C 68.031316 0.125314 68.160223 0.00031375 68.316473 0.00031375 Z M 68.316473 0.00031375 " transform="matrix(1, 0, 0, -1, 17.50384, 54.56672)"/>
</g>
<g clip-path="url(#clip-3)">
<path fill="none" stroke-width="0.99214" stroke-linecap="round" stroke-linejoin="miter" stroke="rgb(29.804993%, 30.979919%, 41.175842%)" stroke-opacity="1" stroke-miterlimit="10" d="M 8.503973 0.00031375 L 4.742254 16.297189 C 4.707098 16.449533 4.757879 16.668283 4.859441 16.789376 L 15.429754 29.383126 C 15.52741 29.50422 15.718816 29.53547 15.855535 29.457345 L 30.093816 21.238595 C 30.230535 21.16047 30.46491 21.105783 30.62116 21.121408 L 47.000066 22.555001 C 47.156316 22.56672 47.363348 22.676095 47.46491 22.797189 L 58.031316 35.390939 C 58.132879 35.512033 58.226629 35.734689 58.238348 35.890939 L 59.52741 51.023751 " transform="matrix(1, 0, 0, -1, 17.50384, 54.56672)"/>
</g>
<path fill="none" stroke-width="0.99214" stroke-linecap="round" stroke-linejoin="miter" stroke="rgb(29.804993%, 30.979919%, 41.175842%)" stroke-opacity="1" stroke-miterlimit="10" d="M 4.679754 16.570626 L -12.070246 19.523751 " transform="matrix(1, 0, 0, -1, 17.50384, 54.56672)"/>
<path fill="none" stroke-width="0.99214" stroke-linecap="round" stroke-linejoin="miter" stroke="rgb(87.449646%, 55.683899%, 11.373901%)" stroke-opacity="1" stroke-miterlimit="10" d="M -9.238215 19.523751 C -9.238215 21.090158 -10.507746 22.359689 -12.070246 22.359689 C -13.636652 22.359689 -14.906184 21.090158 -14.906184 19.523751 C -14.906184 17.961251 -13.636652 16.69172 -12.070246 16.69172 C -10.507746 16.69172 -9.238215 17.961251 -9.238215 19.523751 Z M -9.238215 19.523751 " transform="matrix(1, 0, 0, -1, 17.50384, 54.56672)"/>
<path fill="none" stroke-width="0.99214" stroke-linecap="round" stroke-linejoin="miter" stroke="rgb(29.804993%, 30.979919%, 41.175842%)" stroke-opacity="1" stroke-miterlimit="10" d="M 15.609441 29.601876 L 17.093816 46.543283 " transform="matrix(1, 0, 0, -1, 17.50384, 54.56672)"/>
<path fill="none" stroke-width="0.99214" stroke-linecap="round" stroke-linejoin="miter" stroke="rgb(87.449646%, 55.683899%, 11.373901%)" stroke-opacity="1" stroke-miterlimit="10" d="M 19.925848 46.543283 C 19.925848 48.109689 18.660223 49.37922 17.093816 49.37922 C 15.52741 49.37922 14.257879 48.109689 14.257879 46.543283 C 14.257879 44.976876 15.52741 43.707345 17.093816 43.707345 C 18.660223 43.707345 19.925848 44.976876 19.925848 46.543283 Z M 19.925848 46.543283 " transform="matrix(1, 0, 0, -1, 17.50384, 54.56672)"/>
<g clip-path="url(#clip-4)">
<path fill="none" stroke-width="0.99214" stroke-linecap="round" stroke-linejoin="miter" stroke="rgb(29.804993%, 30.979919%, 41.175842%)" stroke-opacity="1" stroke-miterlimit="10" d="M 30.33991 21.09797 L 33.293035 4.34797 " transform="matrix(1, 0, 0, -1, 17.50384, 54.56672)"/>
</g>
<g clip-path="url(#clip-5)">
<path fill="none" stroke-width="0.99214" stroke-linecap="round" stroke-linejoin="miter" stroke="rgb(87.449646%, 55.683899%, 11.373901%)" stroke-opacity="1" stroke-miterlimit="10" d="M 36.128973 4.34797 C 36.128973 5.914376 34.859441 7.180001 33.293035 7.180001 C 31.726629 7.180001 30.457098 5.914376 30.457098 4.34797 C 30.457098 2.781564 31.726629 1.512033 33.293035 1.512033 C 34.859441 1.512033 36.128973 2.781564 36.128973 4.34797 Z M 36.128973 4.34797 " transform="matrix(1, 0, 0, -1, 17.50384, 54.56672)"/>
</g>
<path fill="none" stroke-width="0.99214" stroke-linecap="round" stroke-linejoin="miter" stroke="rgb(29.804993%, 30.979919%, 41.175842%)" stroke-opacity="1" stroke-miterlimit="10" d="M 47.281316 22.578439 L 60.312566 11.644845 " transform="matrix(1, 0, 0, -1, 17.50384, 54.56672)"/>
<g clip-path="url(#clip-6)">
<path fill="none" stroke-width="0.99214" stroke-linecap="round" stroke-linejoin="miter" stroke="rgb(87.449646%, 55.683899%, 11.373901%)" stroke-opacity="1" stroke-miterlimit="10" d="M 63.144598 11.644845 C 63.144598 13.211251 61.878973 14.480783 60.312566 14.480783 C 58.74616 14.480783 57.476629 13.211251 57.476629 11.644845 C 57.476629 10.082345 58.74616 8.812814 60.312566 8.812814 C 61.878973 8.812814 63.144598 10.082345 63.144598 11.644845 Z M 63.144598 11.644845 " transform="matrix(1, 0, 0, -1, 17.50384, 54.56672)"/>
</g>
<path fill="none" stroke-width="0.99214" stroke-linecap="round" stroke-linejoin="miter" stroke="rgb(29.804993%, 30.979919%, 41.175842%)" stroke-opacity="1" stroke-miterlimit="10" d="M 58.21491 35.609689 L 75.222723 35.609689 " transform="matrix(1, 0, 0, -1, 17.50384, 54.56672)"/>
<g clip-path="url(#clip-7)">
<path fill="none" stroke-width="0.99214" stroke-linecap="round" stroke-linejoin="miter" stroke="rgb(87.449646%, 55.683899%, 11.373901%)" stroke-opacity="1" stroke-miterlimit="10" d="M 78.05866 35.609689 C 78.05866 37.172189 76.789129 38.44172 75.222723 38.44172 C 73.656316 38.44172 72.386785 37.172189 72.386785 35.609689 C 72.386785 34.043283 73.656316 32.773751 75.222723 32.773751 C 76.789129 32.773751 78.05866 34.043283 78.05866 35.609689 Z M 78.05866 35.609689 " transform="matrix(1, 0, 0, -1, 17.50384, 54.56672)"/>
</g>
<path fill="none" stroke-width="0.99214" stroke-linecap="round" stroke-linejoin="miter" stroke="rgb(25.097656%, 62.745667%, 16.862488%)" stroke-opacity="1" stroke-miterlimit="10" d="M 7.511785 16.570626 C 7.511785 18.137033 6.242254 19.406564 4.679754 19.406564 C 3.113348 19.406564 1.843816 18.137033 1.843816 16.570626 C 1.843816 15.008126 3.113348 13.738595 4.679754 13.738595 C 6.242254 13.738595 7.511785 15.008126 7.511785 16.570626 Z M 7.511785 16.570626 " transform="matrix(1, 0, 0, -1, 17.50384, 54.56672)"/>
<path fill="none" stroke-width="0.99214" stroke-linecap="round" stroke-linejoin="miter" stroke="rgb(25.097656%, 62.745667%, 16.862488%)" stroke-opacity="1" stroke-miterlimit="10" d="M 18.445379 29.601876 C 18.445379 31.164376 17.175848 32.433908 15.609441 32.433908 C 14.046941 32.433908 12.77741 31.164376 12.77741 29.601876 C 12.77741 28.03547 14.046941 26.765939 15.609441 26.765939 C 17.175848 26.765939 18.445379 28.03547 18.445379 29.601876 Z M 18.445379 29.601876 " transform="matrix(1, 0, 0, -1, 17.50384, 54.56672)"/>
<path fill="none" stroke-width="0.99214" stroke-linecap="round" stroke-linejoin="miter" stroke="rgb(25.097656%, 62.745667%, 16.862488%)" stroke-opacity="1" stroke-miterlimit="10" d="M 33.175848 21.09797 C 33.175848 22.66047 31.906316 23.930001 30.33991 23.930001 C 28.773504 23.930001 27.503973 22.66047 27.503973 21.09797 C 27.503973 19.531564 28.773504 18.262033 30.33991 18.262033 C 31.906316 18.262033 33.175848 19.531564 33.175848 21.09797 Z M 33.175848 21.09797 " transform="matrix(1, 0, 0, -1, 17.50384, 54.56672)"/>
<path fill="none" stroke-width="0.99214" stroke-linecap="round" stroke-linejoin="miter" stroke="rgb(25.097656%, 62.745667%, 16.862488%)" stroke-opacity="1" stroke-miterlimit="10" d="M 50.117254 22.578439 C 50.117254 24.144845 48.847723 25.414376 47.281316 25.414376 C 45.718816 25.414376 44.449285 24.144845 44.449285 22.578439 C 44.449285 21.012033 45.718816 19.742501 47.281316 19.742501 C 48.847723 19.742501 50.117254 21.012033 50.117254 22.578439 Z M 50.117254 22.578439 " transform="matrix(1, 0, 0, -1, 17.50384, 54.56672)"/>
<path fill="none" stroke-width="0.99214" stroke-linecap="round" stroke-linejoin="miter" stroke="rgb(25.097656%, 62.745667%, 16.862488%)" stroke-opacity="1" stroke-miterlimit="10" d="M 61.050848 35.609689 C 61.050848 37.172189 59.781316 38.44172 58.21491 38.44172 C 56.648504 38.44172 55.378973 37.172189 55.378973 35.609689 C 55.378973 34.043283 56.648504 32.773751 58.21491 32.773751 C 59.781316 32.773751 61.050848 34.043283 61.050848 35.609689 Z M 61.050848 35.609689 " transform="matrix(1, 0, 0, -1, 17.50384, 54.56672)"/>
<g clip-path="url(#clip-8)">
<path fill-rule="nonzero" fill="rgb(44.706726%, 52.938843%, 99.215698%)" fill-opacity="1" d="M 29.550781 54.566406 C 29.550781 52.609375 27.964844 51.023438 26.007812 51.023438 C 24.050781 51.023438 22.464844 52.609375 22.464844 54.566406 C 22.464844 56.523438 24.050781 58.109375 26.007812 58.109375 C 27.964844 58.109375 29.550781 56.523438 29.550781 54.566406 Z M 29.550781 54.566406 "/>
</g>
<path fill-rule="nonzero" fill="rgb(53.33252%, 22.3526%, 93.725586%)" fill-opacity="1" d="M 80.574219 3.542969 C 80.574219 1.585938 78.988281 0 77.03125 0 C 75.074219 0 73.488281 1.585938 73.488281 3.542969 C 73.488281 5.5 75.074219 7.085938 77.03125 7.085938 C 78.988281 7.085938 80.574219 5.5 80.574219 3.542969 Z M 80.574219 3.542969 "/>
</svg>
