<?xml version="1.0" encoding="UTF-8"?>
<svg xmlns="http://www.w3.org/2000/svg" xmlns:xlink="http://www.w3.org/1999/xlink" width="92.13" height="172.77" viewBox="0 0 92.13 172.77">
<defs>
<clipPath id="clip-0">
<path clip-rule="nonzero" d="M 2 57 L 90 57 L 90 172.769531 L 2 172.769531 Z M 2 57 "/>
</clipPath>
<clipPath id="clip-1">
<path clip-rule="nonzero" d="M 2 56 L 90 56 L 90 172.769531 L 2 172.769531 Z M 2 56 "/>
</clipPath>
<clipPath id="clip-2">
<path clip-rule="nonzero" d="M 0 21 L 92.128906 21 L 92.128906 153 L 0 153 Z M 0 21 "/>
</clipPath>
<clipPath id="clip-3">
<path clip-rule="nonzero" d="M 41 34 L 92.128906 34 L 92.128906 65 L 41 65 Z M 41 34 "/>
</clipPath>
<clipPath id="clip-4">
<path clip-rule="nonzero" d="M 66 34 L 92.128906 34 L 92.128906 68 L 66 68 Z M 66 34 "/>
</clipPath>
<clipPath id="clip-5">
<path clip-rule="nonzero" d="M 36 88 L 92.128906 88 L 92.128906 122 L 36 122 Z M 36 88 "/>
</clipPath>
<clipPath id="clip-6">
<path clip-rule="nonzero" d="M 61 91 L 92.128906 91 L 92.128906 125 L 61 125 Z M 61 91 "/>
</clipPath>
<clipPath id="clip-7">
<path clip-rule="nonzero" d="M 51 124 L 82 124 L 82 172.769531 L 51 172.769531 Z M 51 124 "/>
</clipPath>
<clipPath id="clip-8">
<path clip-rule="nonzero" d="M 51 149 L 85 149 L 85 172.769531 L 51 172.769531 Z M 51 149 "/>
</clipPath>
<clipPath id="clip-9">
<path clip-rule="nonzero" d="M 85 125 L 92.128906 125 L 92.128906 133 L 85 133 Z M 85 125 "/>
</clipPath>
</defs>
<path fill-rule="nonzero" fill="rgb(86.175537%, 88.233948%, 99.804688%)" fill-opacity="1" stroke-width="0.99214" stroke-linecap="round" stroke-linejoin="miter" stroke="rgb(44.706726%, 52.938843%, 99.215698%)" stroke-opacity="1" stroke-miterlimit="10" d="M -0.851864 29.195896 L 85.890324 29.195896 L 85.890324 -85.890041 L 55.843449 -85.890041 L 55.843449 -0.850979 L -0.851864 -0.850979 Z M -0.851864 29.195896 " transform="matrix(1, 0, 0, -1, 3.54327, 29.69199)"/>
<g clip-path="url(#clip-0)">
<path fill-rule="nonzero" fill="rgb(86.175537%, 88.233948%, 99.804688%)" fill-opacity="1" d="M 2.691406 57.1875 L 32.742188 57.1875 L 32.742188 142.226562 L 89.433594 142.226562 L 89.433594 172.277344 L 2.691406 172.277344 Z M 2.691406 57.1875 "/>
</g>
<g clip-path="url(#clip-1)">
<path fill="none" stroke-width="0.99214" stroke-linecap="round" stroke-linejoin="miter" stroke="rgb(44.706726%, 52.938843%, 99.215698%)" stroke-opacity="1" stroke-miterlimit="10" d="M -0.851864 -27.49551 L 29.198917 -27.49551 L 29.198917 -112.534572 L 85.890324 -112.534572 L 85.890324 -142.585354 L -0.851864 -142.585354 Z M -0.851864 -27.49551 " transform="matrix(1, 0, 0, -1, 3.54327, 29.69199)"/>
</g>
<path fill="none" stroke-width="0.99214" stroke-linecap="round" stroke-linejoin="miter" stroke="rgb(90.194702%, 27.059937%, 32.548523%)" stroke-opacity="1" stroke-miterlimit="10" d="M -0.00030125 0.00058375 L -0.00030125 28.34824 L 85.038761 28.34824 L 85.038761 0.00058375 Z M -0.00030125 0.00058375 " transform="matrix(1, 0, 0, -1, 3.54327, 29.69199)"/>
<path fill="none" stroke-width="0.99214" stroke-linecap="round" stroke-linejoin="miter" stroke="rgb(90.194702%, 27.059937%, 32.548523%)" stroke-opacity="1" stroke-miterlimit="10" d="M 56.695011 0.00058375 L 56.695011 -85.038479 L 85.038761 -85.038479 L 85.038761 0.00058375 Z M 56.695011 0.00058375 " transform="matrix(1, 0, 0, -1, 3.54327, 29.69199)"/>
<path fill="none" stroke-width="0.99214" stroke-linecap="round" stroke-linejoin="miter" stroke="rgb(90.194702%, 27.059937%, 32.548523%)" stroke-opacity="1" stroke-miterlimit="10" d="M -0.00030125 -28.347072 L -0.00030125 -113.386135 L 28.347355 -113.386135 L 28.347355 -28.347072 Z M -0.00030125 -28.347072 " transform="matrix(1, 0, 0, -1, 3.54327, 29.69199)"/>
<path fill="none" stroke-width="0.99214" stroke-linecap="round" stroke-linejoin="miter" stroke="rgb(90.194702%, 27.059937%, 32.548523%)" stroke-opacity="1" stroke-miterlimit="10" d="M -0.00030125 -113.386135 L -0.00030125 -141.733791 L 85.038761 -141.733791 L 85.038761 -113.386135 Z M -0.00030125 -113.386135 " transform="matrix(1, 0, 0, -1, 3.54327, 29.69199)"/>
<g clip-path="url(#clip-2)">
<path fill="none" stroke-width="0.99214" stroke-linecap="round" stroke-linejoin="miter" stroke="rgb(29.804993%, 30.979919%, 41.175842%)" stroke-opacity="1" stroke-miterlimit="10" d="M -0.00030125 -14.175197 L 26.691105 -5.499416 C 26.839542 -5.452541 27.070011 -5.472072 27.210636 -5.546291 L 51.73798 -18.58926 C 51.874699 -18.663479 51.945011 -18.83926 51.890324 -18.987697 L 42.390324 -45.093166 C 42.335636 -45.237697 42.316105 -45.483791 42.343449 -45.636135 L 47.167667 -72.99551 C 47.195011 -73.15176 47.159855 -73.390041 47.097355 -73.530666 L 35.355167 -98.710354 C 35.288761 -98.850979 35.355167 -99.011135 35.503605 -99.061916 L 61.605167 -108.565822 C 61.753605 -108.616604 61.991886 -108.612697 62.136417 -108.554104 L 85.038761 -99.21426 " transform="matrix(1, 0, 0, -1, 3.54327, 29.69199)"/>
</g>
<path fill="none" stroke-width="0.99214" stroke-linecap="round" stroke-linejoin="miter" stroke="rgb(29.804993%, 30.979919%, 41.175842%)" stroke-opacity="1" stroke-miterlimit="10" d="M 26.960636 -5.413479 L 31.882511 22.50449 " transform="matrix(1, 0, 0, -1, 3.54327, 29.69199)"/>
<path fill="none" stroke-width="0.99214" stroke-linecap="round" stroke-linejoin="miter" stroke="rgb(90.194702%, 27.059937%, 32.548523%)" stroke-opacity="1" stroke-miterlimit="10" d="M 34.718449 22.50449 C 34.718449 24.06699 33.448917 25.336521 31.882511 25.336521 C 30.316105 25.336521 29.046574 24.06699 29.046574 22.50449 C 29.046574 20.938084 30.316105 19.668553 31.882511 19.668553 C 33.448917 19.668553 34.718449 20.938084 34.718449 22.50449 Z M 34.718449 22.50449 " transform="matrix(1, 0, 0, -1, 3.54327, 29.69199)"/>
<g clip-path="url(#clip-3)">
<path fill="none" stroke-width="0.99214" stroke-linecap="round" stroke-linejoin="miter" stroke="rgb(29.804993%, 30.979919%, 41.175842%)" stroke-opacity="1" stroke-miterlimit="10" d="M 51.98798 -18.722072 L 80.226261 -21.190822 " transform="matrix(1, 0, 0, -1, 3.54327, 29.69199)"/>
</g>
<g clip-path="url(#clip-4)">
<path fill="none" stroke-width="0.99214" stroke-linecap="round" stroke-linejoin="miter" stroke="rgb(90.194702%, 27.059937%, 32.548523%)" stroke-opacity="1" stroke-miterlimit="10" d="M 83.062199 -21.190822 C 83.062199 -19.628322 81.792667 -18.358791 80.226261 -18.358791 C 78.659855 -18.358791 77.39423 -19.628322 77.39423 -21.190822 C 77.39423 -22.757229 78.659855 -24.02676 80.226261 -24.02676 C 81.792667 -24.02676 83.062199 -22.757229 83.062199 -21.190822 Z M 83.062199 -21.190822 " transform="matrix(1, 0, 0, -1, 3.54327, 29.69199)"/>
</g>
<path fill="none" stroke-width="0.99214" stroke-linecap="round" stroke-linejoin="miter" stroke="rgb(29.804993%, 30.979919%, 41.175842%)" stroke-opacity="1" stroke-miterlimit="10" d="M 42.292667 -45.358791 L 14.378605 -50.280666 " transform="matrix(1, 0, 0, -1, 3.54327, 29.69199)"/>
<path fill="none" stroke-width="0.99214" stroke-linecap="round" stroke-linejoin="miter" stroke="rgb(90.194702%, 27.059937%, 32.548523%)" stroke-opacity="1" stroke-miterlimit="10" d="M 17.210636 -50.280666 C 17.210636 -48.71426 15.941105 -47.444729 14.378605 -47.444729 C 12.812199 -47.444729 11.542667 -48.71426 11.542667 -50.280666 C 11.542667 -51.847072 12.812199 -53.116604 14.378605 -53.116604 C 15.941105 -53.116604 17.210636 -51.847072 17.210636 -50.280666 Z M 17.210636 -50.280666 " transform="matrix(1, 0, 0, -1, 3.54327, 29.69199)"/>
<g clip-path="url(#clip-5)">
<path fill="none" stroke-width="0.99214" stroke-linecap="round" stroke-linejoin="miter" stroke="rgb(29.804993%, 30.979919%, 41.175842%)" stroke-opacity="1" stroke-miterlimit="10" d="M 47.214542 -73.27676 L 75.132511 -78.198635 " transform="matrix(1, 0, 0, -1, 3.54327, 29.69199)"/>
</g>
<g clip-path="url(#clip-6)">
<path fill="none" stroke-width="0.99214" stroke-linecap="round" stroke-linejoin="miter" stroke="rgb(90.194702%, 27.059937%, 32.548523%)" stroke-opacity="1" stroke-miterlimit="10" d="M 77.968449 -78.198635 C 77.968449 -76.632229 76.698917 -75.362697 75.132511 -75.362697 C 73.566105 -75.362697 72.296574 -76.632229 72.296574 -78.198635 C 72.296574 -79.765041 73.566105 -81.030666 75.132511 -81.030666 C 76.698917 -81.030666 77.968449 -79.765041 77.968449 -78.198635 Z M 77.968449 -78.198635 " transform="matrix(1, 0, 0, -1, 3.54327, 29.69199)"/>
</g>
<path fill="none" stroke-width="0.99214" stroke-linecap="round" stroke-linejoin="miter" stroke="rgb(29.804993%, 30.979919%, 41.175842%)" stroke-opacity="1" stroke-miterlimit="10" d="M 35.234074 -98.968166 L 17.015324 -120.679104 " transform="matrix(1, 0, 0, -1, 3.54327, 29.69199)"/>
<path fill="none" stroke-width="0.99214" stroke-linecap="round" stroke-linejoin="miter" stroke="rgb(90.194702%, 27.059937%, 32.548523%)" stroke-opacity="1" stroke-miterlimit="10" d="M 19.847355 -120.679104 C 19.847355 -119.116604 18.58173 -117.847072 17.015324 -117.847072 C 15.448917 -117.847072 14.179386 -119.116604 14.179386 -120.679104 C 14.179386 -122.24551 15.448917 -123.515041 17.015324 -123.515041 C 18.58173 -123.515041 19.847355 -122.24551 19.847355 -120.679104 Z M 19.847355 -120.679104 " transform="matrix(1, 0, 0, -1, 3.54327, 29.69199)"/>
<g clip-path="url(#clip-7)">
<path fill="none" stroke-width="0.99214" stroke-linecap="round" stroke-linejoin="miter" stroke="rgb(29.804993%, 30.979919%, 41.175842%)" stroke-opacity="1" stroke-miterlimit="10" d="M 61.874699 -108.663479 L 64.343449 -136.90176 " transform="matrix(1, 0, 0, -1, 3.54327, 29.69199)"/>
</g>
<g clip-path="url(#clip-8)">
<path fill="none" stroke-width="0.99214" stroke-linecap="round" stroke-linejoin="miter" stroke="rgb(90.194702%, 27.059937%, 32.548523%)" stroke-opacity="1" stroke-miterlimit="10" d="M 67.179386 -136.90176 C 67.179386 -135.335354 65.909855 -134.065822 64.343449 -134.065822 C 62.777042 -134.065822 61.507511 -135.335354 61.507511 -136.90176 C 61.507511 -138.46426 62.777042 -139.733791 64.343449 -139.733791 C 65.909855 -139.733791 67.179386 -138.46426 67.179386 -136.90176 Z M 67.179386 -136.90176 " transform="matrix(1, 0, 0, -1, 3.54327, 29.69199)"/>
</g>
<path fill="none" stroke-width="0.99214" stroke-linecap="round" stroke-linejoin="miter" stroke="rgb(9.020996%, 57.255554%, 59.999084%)" stroke-opacity="1" stroke-miterlimit="10" d="M 29.792667 -5.413479 C 29.792667 -3.847072 28.527042 -2.577541 26.960636 -2.577541 C 25.39423 -2.577541 24.124699 -3.847072 24.124699 -5.413479 C 24.124699 -6.979885 25.39423 -8.249416 26.960636 -8.249416 C 28.527042 -8.249416 29.792667 -6.979885 29.792667 -5.413479 Z M 29.792667 -5.413479 " transform="matrix(1, 0, 0, -1, 3.54327, 29.69199)"/>
<path fill="none" stroke-width="0.99214" stroke-linecap="round" stroke-linejoin="miter" stroke="rgb(9.020996%, 57.255554%, 59.999084%)" stroke-opacity="1" stroke-miterlimit="10" d="M 54.823917 -18.722072 C 54.823917 -17.155666 53.554386 -15.886135 51.98798 -15.886135 C 50.421574 -15.886135 49.152042 -17.155666 49.152042 -18.722072 C 49.152042 -20.288479 50.421574 -21.55801 51.98798 -21.55801 C 53.554386 -21.55801 54.823917 -20.288479 54.823917 -18.722072 Z M 54.823917 -18.722072 " transform="matrix(1, 0, 0, -1, 3.54327, 29.69199)"/>
<path fill="none" stroke-width="0.99214" stroke-linecap="round" stroke-linejoin="miter" stroke="rgb(9.020996%, 57.255554%, 59.999084%)" stroke-opacity="1" stroke-miterlimit="10" d="M 45.128605 -45.358791 C 45.128605 -43.792385 43.859074 -42.522854 42.292667 -42.522854 C 40.726261 -42.522854 39.45673 -43.792385 39.45673 -45.358791 C 39.45673 -46.925197 40.726261 -48.194729 42.292667 -48.194729 C 43.859074 -48.194729 45.128605 -46.925197 45.128605 -45.358791 Z M 45.128605 -45.358791 " transform="matrix(1, 0, 0, -1, 3.54327, 29.69199)"/>
<path fill="none" stroke-width="0.99214" stroke-linecap="round" stroke-linejoin="miter" stroke="rgb(9.020996%, 57.255554%, 59.999084%)" stroke-opacity="1" stroke-miterlimit="10" d="M 50.05048 -73.27676 C 50.05048 -71.710354 48.780949 -70.440822 47.214542 -70.440822 C 45.648136 -70.440822 44.382511 -71.710354 44.382511 -73.27676 C 44.382511 -74.83926 45.648136 -76.108791 47.214542 -76.108791 C 48.780949 -76.108791 50.05048 -74.83926 50.05048 -73.27676 Z M 50.05048 -73.27676 " transform="matrix(1, 0, 0, -1, 3.54327, 29.69199)"/>
<path fill="none" stroke-width="0.99214" stroke-linecap="round" stroke-linejoin="miter" stroke="rgb(9.020996%, 57.255554%, 59.999084%)" stroke-opacity="1" stroke-miterlimit="10" d="M 38.070011 -98.968166 C 38.070011 -97.40176 36.80048 -96.132229 35.234074 -96.132229 C 33.671574 -96.132229 32.402042 -97.40176 32.402042 -98.968166 C 32.402042 -100.530666 33.671574 -101.800197 35.234074 -101.800197 C 36.80048 -101.800197 38.070011 -100.530666 38.070011 -98.968166 Z M 38.070011 -98.968166 " transform="matrix(1, 0, 0, -1, 3.54327, 29.69199)"/>
<path fill="none" stroke-width="0.99214" stroke-linecap="round" stroke-linejoin="miter" stroke="rgb(9.020996%, 57.255554%, 59.999084%)" stroke-opacity="1" stroke-miterlimit="10" d="M 64.70673 -108.663479 C 64.70673 -107.097072 63.437199 -105.827541 61.874699 -105.827541 C 60.308292 -105.827541 59.038761 -107.097072 59.038761 -108.663479 C 59.038761 -110.225979 60.308292 -111.49551 61.874699 -111.49551 C 63.437199 -111.49551 64.70673 -110.225979 64.70673 -108.663479 Z M 64.70673 -108.663479 " transform="matrix(1, 0, 0, -1, 3.54327, 29.69199)"/>
<path fill-rule="nonzero" fill="rgb(11.764526%, 39.99939%, 96.076965%)" fill-opacity="1" d="M 7.085938 43.867188 C 7.085938 41.910156 5.5 40.320312 3.542969 40.320312 C 1.585938 40.320312 0 41.910156 0 43.867188 C 0 45.820312 1.585938 47.410156 3.542969 47.410156 C 5.5 47.410156 7.085938 45.820312 7.085938 43.867188 Z M 7.085938 43.867188 "/>
<g clip-path="url(#clip-9)">
<path fill-rule="nonzero" fill="rgb(25.097656%, 62.745667%, 16.862488%)" fill-opacity="1" d="M 92.125 128.90625 C 92.125 126.949219 90.539062 125.363281 88.582031 125.363281 C 86.625 125.363281 85.039062 126.949219 85.039062 128.90625 C 85.039062 130.863281 86.625 132.449219 88.582031 132.449219 C 90.539062 132.449219 92.125 130.863281 92.125 128.90625 Z M 92.125 128.90625 "/>
</g>
</svg>
