<?xml version="1.0" encoding="utf-8" standalone="no"?>
<!DOCTYPE svg PUBLIC "-//W3C//DTD SVG 1.1//EN"
  "http://www.w3.org/Graphics/SVG/1.1/DTD/svg11.dtd">
<svg xmlns:xlink="http://www.w3.org/1999/xlink" width="407.355021pt" height="576pt" viewBox="0 0 407.355021 576" xmlns="http://www.w3.org/2000/svg" version="1.1">
 <metadata>
  <rdf:RDF xmlns:dc="http://purl.org/dc/elements/1.1/" xmlns:cc="http://creativecommons.org/ns#" xmlns:rdf="http://www.w3.org/1999/02/22-rdf-syntax-ns#">
   <cc:Work>
    <dc:type rdf:resource="http://purl.org/dc/dcmitype/StillImage"/>
    <dc:date>1980-01-01T00:00:00+00:00</dc:date>
    <dc:format>image/svg+xml</dc:format>
    <dc:creator>
     <cc:Agent>
      <dc:title>Matplotlib v3.8.4, https://matplotlib.org/</dc:title>
     </cc:Agent>
    </dc:creator>
   </cc:Work>
  </rdf:RDF>
 </metadata>
 <defs>
  <style type="text/css">*{stroke-linejoin: round; stroke-linecap: butt}</style>
 </defs>
 <g id="figure_1">
  <g id="patch_1">
   <path d="M 0 576
L 407.355021 576
L 407.355021 0
L 0 0
z
" style="fill: #ffffff"/>
  </g>
  <g id="axes_1">
   <g id="patch_2">
    <path d="M 56.634945 530.057548
L 394.395021 530.057548
L 394.395021 16.419249
L 56.634945 16.419249
z
" style="fill: #eaeaf2"/>
   </g>
   <g id="matplotlib.axis_1">
    <g id="xtick_1">
     <g id="line2d_1">
      <path d="M 73.522949 530.057548
L 73.522949 16.419249
" clip-path="url(#p0e055566e5)" style="fill: none; stroke: #ffffff; stroke-linecap: round"/>
     </g>
     <g id="text_1">
      <!-- 5 -->
      <g style="fill: #262626" transform="translate(71.032281 546.476046) scale(0.1 -0.1)">
       <defs>
        <path id="CMSS17-35" d="M 934 3814
L 2502 3814
L 2502 4224
L 467 4224
L 467 1830
L 896 1830
C 1011 2103 1248 2304 1555 2304
C 1843 2304 2163 2044 2163 1299
C 2163 502 1709 268 1376 268
C 966 268 589 521 422 871
L 218 508
C 512 51 992 -128 1376 -128
C 2118 -128 2701 508 2701 1286
C 2701 2083 2182 2694 1562 2694
C 1338 2694 1120 2617 934 2464
L 934 3814
z
" transform="scale(0.015625)"/>
       </defs>
       <use xlink:href="#CMSS17-35" transform="scale(0.996264)"/>
      </g>
     </g>
    </g>
    <g id="xtick_2">
     <g id="line2d_2">
      <path d="M 107.298957 530.057548
L 107.298957 16.419249
" clip-path="url(#p0e055566e5)" style="fill: none; stroke: #ffffff; stroke-linecap: round"/>
     </g>
     <g id="text_2">
      <!-- 10 -->
      <g style="fill: #262626" transform="translate(102.317621 546.476046) scale(0.1 -0.1)">
       <defs>
        <path id="CMSS17-31" d="M 1818 4288
L 1696 4288
C 1350 3949 947 3902 538 3891
L 538 3520
C 723 3526 1024 3539 1325 3673
L 1325 371
L 570 371
L 570 0
L 2573 0
L 2573 371
L 1818 371
L 1818 4288
z
" transform="scale(0.015625)"/>
        <path id="CMSS17-30" d="M 2758 2073
C 2758 2439 2752 3120 2490 3647
C 2227 4153 1805 4288 1504 4288
C 1069 4288 698 4031 506 3621
C 301 3191 243 2748 243 2073
C 243 1611 262 1046 493 551
C 755 6 1197 -128 1498 -128
C 1894 -128 2278 83 2496 525
C 2720 988 2758 1495 2758 2073
z
M 1498 262
C 1011 262 864 821 819 1007
C 742 1328 730 1636 730 2144
C 730 2542 730 2992 851 3345
C 998 3756 1254 3897 1498 3897
C 1971 3897 2125 3422 2176 3255
C 2272 2915 2272 2516 2272 2144
C 2272 1546 2272 262 1498 262
z
" transform="scale(0.015625)"/>
       </defs>
       <use xlink:href="#CMSS17-31" transform="scale(0.996264)"/>
       <use xlink:href="#CMSS17-30" transform="translate(46.843624 0) scale(0.996264)"/>
      </g>
     </g>
    </g>
    <g id="xtick_3">
     <g id="line2d_3">
      <path d="M 141.074964 530.057548
L 141.074964 16.419249
" clip-path="url(#p0e055566e5)" style="fill: none; stroke: #ffffff; stroke-linecap: round"/>
     </g>
     <g id="text_3">
      <!-- 15 -->
      <g style="fill: #262626" transform="translate(136.093629 546.476046) scale(0.1 -0.1)">
       <use xlink:href="#CMSS17-31" transform="scale(0.996264)"/>
       <use xlink:href="#CMSS17-35" transform="translate(46.843624 0) scale(0.996264)"/>
      </g>
     </g>
    </g>
    <g id="xtick_4">
     <g id="line2d_4">
      <path d="M 174.850972 530.057548
L 174.850972 16.419249
" clip-path="url(#p0e055566e5)" style="fill: none; stroke: #ffffff; stroke-linecap: round"/>
     </g>
     <g id="text_4">
      <!-- 20 -->
      <g style="fill: #262626" transform="translate(169.869637 546.476046) scale(0.1 -0.1)">
       <defs>
        <path id="CMSS17-32" d="M 1651 1353
C 1830 1538 2099 1761 2285 1984
C 2464 2201 2701 2507 2701 2953
C 2701 3655 2227 4288 1421 4288
C 787 4288 422 3891 250 3272
L 499 2928
C 640 3508 838 3878 1338 3878
C 1888 3878 2195 3431 2195 2940
C 2195 2354 1747 1901 1408 1563
C 1030 1187 659 805 301 409
L 301 0
L 2701 0
L 2701 435
L 1613 435
C 1536 435 1459 428 1382 428
L 742 428
L 742 435
L 1651 1353
z
" transform="scale(0.015625)"/>
       </defs>
       <use xlink:href="#CMSS17-32" transform="scale(0.996264)"/>
       <use xlink:href="#CMSS17-30" transform="translate(46.843624 0) scale(0.996264)"/>
      </g>
     </g>
    </g>
    <g id="xtick_5">
     <g id="line2d_5">
      <path d="M 208.626979 530.057548
L 208.626979 16.419249
" clip-path="url(#p0e055566e5)" style="fill: none; stroke: #ffffff; stroke-linecap: round"/>
     </g>
     <g id="text_5">
      <!-- 25 -->
      <g style="fill: #262626" transform="translate(203.645644 546.476046) scale(0.1 -0.1)">
       <use xlink:href="#CMSS17-32" transform="scale(0.996264)"/>
       <use xlink:href="#CMSS17-35" transform="translate(46.843624 0) scale(0.996264)"/>
      </g>
     </g>
    </g>
    <g id="xtick_6">
     <g id="line2d_6">
      <path d="M 242.402987 530.057548
L 242.402987 16.419249
" clip-path="url(#p0e055566e5)" style="fill: none; stroke: #ffffff; stroke-linecap: round"/>
     </g>
     <g id="text_6">
      <!-- 30 -->
      <g style="fill: #262626" transform="translate(237.421652 546.476046) scale(0.1 -0.1)">
       <defs>
        <path id="CMSS17-33" d="M 1005 2060
L 1440 2060
C 2042 2060 2214 1532 2214 1164
C 2214 662 1933 268 1472 268
C 1114 268 608 449 320 926
C 275 700 275 687 250 533
C 550 89 1037 -128 1485 -128
C 2214 -128 2752 481 2752 1158
C 2752 1667 2400 2092 1920 2252
C 2304 2463 2586 2860 2586 3321
C 2586 3859 2093 4288 1491 4288
C 941 4288 512 3948 333 3583
C 378 3519 493 3334 550 3238
C 691 3615 1056 3897 1485 3897
C 1843 3897 2080 3660 2080 3321
C 2080 2969 1856 2585 1478 2496
C 1453 2496 1056 2457 1005 2451
L 1005 2060
z
" transform="scale(0.015625)"/>
       </defs>
       <use xlink:href="#CMSS17-33" transform="scale(0.996264)"/>
       <use xlink:href="#CMSS17-30" transform="translate(46.843624 0) scale(0.996264)"/>
      </g>
     </g>
    </g>
    <g id="xtick_7">
     <g id="line2d_7">
      <path d="M 276.178995 530.057548
L 276.178995 16.419249
" clip-path="url(#p0e055566e5)" style="fill: none; stroke: #ffffff; stroke-linecap: round"/>
     </g>
     <g id="text_7">
      <!-- 35 -->
      <g style="fill: #262626" transform="translate(271.197659 546.476046) scale(0.1 -0.1)">
       <use xlink:href="#CMSS17-33" transform="scale(0.996264)"/>
       <use xlink:href="#CMSS17-35" transform="translate(46.843624 0) scale(0.996264)"/>
      </g>
     </g>
    </g>
    <g id="xtick_8">
     <g id="line2d_8">
      <path d="M 309.955002 530.057548
L 309.955002 16.419249
" clip-path="url(#p0e055566e5)" style="fill: none; stroke: #ffffff; stroke-linecap: round"/>
     </g>
     <g id="text_8">
      <!-- 40 -->
      <g style="fill: #262626" transform="translate(304.973667 546.476046) scale(0.1 -0.1)">
       <defs>
        <path id="CMSS17-34" d="M 2253 1088
L 2835 1088
L 2835 1478
L 2253 1478
L 2253 4224
L 1690 4224
L 166 1478
L 166 1088
L 1747 1088
L 1747 0
L 2253 0
L 2253 1088
z
M 659 1478
C 1030 2139 1766 3474 1766 3927
L 1766 1478
L 659 1478
z
" transform="scale(0.015625)"/>
       </defs>
       <use xlink:href="#CMSS17-34" transform="scale(0.996264)"/>
       <use xlink:href="#CMSS17-30" transform="translate(46.843624 0) scale(0.996264)"/>
      </g>
     </g>
    </g>
    <g id="xtick_9">
     <g id="line2d_9">
      <path d="M 343.73101 530.057548
L 343.73101 16.419249
" clip-path="url(#p0e055566e5)" style="fill: none; stroke: #ffffff; stroke-linecap: round"/>
     </g>
     <g id="text_9">
      <!-- 45 -->
      <g style="fill: #262626" transform="translate(338.749675 546.476046) scale(0.1 -0.1)">
       <use xlink:href="#CMSS17-34" transform="scale(0.996264)"/>
       <use xlink:href="#CMSS17-35" transform="translate(46.843624 0) scale(0.996264)"/>
      </g>
     </g>
    </g>
    <g id="xtick_10">
     <g id="line2d_10">
      <path d="M 377.507017 530.057548
L 377.507017 16.419249
" clip-path="url(#p0e055566e5)" style="fill: none; stroke: #ffffff; stroke-linecap: round"/>
     </g>
     <g id="text_10">
      <!-- 50 -->
      <g style="fill: #262626" transform="translate(372.525682 546.476046) scale(0.1 -0.1)">
       <use xlink:href="#CMSS17-35" transform="scale(0.996264)"/>
       <use xlink:href="#CMSS17-30" transform="translate(46.843624 0) scale(0.996264)"/>
      </g>
     </g>
    </g>
    <g id="text_11">
     <!-- Number of Robots $N_R$ -->
     <g style="fill: #262626" transform="translate(170.439595 560.715404) scale(0.12 -0.12)">
      <defs>
       <path id="CMSS17-4e" d="M 1466 4179
L 1350 4416
L 563 4416
L 563 0
L 1062 0
L 1062 3925
L 1069 3931
C 1114 3817 1139 3759 1402 3193
L 2771 236
L 2886 0
L 3674 0
L 3674 4416
L 3174 4416
L 3174 490
L 3168 484
C 3123 598 3098 655 2835 1222
L 1466 4179
z
" transform="scale(0.015625)"/>
       <path id="CMSS17-75" d="M 2618 2752
L 2131 2752
L 2131 976
C 2131 500 1786 307 1421 307
C 998 307 960 448 960 712
L 960 2752
L 474 2752
L 474 680
C 474 179 646 -64 1088 -64
C 1306 -64 1798 -13 2144 307
L 2144 -13
L 2618 -13
L 2618 2752
z
" transform="scale(0.015625)"/>
       <path id="CMSS17-6d" d="M 4288 1878
C 4288 2309 4179 2816 3462 2816
C 2982 2816 2694 2515 2566 2328
C 2451 2668 2182 2816 1798 2816
C 1363 2816 1088 2566 941 2386
L 941 2783
L 474 2783
L 474 0
L 960 0
L 960 1556
C 960 1936 1101 2425 1555 2425
C 2138 2425 2138 2013 2138 1826
L 2138 0
L 2624 0
L 2624 1556
C 2624 1936 2765 2425 3219 2425
C 3802 2425 3802 2013 3802 1826
L 3802 0
L 4288 0
L 4288 1878
z
" transform="scale(0.015625)"/>
       <path id="CMSS17-62" d="M 954 4416
L 480 4416
L 480 -13
L 966 -13
L 966 275
C 1210 38 1504 -64 1766 -64
C 2381 -64 2880 559 2880 1382
C 2880 2133 2496 2816 1926 2816
C 1523 2816 1165 2649 954 2476
L 954 4416
z
M 966 2095
C 1107 2276 1306 2425 1587 2425
C 1965 2425 2394 2146 2394 1382
C 2394 566 1882 326 1530 326
C 1402 326 1267 358 1139 468
C 966 624 966 721 966 812
L 966 2095
z
" transform="scale(0.015625)"/>
       <path id="CMSS17-65" d="M 2502 1375
C 2502 1587 2490 2001 2285 2347
C 2061 2713 1696 2816 1421 2816
C 755 2816 192 2184 192 1363
C 192 579 774 -64 1510 -64
C 1798 -64 2150 19 2470 249
C 2470 275 2458 414 2451 421
C 2451 433 2432 629 2432 655
C 2125 408 1773 326 1517 326
C 1107 326 666 667 646 1375
L 2502 1375
z
M 698 1728
C 781 2086 1062 2425 1421 2425
C 1517 2425 1965 2412 2080 1728
L 698 1728
z
" transform="scale(0.015625)"/>
       <path id="CMSS17-72" d="M 954 1369
C 954 1974 1395 2379 1958 2392
L 1958 2816
C 1549 2809 1165 2604 934 2270
L 934 2783
L 480 2783
L 480 0
L 954 0
L 954 1369
z
" transform="scale(0.015625)"/>
       <path id="CMSS17-6f" d="M 2829 1356
C 2829 2175 2221 2816 1504 2816
C 768 2816 173 2156 173 1356
C 173 544 787 -64 1498 -64
C 2227 -64 2829 563 2829 1356
z
M 1504 339
C 1050 339 659 710 659 1407
C 659 2150 1114 2425 1498 2425
C 1914 2425 2342 2124 2342 1407
C 2342 684 1926 339 1504 339
z
" transform="scale(0.015625)"/>
       <path id="CMSS17-66" d="M 1075 2380
L 1722 2380
L 1722 2752
L 1062 2752
L 1062 3563
C 1062 4013 1408 4089 1606 4089
C 1670 4089 1850 4089 2080 4007
L 2080 4428
C 1933 4460 1754 4480 1613 4480
C 1018 4480 602 3994 602 3366
L 602 2752
L 160 2752
L 160 2380
L 602 2380
L 602 0
L 1075 0
L 1075 2380
z
" transform="scale(0.015625)"/>
       <path id="CMSS17-52" d="M 2522 2099
L 2534 2105
C 3533 2450 3539 3125 3539 3244
C 3539 3838 2925 4416 2003 4416
L 570 4416
L 570 0
L 1094 0
L 1094 2041
L 2035 2041
L 3168 0
L 3706 0
L 2522 2099
z
M 1094 2432
L 1094 4057
L 1933 4057
C 2746 4057 3034 3607 3034 3244
C 3034 2907 2778 2432 1933 2432
L 1094 2432
z
" transform="scale(0.015625)"/>
       <path id="CMSS17-74" d="M 1069 2380
L 1901 2380
L 1901 2752
L 1069 2752
L 1069 3520
L 614 3520
L 614 2752
L 109 2752
L 109 2380
L 602 2380
L 602 751
C 602 384 685 -64 1107 -64
C 1427 -64 1722 25 2003 172
L 1901 551
C 1747 416 1562 339 1363 339
C 1082 339 1069 699 1069 860
L 1069 2380
z
" transform="scale(0.015625)"/>
       <path id="CMSS17-73" d="M 2061 2623
C 1683 2803 1389 2816 1197 2816
C 742 2816 198 2655 198 2009
C 198 1363 902 1222 1094 1183
C 1389 1126 1715 1062 1715 742
C 1715 339 1254 339 1171 339
C 915 339 563 409 243 639
L 166 211
C 531 0 883 -64 1178 -64
C 1965 -64 2163 416 2163 780
C 2163 1094 1984 1305 1862 1401
C 1651 1567 1574 1587 1050 1695
C 960 1708 646 1779 646 2067
C 646 2431 1050 2431 1139 2431
C 1555 2431 1811 2303 1984 2207
L 2061 2623
z
" transform="scale(0.015625)"/>
       <path id="CMMI12-4e" d="M 4736 3682
C 4806 3956 4909 4147 5395 4166
C 5414 4166 5491 4172 5491 4281
C 5491 4352 5434 4352 5408 4352
C 5280 4352 4954 4339 4826 4339
L 4518 4339
C 4429 4339 4314 4352 4224 4352
C 4186 4352 4109 4352 4109 4230
C 4109 4166 4160 4166 4205 4166
C 4589 4153 4614 4007 4614 3892
C 4614 3835 4608 3816 4589 3726
L 3866 854
L 2496 4243
C 2451 4345 2445 4352 2304 4352
L 1523 4352
C 1395 4352 1338 4352 1338 4230
C 1338 4166 1382 4166 1504 4166
C 1536 4166 1914 4166 1914 4109
C 1914 4096 1901 4045 1894 4026
L 1043 650
C 966 338 813 204 390 185
C 358 185 294 179 294 64
C 294 0 358 0 378 0
C 506 0 832 12 960 12
L 1267 12
C 1357 12 1466 0 1555 0
C 1600 0 1670 0 1670 121
C 1670 179 1606 185 1581 185
C 1370 191 1165 230 1165 459
C 1165 510 1178 567 1190 618
L 2054 4026
C 2093 3962 2093 3949 2118 3892
L 3642 115
C 3674 38 3686 0 3744 0
C 3808 0 3814 19 3840 128
L 4736 3682
z
" transform="scale(0.015625)"/>
       <path id="CMMI12-52" d="M 2355 3917
C 2413 4153 2438 4166 2688 4166
L 3149 4166
C 3699 4166 4109 4000 4109 3503
C 4109 3177 3942 2240 2656 2240
L 1933 2240
L 2355 3917
z
M 3245 2163
C 4038 2335 4659 2846 4659 3394
C 4659 3892 4154 4352 3264 4352
L 1530 4352
C 1402 4352 1344 4352 1344 4230
C 1344 4166 1389 4166 1510 4166
C 1894 4166 1894 4115 1894 4045
C 1894 4032 1894 3994 1869 3898
L 1005 475
C 947 253 934 190 493 190
C 346 190 301 190 301 69
C 301 6 371 6 390 6
C 506 6 640 19 762 19
L 1517 19
C 1632 19 1766 6 1882 6
C 1933 6 2003 6 2003 126
C 2003 190 1946 190 1850 190
C 1459 190 1459 241 1459 304
C 1459 310 1459 355 1472 405
L 1901 2112
L 2669 2112
C 3277 2112 3392 1731 3392 1522
C 3392 1426 3328 1179 3283 1014
C 3213 723 3194 653 3194 532
C 3194 82 3565 -128 3994 -128
C 4512 -128 4736 501 4736 589
C 4736 634 4704 653 4666 653
C 4614 653 4602 615 4589 564
C 4435 114 4173 0 4013 0
C 3853 0 3750 69 3750 355
C 3750 507 3827 1084 3834 1116
C 3866 1350 3866 1376 3866 1426
C 3866 1889 3488 2086 3245 2163
z
" transform="scale(0.015625)"/>
      </defs>
      <use xlink:href="#CMSS17-4e" transform="scale(0.996264)"/>
      <use xlink:href="#CMSS17-75" transform="translate(66.061519 0) scale(0.996264)"/>
      <use xlink:href="#CMSS17-6d" transform="translate(114.266462 0) scale(0.996264)"/>
      <use xlink:href="#CMSS17-62" transform="translate(188.495717 0) scale(0.996264)"/>
      <use xlink:href="#CMSS17-65" transform="translate(239.303099 0) scale(0.996264)"/>
      <use xlink:href="#CMSS17-72" transform="translate(280.941921 0) scale(0.996264)"/>
      <use xlink:href="#CMSS17-6f" transform="translate(344.080806 0) scale(0.996264)"/>
      <use xlink:href="#CMSS17-66" transform="translate(390.92443 0) scale(0.996264)"/>
      <use xlink:href="#CMSS17-52" transform="translate(450.780201 0) scale(0.996264)"/>
      <use xlink:href="#CMSS17-6f" transform="translate(511.196356 0) scale(0.996264)"/>
      <use xlink:href="#CMSS17-62" transform="translate(558.039979 0) scale(0.996264)"/>
      <use xlink:href="#CMSS17-6f" transform="translate(608.847361 0) scale(0.996264)"/>
      <use xlink:href="#CMSS17-74" transform="translate(655.690985 0) scale(0.996264)"/>
      <use xlink:href="#CMSS17-73" transform="translate(689.522552 0) scale(0.996264)"/>
      <use xlink:href="#CMMI12-4e" transform="translate(756.665206 0) scale(0.996264)"/>
      <use xlink:href="#CMMI12-52" transform="translate(834.780325 -14.943915) scale(0.697382)"/>
     </g>
    </g>
   </g>
   <g id="matplotlib.axis_2">
    <g id="ytick_1">
     <g id="line2d_11">
      <path d="M 56.634945 530.057548
L 394.395021 530.057548
" clip-path="url(#p0e055566e5)" style="fill: none; stroke: #ffffff; stroke-linecap: round"/>
     </g>
     <g id="text_12">
      <!-- $\mathdefault{−25}$ -->
      <g style="fill: #262626" transform="translate(29.423531 533.516797) scale(0.1 -0.1)">
       <defs>
        <path id="CMSY10-0" d="M 4218 1472
C 4326 1472 4442 1472 4442 1600
C 4442 1728 4326 1728 4218 1728
L 755 1728
C 646 1728 531 1728 531 1600
C 531 1472 646 1472 755 1472
L 4218 1472
z
" transform="scale(0.015625)"/>
        <path id="CMR17-32" d="M 2669 990
L 2554 990
C 2490 537 2438 460 2413 422
C 2381 371 1920 371 1830 371
L 602 371
C 832 620 1280 1073 1824 1596
C 2214 1966 2669 2400 2669 3033
C 2669 3788 2067 4224 1395 4224
C 691 4224 262 3603 262 3027
C 262 2777 448 2745 525 2745
C 589 2745 781 2783 781 3007
C 781 3206 614 3264 525 3264
C 486 3264 448 3257 422 3244
C 544 3788 915 4057 1306 4057
C 1862 4057 2227 3616 2227 3033
C 2227 2477 1901 1998 1536 1583
L 262 147
L 262 0
L 2515 0
L 2669 990
z
" transform="scale(0.015625)"/>
        <path id="CMR17-35" d="M 730 3750
C 794 3724 1056 3641 1325 3641
C 1920 3641 2246 3961 2432 4140
C 2432 4191 2432 4224 2394 4224
C 2387 4224 2374 4224 2323 4198
C 2099 4102 1837 4032 1517 4032
C 1325 4032 1037 4055 723 4191
C 653 4224 640 4224 634 4224
C 602 4224 595 4217 595 4090
L 595 2231
C 595 2113 595 2080 659 2080
C 691 2080 704 2093 736 2139
C 941 2435 1222 2560 1542 2560
C 1766 2560 2246 2415 2246 1293
C 2246 1087 2246 716 2054 422
C 1894 159 1645 25 1370 25
C 947 25 518 319 403 812
C 429 806 480 793 506 793
C 589 793 749 838 749 1036
C 749 1209 627 1280 506 1280
C 358 1280 262 1190 262 1011
C 262 454 704 -128 1382 -128
C 2042 -128 2669 441 2669 1267
C 2669 2054 2170 2662 1549 2662
C 1222 2662 947 2540 730 2304
L 730 3750
z
" transform="scale(0.015625)"/>
       </defs>
       <use xlink:href="#CMSY10-0" transform="scale(0.996264)"/>
       <use xlink:href="#CMR17-32" transform="translate(77.487468 0) scale(0.996264)"/>
       <use xlink:href="#CMR17-35" transform="translate(123.177945 0) scale(0.996264)"/>
      </g>
     </g>
    </g>
    <g id="ytick_2">
     <g id="line2d_12">
      <path d="M 56.634945 427.329888
L 394.395021 427.329888
" clip-path="url(#p0e055566e5)" style="fill: none; stroke: #ffffff; stroke-linecap: round"/>
     </g>
     <g id="text_13">
      <!-- $\mathdefault{−20}$ -->
      <g style="fill: #262626" transform="translate(29.423531 430.789137) scale(0.1 -0.1)">
       <defs>
        <path id="CMR17-30" d="M 2688 2038
C 2688 2430 2682 3099 2413 3613
C 2176 4063 1798 4224 1466 4224
C 1158 4224 768 4082 525 3620
C 269 3137 243 2539 243 2038
C 243 1671 250 1112 448 623
C 723 -39 1216 -128 1466 -128
C 1760 -128 2208 -7 2470 604
C 2662 1048 2688 1568 2688 2038
z
M 1466 -26
C 1056 -26 813 328 723 816
C 653 1196 653 1749 653 2109
C 653 2604 653 3015 736 3407
C 858 3954 1216 4121 1466 4121
C 1728 4121 2067 3947 2189 3420
C 2272 3054 2278 2623 2278 2109
C 2278 1691 2278 1176 2202 797
C 2067 96 1690 -26 1466 -26
z
" transform="scale(0.015625)"/>
       </defs>
       <use xlink:href="#CMSY10-0" transform="scale(0.996264)"/>
       <use xlink:href="#CMR17-32" transform="translate(77.487468 0) scale(0.996264)"/>
       <use xlink:href="#CMR17-30" transform="translate(123.177945 0) scale(0.996264)"/>
      </g>
     </g>
    </g>
    <g id="ytick_3">
     <g id="line2d_13">
      <path d="M 56.634945 324.602228
L 394.395021 324.602228
" clip-path="url(#p0e055566e5)" style="fill: none; stroke: #ffffff; stroke-linecap: round"/>
     </g>
     <g id="text_14">
      <!-- $\mathdefault{−15}$ -->
      <g style="fill: #262626" transform="translate(29.423531 328.061477) scale(0.1 -0.1)">
       <defs>
        <path id="CMR17-31" d="M 1702 4083
C 1702 4217 1696 4224 1606 4224
C 1357 3927 979 3833 621 3820
C 602 3820 570 3820 563 3808
C 557 3795 557 3782 557 3648
C 755 3648 1088 3686 1344 3839
L 1344 467
C 1344 243 1331 166 781 166
L 589 166
L 589 0
C 896 6 1216 12 1523 12
C 1830 12 2150 6 2458 0
L 2458 166
L 2266 166
C 1715 166 1702 236 1702 467
L 1702 4083
z
" transform="scale(0.015625)"/>
       </defs>
       <use xlink:href="#CMSY10-0" transform="scale(0.996264)"/>
       <use xlink:href="#CMR17-31" transform="translate(77.487468 0) scale(0.996264)"/>
       <use xlink:href="#CMR17-35" transform="translate(123.177945 0) scale(0.996264)"/>
      </g>
     </g>
    </g>
    <g id="ytick_4">
     <g id="line2d_14">
      <path d="M 56.634945 221.874569
L 394.395021 221.874569
" clip-path="url(#p0e055566e5)" style="fill: none; stroke: #ffffff; stroke-linecap: round"/>
     </g>
     <g id="text_15">
      <!-- $\mathdefault{−10}$ -->
      <g style="fill: #262626" transform="translate(29.423531 225.333818) scale(0.1 -0.1)">
       <use xlink:href="#CMSY10-0" transform="scale(0.996264)"/>
       <use xlink:href="#CMR17-31" transform="translate(77.487468 0) scale(0.996264)"/>
       <use xlink:href="#CMR17-30" transform="translate(123.177945 0) scale(0.996264)"/>
      </g>
     </g>
    </g>
    <g id="ytick_5">
     <g id="line2d_15">
      <path d="M 56.634945 119.146909
L 394.395021 119.146909
" clip-path="url(#p0e055566e5)" style="fill: none; stroke: #ffffff; stroke-linecap: round"/>
     </g>
     <g id="text_16">
      <!-- $\mathdefault{−5}$ -->
      <g style="fill: #262626" transform="translate(34.404866 122.606158) scale(0.1 -0.1)">
       <use xlink:href="#CMSY10-0" transform="scale(0.996264)"/>
       <use xlink:href="#CMR17-35" transform="translate(77.487468 0) scale(0.996264)"/>
      </g>
     </g>
    </g>
    <g id="ytick_6">
     <g id="line2d_16">
      <path d="M 56.634945 16.419249
L 394.395021 16.419249
" clip-path="url(#p0e055566e5)" style="fill: none; stroke: #ffffff; stroke-linecap: round"/>
     </g>
     <g id="text_17">
      <!-- $\mathdefault{0}$ -->
      <g style="fill: #262626" transform="translate(42.15361 19.878498) scale(0.1 -0.1)">
       <use xlink:href="#CMR17-30" transform="scale(0.996264)"/>
      </g>
     </g>
    </g>
    <g id="text_18">
     <!-- Log Dimensionless Jerk $[m/s^3]$ -->
     <g style="fill: #262626" transform="translate(22.434739 348.537828) rotate(-90) scale(0.12 -0.12)">
      <defs>
       <path id="CMSS17-4c" d="M 1670 416
C 1594 416 1517 409 1440 409
L 1101 409
L 1101 4416
L 563 4416
L 563 0
L 3002 0
L 3002 416
L 1670 416
z
" transform="scale(0.015625)"/>
       <path id="CMSS17-67" d="M 2848 2816
C 2483 2809 2170 2739 1914 2617
C 1702 2783 1485 2816 1338 2816
C 781 2816 358 2356 358 1824
C 358 1481 550 1222 563 1209
C 448 1049 384 876 384 684
C 384 460 474 300 544 211
C 211 6 166 -308 166 -429
C 166 -896 749 -1280 1498 -1280
C 2253 -1280 2835 -896 2835 -423
C 2835 460 1856 467 1587 467
L 1069 467
C 973 467 717 467 717 793
C 717 921 774 1004 781 1011
C 877 940 1075 832 1338 832
C 1869 832 2310 1279 2310 1824
C 2310 2128 2170 2349 2112 2425
L 2131 2425
C 2150 2425 2419 2444 2515 2444
C 2720 2444 2739 2438 2918 2419
L 2848 2816
z
M 1338 1184
C 1120 1184 813 1317 813 1824
C 813 2375 1165 2463 1331 2463
C 1549 2463 1856 2330 1856 1824
C 1856 1272 1504 1184 1338 1184
z
M 1581 0
C 1734 0 2381 0 2381 -436
C 2381 -711 1984 -928 1504 -928
C 1018 -928 621 -717 621 -429
C 621 -397 621 0 1062 0
L 1581 0
z
" transform="scale(0.015625)"/>
       <path id="CMSS17-44" d="M 570 4416
L 570 0
L 2144 0
C 3194 0 4000 981 4000 2169
C 4000 3396 3194 4416 2144 4416
L 570 4416
z
M 1094 358
L 1094 4057
L 2003 4057
C 2861 4057 3475 3275 3475 2169
C 3475 1108 2867 358 2003 358
L 1094 358
z
" transform="scale(0.015625)"/>
       <path id="CMSS17-69" d="M 979 4224
L 442 4224
L 442 3686
L 979 3686
L 979 4224
z
M 947 2752
L 474 2752
L 474 0
L 947 0
L 947 2752
z
" transform="scale(0.015625)"/>
       <path id="CMSS17-6e" d="M 2618 1878
C 2618 2283 2522 2816 1798 2816
C 1389 2816 1120 2604 941 2386
L 941 2783
L 474 2783
L 474 0
L 960 0
L 960 1556
C 960 1962 1114 2425 1549 2425
C 2112 2425 2131 2045 2131 1826
L 2131 0
L 2618 0
L 2618 1878
z
" transform="scale(0.015625)"/>
       <path id="CMSS17-6c" d="M 947 4416
L 474 4416
L 474 0
L 947 0
L 947 4416
z
" transform="scale(0.015625)"/>
       <path id="CMSS17-4a" d="M 2336 4416
L 1811 4416
L 1811 947
C 1811 640 1683 262 1107 262
C 781 262 506 416 333 608
L 250 140
C 646 -71 1011 -128 1280 -128
C 1901 -128 2336 230 2336 928
L 2336 4416
z
" transform="scale(0.015625)"/>
       <path id="CMSS17-6b" d="M 1696 1686
L 2688 2735
L 2074 2735
L 954 1552
L 954 4416
L 480 4416
L 480 0
L 947 0
L 947 891
L 1376 1342
L 2278 0
L 2822 0
L 1696 1686
z
" transform="scale(0.015625)"/>
       <path id="CMR17-5b" d="M 1504 -1600
L 1504 -1376
L 902 -1376
L 902 4575
L 1504 4575
L 1504 4800
L 678 4800
L 678 -1600
L 1504 -1600
z
" transform="scale(0.015625)"/>
       <path id="CMMI12-6d" d="M 1318 1870
C 1331 1909 1491 2228 1728 2432
C 1894 2585 2112 2687 2362 2687
C 2618 2687 2707 2496 2707 2241
C 2707 2202 2707 2075 2630 1775
L 2470 1117
C 2419 925 2298 453 2285 383
C 2259 287 2221 121 2221 95
C 2221 6 2291 -64 2387 -64
C 2579 -64 2611 83 2669 313
L 3053 1838
C 3066 1890 3398 2687 4102 2687
C 4358 2687 4448 2496 4448 2241
C 4448 1883 4198 1187 4058 804
C 4000 651 3968 568 3968 453
C 3968 166 4166 -64 4474 -64
C 5069 -64 5293 874 5293 913
C 5293 945 5267 970 5229 970
C 5171 970 5165 951 5133 842
C 4986 332 4749 64 4493 64
C 4429 64 4326 70 4326 274
C 4326 440 4403 645 4429 715
C 4544 1021 4832 1775 4832 2145
C 4832 2528 4608 2816 4122 2816
C 3693 2816 3347 2573 3091 2196
C 3072 2541 2861 2816 2381 2816
C 1811 2816 1510 2413 1395 2253
C 1376 2617 1114 2816 832 2816
C 646 2816 499 2726 378 2483
C 262 2253 173 1864 173 1838
C 173 1813 198 1781 243 1781
C 294 1781 301 1787 339 1934
C 435 2311 557 2687 813 2687
C 960 2687 1011 2585 1011 2394
C 1011 2253 947 2004 902 1807
L 723 1117
C 698 996 627 708 595 593
C 550 427 480 127 480 95
C 480 6 550 -64 646 -64
C 723 -64 813 -26 864 70
C 877 102 934 325 966 453
L 1107 1028
L 1318 1870
z
" transform="scale(0.015625)"/>
       <path id="CMMI12-3d" d="M 2746 4563
C 2746 4569 2784 4665 2784 4678
C 2784 4755 2720 4800 2669 4800
C 2637 4800 2579 4800 2528 4659
L 384 -1364
C 384 -1370 346 -1466 346 -1479
C 346 -1556 410 -1600 461 -1600
C 499 -1600 557 -1594 602 -1460
L 2746 4563
z
" transform="scale(0.015625)"/>
       <path id="CMMI12-73" d="M 1459 1290
C 1568 1271 1741 1233 1779 1227
C 1862 1201 2150 1099 2150 793
C 2150 595 1971 64 1229 64
C 1094 64 614 83 486 447
C 742 414 870 614 870 755
C 870 889 781 960 653 960
C 512 960 326 851 326 563
C 326 176 710 -64 1222 -64
C 2195 -64 2483 665 2483 998
C 2483 1093 2483 1271 2278 1475
C 2118 1627 1965 1659 1619 1729
C 1446 1767 1171 1824 1171 2111
C 1171 2239 1286 2687 1894 2687
C 2163 2687 2426 2589 2490 2368
C 2208 2368 2195 2124 2195 2118
C 2195 1983 2317 1945 2374 1945
C 2464 1945 2643 2015 2643 2284
C 2643 2546 2400 2816 1901 2816
C 1062 2816 838 2169 838 1907
C 838 1424 1312 1322 1459 1290
z
" transform="scale(0.015625)"/>
       <path id="CMR17-33" d="M 1414 2176
C 1984 2176 2234 1673 2234 1094
C 2234 322 1824 25 1453 25
C 1114 25 563 193 390 691
C 422 678 454 678 486 678
C 640 678 755 780 755 947
C 755 1132 614 1216 486 1216
C 378 1216 211 1164 211 927
C 211 335 787 -128 1466 -128
C 2176 -128 2720 432 2720 1087
C 2720 1718 2208 2176 1600 2246
C 2086 2347 2554 2776 2554 3353
C 2554 3856 2048 4224 1472 4224
C 890 4224 378 3862 378 3347
C 378 3123 544 3084 627 3084
C 762 3084 877 3167 877 3334
C 877 3500 762 3584 627 3584
C 602 3584 570 3584 544 3571
C 730 3999 1235 4076 1459 4076
C 1683 4076 2106 3966 2106 3347
C 2106 3167 2080 2851 1862 2574
C 1670 2329 1453 2316 1242 2297
C 1210 2297 1062 2284 1037 2284
C 992 2278 966 2272 966 2227
C 966 2182 973 2176 1101 2176
L 1414 2176
z
" transform="scale(0.015625)"/>
       <path id="CMR17-5d" d="M 915 4800
L 90 4800
L 90 4575
L 691 4575
L 691 -1376
L 90 -1376
L 90 -1600
L 915 -1600
L 915 4800
z
" transform="scale(0.015625)"/>
      </defs>
      <use xlink:href="#CMSS17-4c" transform="scale(0.996264)"/>
      <use xlink:href="#CMSS17-6f" transform="translate(50.687105 0) scale(0.996264)"/>
      <use xlink:href="#CMSS17-67" transform="translate(97.530729 0) scale(0.996264)"/>
      <use xlink:href="#CMSS17-44" transform="translate(175.603465 0) scale(0.996264)"/>
      <use xlink:href="#CMSS17-69" transform="translate(243.146307 0) scale(0.996264)"/>
      <use xlink:href="#CMSS17-6d" transform="translate(265.32703 0) scale(0.996264)"/>
      <use xlink:href="#CMSS17-65" transform="translate(339.556284 0) scale(0.996264)"/>
      <use xlink:href="#CMSS17-6e" transform="translate(381.195106 0) scale(0.996264)"/>
      <use xlink:href="#CMSS17-73" transform="translate(429.400049 0) scale(0.996264)"/>
      <use xlink:href="#CMSS17-69" transform="translate(465.313591 0) scale(0.996264)"/>
      <use xlink:href="#CMSS17-6f" transform="translate(487.494315 0) scale(0.996264)"/>
      <use xlink:href="#CMSS17-6e" transform="translate(534.337938 0) scale(0.996264)"/>
      <use xlink:href="#CMSS17-6c" transform="translate(582.542881 0) scale(0.996264)"/>
      <use xlink:href="#CMSS17-65" transform="translate(604.723604 0) scale(0.996264)"/>
      <use xlink:href="#CMSS17-73" transform="translate(646.362426 0) scale(0.996264)"/>
      <use xlink:href="#CMSS17-73" transform="translate(682.275968 0) scale(0.996264)"/>
      <use xlink:href="#CMSS17-4a" transform="translate(749.418623 0) scale(0.996264)"/>
      <use xlink:href="#CMSS17-65" transform="translate(793.539699 0) scale(0.996264)"/>
      <use xlink:href="#CMSS17-72" transform="translate(835.178521 0) scale(0.996264)"/>
      <use xlink:href="#CMSS17-6b" transform="translate(867.088293 0) scale(0.996264)"/>
      <use xlink:href="#CMR17-5b" transform="translate(943.919895 0) scale(0.996264)"/>
      <use xlink:href="#CMMI12-6d" transform="translate(968.790954 0) scale(0.996264)"/>
      <use xlink:href="#CMMI12-3d" transform="translate(1054.118178 0) scale(0.996264)"/>
      <use xlink:href="#CMMI12-73" transform="translate(1102.893097 0) scale(0.996264)"/>
      <use xlink:href="#CMR17-33" transform="translate(1148.843144 36.153639) scale(0.697382)"/>
      <use xlink:href="#CMR17-5d" transform="translate(1181.324458 0) scale(0.996264)"/>
     </g>
    </g>
   </g>
   <g id="line2d_17">
    <path d="M 65.078947 202.635544
L 81.966951 202.635544
L 81.966951 159.636934
L 65.078947 159.636934
L 65.078947 202.635544
" clip-path="url(#p0e055566e5)" style="fill: none; stroke: #7287fd; stroke-width: 2; stroke-linecap: round"/>
   </g>
   <g id="line2d_18">
    <path d="M 73.522949 202.635544
L 73.522949 229.939394
" clip-path="url(#p0e055566e5)" style="fill: none; stroke: #7287fd; stroke-width: 1.5; stroke-linecap: round"/>
   </g>
   <g id="line2d_19">
    <path d="M 73.522949 159.636934
L 73.522949 132.653868
" clip-path="url(#p0e055566e5)" style="fill: none; stroke: #7287fd; stroke-width: 1.5; stroke-linecap: round"/>
   </g>
   <g id="line2d_20">
    <path d="M 69.300948 229.939394
L 77.74495 229.939394
" clip-path="url(#p0e055566e5)" style="fill: none; stroke: #7287fd; stroke-width: 1.5; stroke-linecap: round"/>
   </g>
   <g id="line2d_21">
    <path d="M 69.300948 132.653868
L 77.74495 132.653868
" clip-path="url(#p0e055566e5)" style="fill: none; stroke: #7287fd; stroke-width: 1.5; stroke-linecap: round"/>
   </g>
   <g id="line2d_22"/>
   <g id="line2d_23">
    <path d="M 98.854955 231.696179
L 115.742958 231.696179
L 115.742958 202.680641
L 98.854955 202.680641
L 98.854955 231.696179
" clip-path="url(#p0e055566e5)" style="fill: none; stroke: #7287fd; stroke-width: 2; stroke-linecap: round"/>
   </g>
   <g id="line2d_24">
    <path d="M 107.298957 231.696179
L 107.298957 263.131675
" clip-path="url(#p0e055566e5)" style="fill: none; stroke: #7287fd; stroke-width: 1.5; stroke-linecap: round"/>
   </g>
   <g id="line2d_25">
    <path d="M 107.298957 202.680641
L 107.298957 173.005683
" clip-path="url(#p0e055566e5)" style="fill: none; stroke: #7287fd; stroke-width: 1.5; stroke-linecap: round"/>
   </g>
   <g id="line2d_26">
    <path d="M 103.076956 263.131675
L 111.520958 263.131675
" clip-path="url(#p0e055566e5)" style="fill: none; stroke: #7287fd; stroke-width: 1.5; stroke-linecap: round"/>
   </g>
   <g id="line2d_27">
    <path d="M 103.076956 173.005683
L 111.520958 173.005683
" clip-path="url(#p0e055566e5)" style="fill: none; stroke: #7287fd; stroke-width: 1.5; stroke-linecap: round"/>
   </g>
   <g id="line2d_28"/>
   <g id="line2d_29">
    <path d="M 132.630962 252.352414
L 149.518966 252.352414
L 149.518966 221.116145
L 132.630962 221.116145
L 132.630962 252.352414
" clip-path="url(#p0e055566e5)" style="fill: none; stroke: #7287fd; stroke-width: 2; stroke-linecap: round"/>
   </g>
   <g id="line2d_30">
    <path d="M 141.074964 252.352414
L 141.074964 293.881974
" clip-path="url(#p0e055566e5)" style="fill: none; stroke: #7287fd; stroke-width: 1.5; stroke-linecap: round"/>
   </g>
   <g id="line2d_31">
    <path d="M 141.074964 221.116145
L 141.074964 189.44781
" clip-path="url(#p0e055566e5)" style="fill: none; stroke: #7287fd; stroke-width: 1.5; stroke-linecap: round"/>
   </g>
   <g id="line2d_32">
    <path d="M 136.852963 293.881974
L 145.296965 293.881974
" clip-path="url(#p0e055566e5)" style="fill: none; stroke: #7287fd; stroke-width: 1.5; stroke-linecap: round"/>
   </g>
   <g id="line2d_33">
    <path d="M 136.852963 189.44781
L 145.296965 189.44781
" clip-path="url(#p0e055566e5)" style="fill: none; stroke: #7287fd; stroke-width: 1.5; stroke-linecap: round"/>
   </g>
   <g id="line2d_34"/>
   <g id="line2d_35">
    <path d="M 166.40697 253.305441
L 183.294974 253.305441
L 183.294974 227.764194
L 166.40697 227.764194
L 166.40697 253.305441
" clip-path="url(#p0e055566e5)" style="fill: none; stroke: #7287fd; stroke-width: 2; stroke-linecap: round"/>
   </g>
   <g id="line2d_36">
    <path d="M 174.850972 253.305441
L 174.850972 288.287228
" clip-path="url(#p0e055566e5)" style="fill: none; stroke: #7287fd; stroke-width: 1.5; stroke-linecap: round"/>
   </g>
   <g id="line2d_37">
    <path d="M 174.850972 227.764194
L 174.850972 196.582805
" clip-path="url(#p0e055566e5)" style="fill: none; stroke: #7287fd; stroke-width: 1.5; stroke-linecap: round"/>
   </g>
   <g id="line2d_38">
    <path d="M 170.628971 288.287228
L 179.072973 288.287228
" clip-path="url(#p0e055566e5)" style="fill: none; stroke: #7287fd; stroke-width: 1.5; stroke-linecap: round"/>
   </g>
   <g id="line2d_39">
    <path d="M 170.628971 196.582805
L 179.072973 196.582805
" clip-path="url(#p0e055566e5)" style="fill: none; stroke: #7287fd; stroke-width: 1.5; stroke-linecap: round"/>
   </g>
   <g id="line2d_40">
    <defs>
     <path id="m71661bc220" d="M -0 5.656854
L 5.656854 0
L 0 -5.656854
L -5.656854 -0
z
" style="stroke: #000000; stroke-linejoin: miter"/>
    </defs>
    <g clip-path="url(#p0e055566e5)">
     <use xlink:href="#m71661bc220" x="174.850972" y="305.439716" style="fill-opacity: 0; stroke: #000000; stroke-linejoin: miter"/>
    </g>
   </g>
   <g id="line2d_41">
    <path d="M 200.182977 268.319816
L 217.070981 268.319816
L 217.070981 238.724441
L 200.182977 238.724441
L 200.182977 268.319816
" clip-path="url(#p0e055566e5)" style="fill: none; stroke: #7287fd; stroke-width: 2; stroke-linecap: round"/>
   </g>
   <g id="line2d_42">
    <path d="M 208.626979 268.319816
L 208.626979 300.575574
" clip-path="url(#p0e055566e5)" style="fill: none; stroke: #7287fd; stroke-width: 1.5; stroke-linecap: round"/>
   </g>
   <g id="line2d_43">
    <path d="M 208.626979 238.724441
L 208.626979 204.123898
" clip-path="url(#p0e055566e5)" style="fill: none; stroke: #7287fd; stroke-width: 1.5; stroke-linecap: round"/>
   </g>
   <g id="line2d_44">
    <path d="M 204.404978 300.575574
L 212.84898 300.575574
" clip-path="url(#p0e055566e5)" style="fill: none; stroke: #7287fd; stroke-width: 1.5; stroke-linecap: round"/>
   </g>
   <g id="line2d_45">
    <path d="M 204.404978 204.123898
L 212.84898 204.123898
" clip-path="url(#p0e055566e5)" style="fill: none; stroke: #7287fd; stroke-width: 1.5; stroke-linecap: round"/>
   </g>
   <g id="line2d_46"/>
   <g id="line2d_47">
    <path d="M 233.958985 266.120996
L 250.846989 266.120996
L 250.846989 237.275477
L 233.958985 237.275477
L 233.958985 266.120996
" clip-path="url(#p0e055566e5)" style="fill: none; stroke: #7287fd; stroke-width: 2; stroke-linecap: round"/>
   </g>
   <g id="line2d_48">
    <path d="M 242.402987 266.120996
L 242.402987 298.828472
" clip-path="url(#p0e055566e5)" style="fill: none; stroke: #7287fd; stroke-width: 1.5; stroke-linecap: round"/>
   </g>
   <g id="line2d_49">
    <path d="M 242.402987 237.275477
L 242.402987 196.706126
" clip-path="url(#p0e055566e5)" style="fill: none; stroke: #7287fd; stroke-width: 1.5; stroke-linecap: round"/>
   </g>
   <g id="line2d_50">
    <path d="M 238.180986 298.828472
L 246.624988 298.828472
" clip-path="url(#p0e055566e5)" style="fill: none; stroke: #7287fd; stroke-width: 1.5; stroke-linecap: round"/>
   </g>
   <g id="line2d_51">
    <path d="M 238.180986 196.706126
L 246.624988 196.706126
" clip-path="url(#p0e055566e5)" style="fill: none; stroke: #7287fd; stroke-width: 1.5; stroke-linecap: round"/>
   </g>
   <g id="line2d_52"/>
   <g id="line2d_53">
    <path d="M 267.734993 273.671491
L 284.622996 273.671491
L 284.622996 248.944999
L 267.734993 248.944999
L 267.734993 273.671491
" clip-path="url(#p0e055566e5)" style="fill: none; stroke: #7287fd; stroke-width: 2; stroke-linecap: round"/>
   </g>
   <g id="line2d_54">
    <path d="M 276.178995 273.671491
L 276.178995 307.550443
" clip-path="url(#p0e055566e5)" style="fill: none; stroke: #7287fd; stroke-width: 1.5; stroke-linecap: round"/>
   </g>
   <g id="line2d_55">
    <path d="M 276.178995 248.944999
L 276.178995 217.647216
" clip-path="url(#p0e055566e5)" style="fill: none; stroke: #7287fd; stroke-width: 1.5; stroke-linecap: round"/>
   </g>
   <g id="line2d_56">
    <path d="M 271.956994 307.550443
L 280.400996 307.550443
" clip-path="url(#p0e055566e5)" style="fill: none; stroke: #7287fd; stroke-width: 1.5; stroke-linecap: round"/>
   </g>
   <g id="line2d_57">
    <path d="M 271.956994 217.647216
L 280.400996 217.647216
" clip-path="url(#p0e055566e5)" style="fill: none; stroke: #7287fd; stroke-width: 1.5; stroke-linecap: round"/>
   </g>
   <g id="line2d_58">
    <g clip-path="url(#p0e055566e5)">
     <use xlink:href="#m71661bc220" x="276.178995" y="328.818343" style="fill-opacity: 0; stroke: #000000; stroke-linejoin: miter"/>
     <use xlink:href="#m71661bc220" x="276.178995" y="204.255595" style="fill-opacity: 0; stroke: #000000; stroke-linejoin: miter"/>
     <use xlink:href="#m71661bc220" x="276.178995" y="207.645809" style="fill-opacity: 0; stroke: #000000; stroke-linejoin: miter"/>
    </g>
   </g>
   <g id="line2d_59">
    <path d="M 301.511 282.287084
L 318.399004 282.287084
L 318.399004 251.446747
L 301.511 251.446747
L 301.511 282.287084
" clip-path="url(#p0e055566e5)" style="fill: none; stroke: #7287fd; stroke-width: 2; stroke-linecap: round"/>
   </g>
   <g id="line2d_60">
    <path d="M 309.955002 282.287084
L 309.955002 325.611488
" clip-path="url(#p0e055566e5)" style="fill: none; stroke: #7287fd; stroke-width: 1.5; stroke-linecap: round"/>
   </g>
   <g id="line2d_61">
    <path d="M 309.955002 251.446747
L 309.955002 226.935487
" clip-path="url(#p0e055566e5)" style="fill: none; stroke: #7287fd; stroke-width: 1.5; stroke-linecap: round"/>
   </g>
   <g id="line2d_62">
    <path d="M 305.733001 325.611488
L 314.177003 325.611488
" clip-path="url(#p0e055566e5)" style="fill: none; stroke: #7287fd; stroke-width: 1.5; stroke-linecap: round"/>
   </g>
   <g id="line2d_63">
    <path d="M 305.733001 226.935487
L 314.177003 226.935487
" clip-path="url(#p0e055566e5)" style="fill: none; stroke: #7287fd; stroke-width: 1.5; stroke-linecap: round"/>
   </g>
   <g id="line2d_64">
    <g clip-path="url(#p0e055566e5)">
     <use xlink:href="#m71661bc220" x="309.955002" y="196.65341" style="fill-opacity: 0; stroke: #000000; stroke-linejoin: miter"/>
    </g>
   </g>
   <g id="line2d_65">
    <path d="M 335.287008 284.117173
L 352.175012 284.117173
L 352.175012 254.460772
L 335.287008 254.460772
L 335.287008 284.117173
" clip-path="url(#p0e055566e5)" style="fill: none; stroke: #7287fd; stroke-width: 2; stroke-linecap: round"/>
   </g>
   <g id="line2d_66">
    <path d="M 343.73101 284.117173
L 343.73101 323.933085
" clip-path="url(#p0e055566e5)" style="fill: none; stroke: #7287fd; stroke-width: 1.5; stroke-linecap: round"/>
   </g>
   <g id="line2d_67">
    <path d="M 343.73101 254.460772
L 343.73101 222.200917
" clip-path="url(#p0e055566e5)" style="fill: none; stroke: #7287fd; stroke-width: 1.5; stroke-linecap: round"/>
   </g>
   <g id="line2d_68">
    <path d="M 339.509009 323.933085
L 347.953011 323.933085
" clip-path="url(#p0e055566e5)" style="fill: none; stroke: #7287fd; stroke-width: 1.5; stroke-linecap: round"/>
   </g>
   <g id="line2d_69">
    <path d="M 339.509009 222.200917
L 347.953011 222.200917
" clip-path="url(#p0e055566e5)" style="fill: none; stroke: #7287fd; stroke-width: 1.5; stroke-linecap: round"/>
   </g>
   <g id="line2d_70"/>
   <g id="line2d_71">
    <path d="M 369.063016 298.244823
L 385.951019 298.244823
L 385.951019 266.068761
L 369.063016 266.068761
L 369.063016 298.244823
" clip-path="url(#p0e055566e5)" style="fill: none; stroke: #7287fd; stroke-width: 2; stroke-linecap: round"/>
   </g>
   <g id="line2d_72">
    <path d="M 377.507017 298.244823
L 377.507017 344.259374
" clip-path="url(#p0e055566e5)" style="fill: none; stroke: #7287fd; stroke-width: 1.5; stroke-linecap: round"/>
   </g>
   <g id="line2d_73">
    <path d="M 377.507017 266.068761
L 377.507017 227.133863
" clip-path="url(#p0e055566e5)" style="fill: none; stroke: #7287fd; stroke-width: 1.5; stroke-linecap: round"/>
   </g>
   <g id="line2d_74">
    <path d="M 373.285016 344.259374
L 381.729018 344.259374
" clip-path="url(#p0e055566e5)" style="fill: none; stroke: #7287fd; stroke-width: 1.5; stroke-linecap: round"/>
   </g>
   <g id="line2d_75">
    <path d="M 373.285016 227.133863
L 381.729018 227.133863
" clip-path="url(#p0e055566e5)" style="fill: none; stroke: #7287fd; stroke-width: 1.5; stroke-linecap: round"/>
   </g>
   <g id="line2d_76">
    <g clip-path="url(#p0e055566e5)">
     <use xlink:href="#m71661bc220" x="377.507017" y="354.391336" style="fill-opacity: 0; stroke: #000000; stroke-linejoin: miter"/>
     <use xlink:href="#m71661bc220" x="377.507017" y="348.180169" style="fill-opacity: 0; stroke: #000000; stroke-linejoin: miter"/>
     <use xlink:href="#m71661bc220" x="377.507017" y="366.599448" style="fill-opacity: 0; stroke: #000000; stroke-linejoin: miter"/>
     <use xlink:href="#m71661bc220" x="377.507017" y="355.17618" style="fill-opacity: 0; stroke: #000000; stroke-linejoin: miter"/>
    </g>
   </g>
   <g id="line2d_77">
    <path d="M 65.078947 187.474129
L 81.966951 187.474129
" clip-path="url(#p0e055566e5)" style="fill: none; stroke: #1e66f5; stroke-width: 0.5"/>
   </g>
   <g id="line2d_78">
    <path d="M 98.854955 214.960943
L 115.742958 214.960943
" clip-path="url(#p0e055566e5)" style="fill: none; stroke: #1e66f5; stroke-width: 0.5"/>
   </g>
   <g id="line2d_79">
    <path d="M 132.630962 237.410428
L 149.518966 237.410428
" clip-path="url(#p0e055566e5)" style="fill: none; stroke: #1e66f5; stroke-width: 0.5"/>
   </g>
   <g id="line2d_80">
    <path d="M 166.40697 238.93041
L 183.294974 238.93041
" clip-path="url(#p0e055566e5)" style="fill: none; stroke: #1e66f5; stroke-width: 0.5"/>
   </g>
   <g id="line2d_81">
    <path d="M 200.182977 254.074701
L 217.070981 254.074701
" clip-path="url(#p0e055566e5)" style="fill: none; stroke: #1e66f5; stroke-width: 0.5"/>
   </g>
   <g id="line2d_82">
    <path d="M 233.958985 252.995178
L 250.846989 252.995178
" clip-path="url(#p0e055566e5)" style="fill: none; stroke: #1e66f5; stroke-width: 0.5"/>
   </g>
   <g id="line2d_83">
    <path d="M 267.734993 260.419743
L 284.622996 260.419743
" clip-path="url(#p0e055566e5)" style="fill: none; stroke: #1e66f5; stroke-width: 0.5"/>
   </g>
   <g id="line2d_84">
    <path d="M 301.511 265.744909
L 318.399004 265.744909
" clip-path="url(#p0e055566e5)" style="fill: none; stroke: #1e66f5; stroke-width: 0.5"/>
   </g>
   <g id="line2d_85">
    <path d="M 335.287008 269.263756
L 352.175012 269.263756
" clip-path="url(#p0e055566e5)" style="fill: none; stroke: #1e66f5; stroke-width: 0.5"/>
   </g>
   <g id="line2d_86">
    <path d="M 369.063016 278.948354
L 385.951019 278.948354
" clip-path="url(#p0e055566e5)" style="fill: none; stroke: #1e66f5; stroke-width: 0.5"/>
   </g>
   <g id="patch_3">
    <path d="M 56.634945 530.057548
L 56.634945 16.419249
" style="fill: none; stroke: #ffffff; stroke-width: 1.25; stroke-linejoin: miter; stroke-linecap: square"/>
   </g>
   <g id="patch_4">
    <path d="M 394.395021 530.057548
L 394.395021 16.419249
" style="fill: none; stroke: #ffffff; stroke-width: 1.25; stroke-linejoin: miter; stroke-linecap: square"/>
   </g>
   <g id="patch_5">
    <path d="M 56.634945 530.057548
L 394.395021 530.057548
" style="fill: none; stroke: #ffffff; stroke-width: 1.25; stroke-linejoin: miter; stroke-linecap: square"/>
   </g>
   <g id="patch_6">
    <path d="M 56.634945 16.419249
L 394.395021 16.419249
" style="fill: none; stroke: #ffffff; stroke-width: 1.25; stroke-linejoin: miter; stroke-linecap: square"/>
   </g>
  </g>
 </g>
 <defs>
  <clipPath id="p0e055566e5">
   <rect x="56.634945" y="16.419249" width="337.760076" height="513.638299"/>
  </clipPath>
 </defs>
</svg>
