<?xml version="1.0" encoding="utf-8" standalone="no"?>
<!DOCTYPE svg PUBLIC "-//W3C//DTD SVG 1.1//EN"
  "http://www.w3.org/Graphics/SVG/1.1/DTD/svg11.dtd">
<svg xmlns:xlink="http://www.w3.org/1999/xlink" width="288pt" height="144pt" viewBox="0 0 288 144" xmlns="http://www.w3.org/2000/svg" version="1.1">
 <metadata>
  <rdf:RDF xmlns:dc="http://purl.org/dc/elements/1.1/" xmlns:cc="http://creativecommons.org/ns#" xmlns:rdf="http://www.w3.org/1999/02/22-rdf-syntax-ns#">
   <cc:Work>
    <dc:type rdf:resource="http://purl.org/dc/dcmitype/StillImage"/>
    <dc:date>1980-01-01T00:00:00+00:00</dc:date>
    <dc:format>image/svg+xml</dc:format>
    <dc:creator>
     <cc:Agent>
      <dc:title>Matplotlib v3.8.3, https://matplotlib.org/</dc:title>
     </cc:Agent>
    </dc:creator>
   </cc:Work>
  </rdf:RDF>
 </metadata>
 <defs>
  <style type="text/css">*{stroke-linejoin: round; stroke-linecap: butt}</style>
 </defs>
 <g id="figure_1">
  <g id="patch_1">
   <path d="M 0 144
L 288 144
L 288 0
L 0 0
L 0 144
z
" style="fill: none; opacity: 0"/>
  </g>
  <g id="axes_1">
   <g id="patch_2">
    <path d="M 255.272727 100.020446
L 255.048643 98.890985
L 254.377292 97.766073
L 253.261378 96.650237
L 251.705394 95.547973
L 249.715605 94.463717
L 247.300025 93.401837
L 244.468379 92.366607
L 241.232069 91.362197
L 237.604127 90.39265
L 233.599162 89.461871
L 229.2333 88.573608
L 224.52412 87.731437
L 219.490585 86.938749
L 214.152964 86.198737
L 208.532749 85.51438
L 202.65257 84.888434
L 196.536105 84.32342
L 190.207983 83.821611
L 183.693685 83.38503
L 177.019441 83.015433
L 170.212128 82.71431
L 163.299154 82.482872
L 156.308357 82.322052
L 149.267885 82.232497
L 142.206089 82.214568
L 135.151403 82.268337
L 128.132235 82.393588
L 121.176848 82.589815
L 114.313248 82.85623
L 107.569074 83.191759
L 100.971482 83.595051
L 94.547038 84.064482
L 88.32161 84.598162
L 82.320267 85.193943
L 76.567173 85.849424
L 71.085495 86.561968
L 65.897305 87.328703
L 61.023494 88.146544
L 56.483687 89.012197
L 52.296165 89.922176
L 48.477789 90.872818
L 45.043935 91.860294
L 42.008429 92.880627
L 39.383494 93.929711
L 37.1797 95.003319
L 35.405921 96.09713
L 34.069299 97.206738
L 33.175216 98.327677
L 32.727273 99.455431
L 32.727273 100.585461
L 33.175216 101.713215
L 34.069299 102.834154
L 35.405921 103.943762
L 37.1797 105.037573
L 39.383494 106.111182
L 42.008429 107.160265
L 45.043935 108.180599
L 48.477789 109.168074
L 52.296165 110.118716
L 56.483687 111.028695
L 61.023494 111.894348
L 65.897305 112.712189
L 71.085495 113.478925
L 76.567173 114.191468
L 82.320267 114.846949
L 88.32161 115.44273
L 94.547038 115.97641
L 100.971482 116.445841
L 107.569074 116.849133
L 114.313248 117.184662
L 121.176848 117.451077
L 128.132235 117.647304
L 135.151403 117.772555
L 142.206089 117.826324
L 149.267885 117.808395
L 156.308357 117.71884
L 163.299154 117.55802
L 170.212128 117.326582
L 177.019441 117.025459
L 183.693685 116.655862
L 190.207983 116.219281
L 196.536105 115.717473
L 202.65257 115.152458
L 208.532749 114.526512
L 214.152964 113.842155
L 219.490585 113.102143
L 224.52412 112.309455
L 229.2333 111.467284
L 233.599162 110.579021
L 237.604127 109.648242
L 241.232069 108.678695
L 244.468379 107.674285
L 247.300025 106.639055
L 249.715605 105.577175
L 251.705394 104.492919
L 253.261378 103.390655
L 254.377292 102.27482
L 255.048643 101.149907
L 255.272727 100.020446
z
" clip-path="url(#pda38909636)" style="fill: #acb0be; opacity: 0.25; stroke: #acb0be; stroke-linejoin: miter"/>
   </g>
   <g id="patch_3">
    <path d="M 221.882504 100.020446
L 221.725645 99.229824
L 221.255699 98.442385
L 220.474559 97.6613
L 219.38537 96.889715
L 217.992519 96.130736
L 216.301612 95.38742
L 214.31946 94.662759
L 212.054043 93.959671
L 209.514484 93.280989
L 206.711008 92.629444
L 203.654904 92.007659
L 200.358479 91.41814
L 196.835004 90.863258
L 193.098669 90.34525
L 189.164519 89.8662
L 185.048393 89.428038
L 180.766868 89.032527
L 176.337183 88.681262
L 171.777174 88.375655
L 167.105204 88.116937
L 162.340084 87.906151
L 157.501002 87.744144
L 152.607444 87.63157
L 147.679114 87.568882
L 142.735857 87.556332
L 137.797577 87.59397
L 132.884159 87.681645
L 128.015388 87.819005
L 123.210869 88.005495
L 118.489947 88.240365
L 113.871632 88.522669
L 109.374521 88.851271
L 105.016722 89.224848
L 100.815781 89.641894
L 96.788616 90.100731
L 92.951441 90.599511
L 89.319708 91.136226
L 85.908041 91.708715
L 82.730176 92.314672
L 79.79891 92.951657
L 77.126047 93.617106
L 74.722349 94.308339
L 72.597495 95.022573
L 70.76004 95.756931
L 69.217385 96.508457
L 67.975739 97.274125
L 67.040104 98.050851
L 66.414246 98.835508
L 66.100686 99.624936
L 66.100686 100.415956
L 66.414246 101.205385
L 67.040104 101.990041
L 67.975739 102.766767
L 69.217385 103.532435
L 70.76004 104.283961
L 72.597495 105.018319
L 74.722349 105.732553
L 77.126047 106.423786
L 79.79891 107.089235
L 82.730176 107.72622
L 85.908041 108.332177
L 89.319708 108.904666
L 92.951441 109.441381
L 96.788616 109.940161
L 100.815781 110.398998
L 105.016722 110.816045
L 109.374521 111.189621
L 113.871632 111.518223
L 118.489947 111.800527
L 123.210869 112.035397
L 128.015388 112.221887
L 132.884159 112.359247
L 137.797577 112.446922
L 142.735857 112.48456
L 147.679114 112.47201
L 152.607444 112.409322
L 157.501002 112.296748
L 162.340084 112.134741
L 167.105204 111.923955
L 171.777174 111.665238
L 176.337183 111.359631
L 180.766868 111.008365
L 185.048393 110.612854
L 189.164519 110.174692
L 193.098669 109.695642
L 196.835004 109.177634
L 200.358479 108.622753
L 203.654904 108.033233
L 206.711008 107.411449
L 209.514484 106.759903
L 212.054043 106.081221
L 214.31946 105.378133
L 216.301612 104.653473
L 217.992519 103.910156
L 219.38537 103.151177
L 220.474559 102.379592
L 221.255699 101.598508
L 221.725645 100.811069
L 221.882504 100.020446
z
" clip-path="url(#pda38909636)" style="fill: #acb0be; opacity: 0.25; stroke: #acb0be; stroke-linejoin: miter"/>
   </g>
   <g id="patch_4">
    <path d="M 188.49228 100.020446
L 188.402647 99.568662
L 188.134106 99.118697
L 187.687741 98.672363
L 187.065347 98.231457
L 186.269432 97.797755
L 185.303199 97.373002
L 184.170541 96.95891
L 182.876017 96.557146
L 181.42484 96.169328
L 179.822854 95.797016
L 178.076509 95.441711
L 176.192837 95.104842
L 174.179424 94.787767
L 172.044375 94.491763
L 169.796289 94.21802
L 167.444217 93.967641
L 164.997631 93.741635
L 162.466383 93.540912
L 159.860663 93.366279
L 157.190966 93.218441
L 154.46804 93.097992
L 151.702851 93.005417
L 148.906532 92.941089
L 146.090343 92.905267
L 143.265625 92.898095
L 140.443751 92.919603
L 137.636083 92.969703
L 134.853929 93.048194
L 132.108489 93.15476
L 129.410819 93.288971
L 126.771782 93.450288
L 124.202004 93.638061
L 121.711833 93.851533
L 119.311296 94.089845
L 117.010059 94.352037
L 114.817387 94.637055
L 112.742111 94.943749
L 110.792587 95.270885
L 108.976664 95.617147
L 107.301656 95.981138
L 105.774305 96.361395
L 104.400763 96.756385
L 103.186561 97.164519
L 102.136587 97.584152
L 101.255069 98.013595
L 100.545558 98.45112
L 100.010909 98.894963
L 99.653276 99.343338
L 99.474099 99.79444
L 99.474099 100.246452
L 99.653276 100.697554
L 100.010909 101.145929
L 100.545558 101.589773
L 101.255069 102.027297
L 102.136587 102.45674
L 103.186561 102.876374
L 104.400763 103.284507
L 105.774305 103.679497
L 107.301656 104.059754
L 108.976664 104.423746
L 110.792587 104.770007
L 112.742111 105.097143
L 114.817387 105.403837
L 117.010059 105.688855
L 119.311296 105.951047
L 121.711833 106.18936
L 124.202004 106.402832
L 126.771782 106.590604
L 129.410819 106.751921
L 132.108489 106.886132
L 134.853929 106.992698
L 137.636083 107.071189
L 140.443751 107.12129
L 143.265625 107.142797
L 146.090343 107.135626
L 148.906532 107.099804
L 151.702851 107.035476
L 154.46804 106.942901
L 157.190966 106.822451
L 159.860663 106.674613
L 162.466383 106.49998
L 164.997631 106.299257
L 167.444217 106.073251
L 169.796289 105.822872
L 172.044375 105.54913
L 174.179424 105.253125
L 176.192837 104.93605
L 178.076509 104.599181
L 179.822854 104.243876
L 181.42484 103.871565
L 182.876017 103.483746
L 184.170541 103.081982
L 185.303199 102.66789
L 186.269432 102.243138
L 187.065347 101.809435
L 187.687741 101.36853
L 188.134106 100.922195
L 188.402647 100.47223
L 188.49228 100.020446
z
" clip-path="url(#pda38909636)" style="fill: #acb0be; opacity: 0.25; stroke: #acb0be; stroke-linejoin: miter"/>
   </g>
   <g id="line2d_1">
    <path d="M 255.272727 100.020446
L 255.048643 98.890985
L 254.377292 97.766073
L 253.261378 96.650237
L 251.705394 95.547973
L 249.715605 94.463717
L 247.300025 93.401837
L 244.468379 92.366607
L 241.232069 91.362197
L 237.604127 90.39265
L 233.599162 89.461871
L 229.2333 88.573608
L 224.52412 87.731437
L 219.490585 86.938749
L 214.152964 86.198737
L 208.532749 85.51438
L 202.65257 84.888434
L 196.536105 84.32342
L 190.207983 83.821611
L 183.693685 83.38503
L 177.019441 83.015433
L 170.212128 82.71431
L 163.299154 82.482872
L 156.308357 82.322052
L 149.267885 82.232497
L 142.206089 82.214568
L 135.151403 82.268337
L 128.132235 82.393588
L 121.176848 82.589815
L 114.313248 82.85623
L 107.569074 83.191759
L 100.971482 83.595051
L 94.547038 84.064482
L 88.32161 84.598162
L 82.320267 85.193943
L 76.567173 85.849424
L 71.085495 86.561968
L 65.897305 87.328703
L 61.023494 88.146544
L 56.483687 89.012197
L 52.296165 89.922176
L 48.477789 90.872818
L 45.043935 91.860294
L 42.008429 92.880627
L 39.383494 93.929711
L 37.1797 95.003319
L 35.405921 96.09713
L 34.069299 97.206738
L 33.175216 98.327677
L 32.727273 99.455431
L 32.727273 100.585461
L 33.175216 101.713215
L 34.069299 102.834154
L 35.405921 103.943762
L 37.1797 105.037573
L 39.383494 106.111182
L 42.008429 107.160265
L 45.043935 108.180599
L 48.477789 109.168074
L 52.296165 110.118716
L 56.483687 111.028695
L 61.023494 111.894348
L 65.897305 112.712189
L 71.085495 113.478925
L 76.567173 114.191468
L 82.320267 114.846949
L 88.32161 115.44273
L 94.547038 115.97641
L 100.971482 116.445841
L 107.569074 116.849133
L 114.313248 117.184662
L 121.176848 117.451077
L 128.132235 117.647304
L 135.151403 117.772555
L 142.206089 117.826324
L 149.267885 117.808395
L 156.308357 117.71884
L 163.299154 117.55802
L 170.212128 117.326582
L 177.019441 117.025459
L 183.693685 116.655862
L 190.207983 116.219281
L 196.536105 115.717473
L 202.65257 115.152458
L 208.532749 114.526512
L 214.152964 113.842155
L 219.490585 113.102143
L 224.52412 112.309455
L 229.2333 111.467284
L 233.599162 110.579021
L 237.604127 109.648242
L 241.232069 108.678695
L 244.468379 107.674285
L 247.300025 106.639055
L 249.715605 105.577175
L 251.705394 104.492919
L 253.261378 103.390655
L 254.377292 102.27482
L 255.048643 101.149907
L 255.272727 100.020446
" clip-path="url(#pda38909636)" style="fill: none; stroke: #acb0be; stroke-width: 1.5; stroke-linecap: square"/>
   </g>
   <g id="line2d_2">
    <path d="M 221.882504 100.020446
L 221.725645 99.229824
L 221.255699 98.442385
L 220.474559 97.6613
L 219.38537 96.889715
L 217.992519 96.130736
L 216.301612 95.38742
L 214.31946 94.662759
L 212.054043 93.959671
L 209.514484 93.280989
L 206.711008 92.629444
L 203.654904 92.007659
L 200.358479 91.41814
L 196.835004 90.863258
L 193.098669 90.34525
L 189.164519 89.8662
L 185.048393 89.428038
L 180.766868 89.032527
L 176.337183 88.681262
L 171.777174 88.375655
L 167.105204 88.116937
L 162.340084 87.906151
L 157.501002 87.744144
L 152.607444 87.63157
L 147.679114 87.568882
L 142.735857 87.556332
L 137.797577 87.59397
L 132.884159 87.681645
L 128.015388 87.819005
L 123.210869 88.005495
L 118.489947 88.240365
L 113.871632 88.522669
L 109.374521 88.851271
L 105.016722 89.224848
L 100.815781 89.641894
L 96.788616 90.100731
L 92.951441 90.599511
L 89.319708 91.136226
L 85.908041 91.708715
L 82.730176 92.314672
L 79.79891 92.951657
L 77.126047 93.617106
L 74.722349 94.308339
L 72.597495 95.022573
L 70.76004 95.756931
L 69.217385 96.508457
L 67.975739 97.274125
L 67.040104 98.050851
L 66.414246 98.835508
L 66.100686 99.624936
L 66.100686 100.415956
L 66.414246 101.205385
L 67.040104 101.990041
L 67.975739 102.766767
L 69.217385 103.532435
L 70.76004 104.283961
L 72.597495 105.018319
L 74.722349 105.732553
L 77.126047 106.423786
L 79.79891 107.089235
L 82.730176 107.72622
L 85.908041 108.332177
L 89.319708 108.904666
L 92.951441 109.441381
L 96.788616 109.940161
L 100.815781 110.398998
L 105.016722 110.816045
L 109.374521 111.189621
L 113.871632 111.518223
L 118.489947 111.800527
L 123.210869 112.035397
L 128.015388 112.221887
L 132.884159 112.359247
L 137.797577 112.446922
L 142.735857 112.48456
L 147.679114 112.47201
L 152.607444 112.409322
L 157.501002 112.296748
L 162.340084 112.134741
L 167.105204 111.923955
L 171.777174 111.665238
L 176.337183 111.359631
L 180.766868 111.008365
L 185.048393 110.612854
L 189.164519 110.174692
L 193.098669 109.695642
L 196.835004 109.177634
L 200.358479 108.622753
L 203.654904 108.033233
L 206.711008 107.411449
L 209.514484 106.759903
L 212.054043 106.081221
L 214.31946 105.378133
L 216.301612 104.653473
L 217.992519 103.910156
L 219.38537 103.151177
L 220.474559 102.379592
L 221.255699 101.598508
L 221.725645 100.811069
L 221.882504 100.020446
" clip-path="url(#pda38909636)" style="fill: none; stroke: #acb0be; stroke-width: 1.5; stroke-linecap: square"/>
   </g>
   <g id="line2d_3">
    <path d="M 188.49228 100.020446
L 188.402647 99.568662
L 188.134106 99.118697
L 187.687741 98.672363
L 187.065347 98.231457
L 186.269432 97.797755
L 185.303199 97.373002
L 184.170541 96.95891
L 182.876017 96.557146
L 181.42484 96.169328
L 179.822854 95.797016
L 178.076509 95.441711
L 176.192837 95.104842
L 174.179424 94.787767
L 172.044375 94.491763
L 169.796289 94.21802
L 167.444217 93.967641
L 164.997631 93.741635
L 162.466383 93.540912
L 159.860663 93.366279
L 157.190966 93.218441
L 154.46804 93.097992
L 151.702851 93.005417
L 148.906532 92.941089
L 146.090343 92.905267
L 143.265625 92.898095
L 140.443751 92.919603
L 137.636083 92.969703
L 134.853929 93.048194
L 132.108489 93.15476
L 129.410819 93.288971
L 126.771782 93.450288
L 124.202004 93.638061
L 121.711833 93.851533
L 119.311296 94.089845
L 117.010059 94.352037
L 114.817387 94.637055
L 112.742111 94.943749
L 110.792587 95.270885
L 108.976664 95.617147
L 107.301656 95.981138
L 105.774305 96.361395
L 104.400763 96.756385
L 103.186561 97.164519
L 102.136587 97.584152
L 101.255069 98.013595
L 100.545558 98.45112
L 100.010909 98.894963
L 99.653276 99.343338
L 99.474099 99.79444
L 99.474099 100.246452
L 99.653276 100.697554
L 100.010909 101.145929
L 100.545558 101.589773
L 101.255069 102.027297
L 102.136587 102.45674
L 103.186561 102.876374
L 104.400763 103.284507
L 105.774305 103.679497
L 107.301656 104.059754
L 108.976664 104.423746
L 110.792587 104.770007
L 112.742111 105.097143
L 114.817387 105.403837
L 117.010059 105.688855
L 119.311296 105.951047
L 121.711833 106.18936
L 124.202004 106.402832
L 126.771782 106.590604
L 129.410819 106.751921
L 132.108489 106.886132
L 134.853929 106.992698
L 137.636083 107.071189
L 140.443751 107.12129
L 143.265625 107.142797
L 146.090343 107.135626
L 148.906532 107.099804
L 151.702851 107.035476
L 154.46804 106.942901
L 157.190966 106.822451
L 159.860663 106.674613
L 162.466383 106.49998
L 164.997631 106.299257
L 167.444217 106.073251
L 169.796289 105.822872
L 172.044375 105.54913
L 174.179424 105.253125
L 176.192837 104.93605
L 178.076509 104.599181
L 179.822854 104.243876
L 181.42484 103.871565
L 182.876017 103.483746
L 184.170541 103.081982
L 185.303199 102.66789
L 186.269432 102.243138
L 187.065347 101.809435
L 187.687741 101.36853
L 188.134106 100.922195
L 188.402647 100.47223
L 188.49228 100.020446
" clip-path="url(#pda38909636)" style="fill: none; stroke: #acb0be; stroke-width: 1.5; stroke-linecap: square"/>
   </g>
   <g id="line2d_4">
    <defs>
     <path id="m6bd639779d" d="M 0 3
C 0.795609 3 1.55874 2.683901 2.12132 2.12132
C 2.683901 1.55874 3 0.795609 3 0
C 3 -0.795609 2.683901 -1.55874 2.12132 -2.12132
C 1.55874 -2.683901 0.795609 -3 0 -3
C -0.795609 -3 -1.55874 -2.683901 -2.12132 -2.12132
C -2.683901 -1.55874 -3 -0.795609 -3 0
C -3 0.795609 -2.683901 1.55874 -2.12132 2.12132
C -1.55874 2.683901 -0.795609 3 0 3
z
" style="stroke: #40a02b"/>
    </defs>
    <g clip-path="url(#pda38909636)">
     <use xlink:href="#m6bd639779d" x="143.971982" y="27.674962" style="fill: #40a02b; stroke: #40a02b"/>
    </g>
   </g>
   <g id="line2d_5">
    <defs>
     <path id="mc3407b450d" d="M 0 3
C 0.795609 3 1.55874 2.683901 2.12132 2.12132
C 2.683901 1.55874 3 0.795609 3 0
C 3 -0.795609 2.683901 -1.55874 2.12132 -2.12132
C 1.55874 -2.683901 0.795609 -3 0 -3
C -0.795609 -3 -1.55874 -2.683901 -2.12132 -2.12132
C -2.683901 -1.55874 -3 -0.795609 -3 0
C -3 0.795609 -2.683901 1.55874 -2.12132 2.12132
C -1.55874 2.683901 -0.795609 3 0 3
z
" style="stroke: #4c4f69"/>
    </defs>
    <g clip-path="url(#pda38909636)">
     <use xlink:href="#mc3407b450d" x="143.971982" y="100.020446" style="fill: #4c4f69; stroke: #4c4f69"/>
    </g>
   </g>
   <g id="line2d_6">
    <path d="M 216.301888 26.173676
L 217.435614 26.385631
L 218.569483 27.081989
L 219.685247 28.281307
L 220.754777 29.998974
L 221.739969 32.246066
L 222.592985 35.027923
L 223.256878 38.342531
L 223.666678 42.178767
L 223.750964 46.514621
L 223.433964 51.31553
L 222.638168 56.532968
L 221.287415 62.103459
L 219.31037 67.948161
L 216.644259 73.973185
L 213.238671 80.07074
L 209.059238 86.121189
L 204.090915 91.996013
L 198.340649 97.561617
L 191.839161 102.683854
L 184.641674 107.233038
L 176.827427 111.089186
L 168.497912 114.147171
L 159.773872 116.321452
L 150.791172 117.550066
L 141.69577 117.797583
L 132.63806 117.056831
L 123.76695 115.34924
L 115.224026 112.723805
L 107.13817 109.254719
L 99.620952 105.037866
L 92.763034 100.186427
L 86.631788 94.825895
L 81.27017 89.088835
L 76.696852 83.109718
L 72.9075 77.020126
L 69.877032 70.944563
L 67.562617 64.997058
L 65.907189 59.278649
L 64.843218 53.875792
L 64.296502 48.859635
L 64.189793 44.28609
L 64.446091 40.196546
L 64.991504 36.619094
L 65.75761 33.570082
L 66.683282 31.055856
L 67.716025 29.074538
L 68.812812 27.61773
L 69.940522 26.672037
L 71.075995 26.220361
L 72.2058 26.242905
L 73.32575 26.717898
L 74.440226 27.622015
L 75.561336 28.930548
L 76.70795 30.61734
L 77.904627 32.654545
L 79.18045 35.012269
L 80.567779 37.658139
L 82.100946 40.556881
L 83.814888 43.66995
L 85.743761 46.95528
L 87.919549 50.367184
L 90.370699 53.856468
L 93.120837 57.370761
L 96.187597 60.855086
L 99.58161 64.25266
L 103.305711 67.505919
L 107.354395 70.557712
L 111.713555 73.352639
L 116.360544 75.838467
L 121.264539 77.967549
L 126.38724 79.698207
L 131.683855 80.99597
L 137.104351 81.834654
L 142.594924 82.197181
L 148.099621 82.076132
L 153.562054 81.473986
L 158.927136 80.403042
L 164.142753 78.885018
L 169.161321 76.950361
L 173.941152 74.637292
L 178.447581 71.99064
L 182.653806 69.060519
L 186.541421 65.900926
L 190.100635 62.56831
L 193.330164 59.120187
L 196.236826 55.613872
L 198.834866 52.105357
L 201.145051 48.648405
L 203.193573 45.293853
L 205.010814 42.089169
L 206.630017 39.078229
L 208.085904 36.301317
L 209.413281 33.795302
L 210.64566 31.593956
L 211.813925 29.728358
L 212.945046 28.227328
L 214.060879 27.117828
L 215.17704 26.42527
L 216.301888 26.173676
" clip-path="url(#pda38909636)" style="fill: none; stroke: #e64553; stroke-width: 1.5; stroke-linecap: square"/>
   </g>
   <g id="line2d_7">
    <path d="M 208.902595 59.579266
L 209.539676 60.07508
L 210.02406 60.868541
L 210.343129 61.962754
L 210.480986 63.357051
L 210.418684 65.046619
L 210.13461 67.022107
L 209.605028 69.269266
L 208.804777 71.768614
L 207.708109 74.495195
L 206.289667 77.418439
L 204.525571 80.502177
L 202.394572 83.704828
L 199.879239 86.979803
L 196.967135 90.276127
L 193.651905 93.539298
L 189.934244 96.712376
L 185.822662 99.737273
L 181.334006 102.556221
L 176.49369 105.113357
L 171.33559 107.356364
L 165.901609 109.238102
L 160.240883 110.718141
L 154.408676 111.764124
L 148.464993 112.352894
L 142.472964 112.471312
L 136.497088 112.116724
L 130.601408 111.297063
L 124.847701 110.03056
L 119.293793 108.345093
L 113.99204 106.277212
L 108.988082 103.870887
L 104.319883 101.176046
L 100.017125 98.246983
L 96.100928 95.140719
L 92.583922 91.915372
L 89.47063 88.628631
L 86.75811 85.336367
L 84.436838 82.091439
L 82.491735 78.942722
L 80.903315 75.934365
L 79.648864 73.105278
L 78.703622 70.488845
L 78.041909 68.11282
L 77.638156 65.999395
L 77.467816 64.1654
L 77.508139 62.622591
L 77.738787 61.378002
L 78.1423 60.434327
L 78.704399 59.790299
L 79.41415 59.441061
L 80.263983 59.378496
L 81.249585 59.591518
L 82.369683 60.066322
L 83.62573 60.786589
L 85.021498 61.733661
L 86.562618 62.886688
L 88.256052 64.222767
L 90.109535 65.717086
L 92.130997 67.343075
L 94.327974 69.072601
L 96.707039 70.876196
L 99.273252 72.723331
L 102.029666 74.582754
L 104.976889 76.422878
L 108.112727 78.21222
L 111.431915 79.919889
L 114.925955 81.516109
L 118.583059 82.972756
L 122.388207 84.263907
L 126.323326 85.366366
L 130.367566 86.260163
L 134.497688 86.92899
L 138.688534 87.360578
L 142.913573 87.546977
L 147.145489 87.484748
L 151.356811 87.175039
L 155.52054 86.623562
L 159.610757 85.840457
L 163.603202 84.840052
L 167.475777 83.640538
L 171.208977 82.263557
L 174.786227 80.733733
L 178.194109 79.078157
L 181.422479 77.325847
L 184.464471 75.507204
L 187.316381 73.653477
L 189.977457 71.796261
L 192.449577 69.967027
L 194.736859 68.196709
L 196.845183 66.515345
L 198.781675 64.951768
L 200.554141 63.533354
L 202.170486 62.285815
L 203.63813 61.233028
L 204.963438 60.396886
L 206.151174 59.797161
L 207.204004 59.451361
L 208.122064 59.374571
L 208.902595 59.579266
" clip-path="url(#pda38909636)" style="fill: none; stroke: #e64553; stroke-width: 1.5; stroke-linecap: square"/>
   </g>
   <g id="line2d_8">
    <path d="M 186.979981 85.848677
L 187.173495 86.267381
L 187.213821 86.79603
L 187.096774 87.432759
L 186.818054 88.174006
L 186.373355 89.01448
L 185.758501 89.947156
L 184.969608 90.963297
L 184.003269 92.052503
L 182.85675 93.202797
L 181.528204 94.400735
L 180.016884 95.63157
L 178.323352 96.879435
L 176.449674 98.127576
L 174.399598 99.358616
L 172.178693 100.554845
L 169.794463 101.698547
L 167.256402 102.772336
L 164.57601 103.759504
L 161.766746 104.644379
L 158.843932 105.412663
L 155.824595 106.051755
L 152.727259 106.551044
L 149.571692 106.902159
L 146.378604 107.099173
L 143.169324 107.138743
L 139.965449 107.020199
L 136.788486 106.745553
L 133.659497 106.319453
L 130.598761 105.749071
L 127.625458 105.043926
L 124.757393 104.215658
L 122.010764 103.277755
L 119.399975 102.245245
L 116.937517 101.134361
L 114.633889 99.962193
L 112.497583 98.746336
L 110.535126 97.504546
L 108.751162 96.254403
L 107.148576 95.013009
L 105.72866 93.796704
L 104.491295 92.620822
L 103.435156 91.49948
L 102.557929 90.445405
L 101.856516 89.469799
L 101.327247 88.582238
L 100.966072 87.790608
L 100.768729 87.101066
L 100.730901 86.51804
L 100.848333 86.044235
L 101.116929 85.680682
L 101.532813 85.426785
L 102.092368 85.2804
L 102.792236 85.23791
L 103.629303 85.29433
L 104.600652 85.443406
L 105.703496 85.677733
L 106.935103 85.988876
L 108.292696 86.367505
L 109.773354 86.80353
L 111.373907 87.286252
L 113.090829 87.804516
L 114.920143 88.346869
L 116.857327 88.901732
L 118.89724 89.457562
L 121.034059 90.003032
L 123.261244 90.5272
L 125.571509 91.019677
L 127.956832 91.470796
L 130.408474 91.871764
L 132.917029 92.214809
L 135.47249 92.493309
L 138.06434 92.701902
L 140.68165 92.836583
L 143.313202 92.894768
L 145.94761 92.875342
L 148.573456 92.778677
L 151.179423 92.606627
L 153.754422 92.362493
L 156.287715 92.05097
L 158.769029 91.67806
L 161.188646 91.250978
L 163.537489 90.778023
L 165.807171 90.268443
L 167.990037 89.732287
L 170.079175 89.180241
L 172.068407 88.623461
L 173.952259 88.073404
L 175.725906 87.541652
L 177.385111 87.039742
L 178.926132 86.578999
L 180.345636 86.170369
L 181.640589 85.824266
L 182.808157 85.550418
L 183.845596 85.357723
L 184.750158 85.254119
L 185.519002 85.246449
L 186.149117 85.340346
L 186.637272 85.540125
L 186.979981 85.848677
" clip-path="url(#pda38909636)" style="fill: none; stroke: #e64553; stroke-width: 1.5; stroke-linecap: square"/>
   </g>
   <g id="text_1">
    <!-- $r_0$ -->
    <g style="fill: #40a02b" transform="translate(150.650027 27.674962) scale(0.2 -0.2)">
     <defs>
      <path id="CMMI12-72" d="M 2490 2633
C 2291 2598 2189 2457 2189 2316
C 2189 2163 2310 2111 2400 2111
C 2579 2111 2726 2265 2726 2457
C 2726 2651 2528 2816 2208 2816
C 1952 2816 1658 2700 1389 2335
C 1344 2660 1088 2816 832 2816
C 582 2816 454 2642 378 2508
C 269 2278 173 1892 173 1860
C 173 1834 198 1801 243 1801
C 294 1801 301 1808 339 1957
C 435 2342 557 2687 813 2687
C 966 2687 1011 2604 1011 2419
C 1011 2278 947 2028 902 1827
L 723 1130
C 698 1007 627 716 595 600
C 550 432 480 128 480 96
C 480 6 550 -64 646 -64
C 717 -64 838 -20 877 109
C 896 160 1133 1136 1171 1285
C 1203 1427 1242 1562 1274 1705
C 1299 1795 1325 1898 1344 1982
C 1363 2040 1536 2355 1696 2495
C 1773 2566 1939 2687 2202 2687
C 2304 2687 2406 2674 2490 2633
z
" transform="scale(0.015625)"/>
      <path id="CMR17-30" d="M 2688 2038
C 2688 2430 2682 3099 2413 3613
C 2176 4063 1798 4224 1466 4224
C 1158 4224 768 4082 525 3620
C 269 3137 243 2539 243 2038
C 243 1671 250 1112 448 623
C 723 -39 1216 -128 1466 -128
C 1760 -128 2208 -7 2470 604
C 2662 1048 2688 1568 2688 2038
z
M 1466 -26
C 1056 -26 813 328 723 816
C 653 1196 653 1749 653 2109
C 653 2604 653 3015 736 3407
C 858 3954 1216 4121 1466 4121
C 1728 4121 2067 3947 2189 3420
C 2272 3054 2278 2623 2278 2109
C 2278 1691 2278 1176 2202 797
C 2067 96 1690 -26 1466 -26
z
" transform="scale(0.015625)"/>
     </defs>
     <use xlink:href="#CMMI12-72" transform="scale(0.996264)"/>
     <use xlink:href="#CMR17-30" transform="translate(43.960894 -14.943915) scale(0.697382)"/>
    </g>
   </g>
   <g id="text_2">
    <!-- $l_0$ -->
    <g style="fill: #4c4f69" transform="translate(150.650027 104.472476) scale(0.2 -0.2)">
     <defs>
      <path id="CMMI12-6c" d="M 1626 4255
C 1632 4281 1645 4319 1645 4351
C 1645 4416 1581 4416 1568 4416
C 1562 4416 1331 4396 1216 4383
C 1107 4377 1011 4364 896 4358
C 742 4345 698 4339 698 4223
C 698 4159 762 4159 826 4159
C 1152 4159 1152 4102 1152 4039
C 1152 4013 1152 4001 1120 3886
L 326 731
C 307 661 294 610 294 509
C 294 191 531 -64 858 -64
C 1069 -64 1210 76 1312 273
C 1421 483 1510 884 1510 909
C 1510 941 1485 967 1446 967
C 1389 967 1382 935 1357 839
C 1242 401 1126 64 870 64
C 678 64 678 267 678 356
C 678 382 678 515 723 693
L 1626 4255
z
" transform="scale(0.015625)"/>
     </defs>
     <use xlink:href="#CMMI12-6c" transform="scale(0.996264)"/>
     <use xlink:href="#CMR17-30" transform="translate(29.057447 -14.943915) scale(0.697382)"/>
    </g>
   </g>
  </g>
 </g>
 <defs>
  <clipPath id="pda38909636">
   <rect x="21.6" y="21.6" width="244.8" height="100.8"/>
  </clipPath>
 </defs>
</svg>
