<?xml version="1.0" encoding="utf-8" standalone="no"?>
<!DOCTYPE svg PUBLIC "-//W3C//DTD SVG 1.1//EN"
  "http://www.w3.org/Graphics/SVG/1.1/DTD/svg11.dtd">
<svg xmlns:xlink="http://www.w3.org/1999/xlink" width="288pt" height="144pt" viewBox="0 0 288 144" xmlns="http://www.w3.org/2000/svg" version="1.1">
 <metadata>
  <rdf:RDF xmlns:dc="http://purl.org/dc/elements/1.1/" xmlns:cc="http://creativecommons.org/ns#" xmlns:rdf="http://www.w3.org/1999/02/22-rdf-syntax-ns#">
   <cc:Work>
    <dc:type rdf:resource="http://purl.org/dc/dcmitype/StillImage"/>
    <dc:date>1980-01-01T00:00:00+00:00</dc:date>
    <dc:format>image/svg+xml</dc:format>
    <dc:creator>
     <cc:Agent>
      <dc:title>Matplotlib v3.8.3, https://matplotlib.org/</dc:title>
     </cc:Agent>
    </dc:creator>
   </cc:Work>
  </rdf:RDF>
 </metadata>
 <defs>
  <style type="text/css">*{stroke-linejoin: round; stroke-linecap: butt}</style>
 </defs>
 <g id="figure_1">
  <g id="patch_1">
   <path d="M 0 144
L 288 144
L 288 0
L 0 0
L 0 144
z
" style="fill: none; opacity: 0"/>
  </g>
  <g id="axes_1">
   <g id="patch_2">
    <path d="M 186.882153 101.063025
L 186.795796 99.974849
L 186.537071 98.891055
L 186.107022 97.816007
L 185.507378 96.754033
L 184.740556 95.709411
L 183.809642 94.686345
L 182.718386 93.688956
L 181.471181 92.72126
L 180.073049 91.787153
L 178.52962 90.890397
L 176.847109 90.034602
L 175.032291 89.223215
L 173.092473 88.459502
L 171.035467 87.74654
L 168.869555 87.087198
L 166.603458 86.484132
L 164.246302 85.939771
L 161.807578 85.456305
L 159.297106 85.035682
L 156.724994 84.679595
L 154.101599 84.389479
L 151.437485 84.166501
L 148.74338 84.011559
L 146.030131 83.925278
L 143.308665 83.908004
L 140.589938 83.959808
L 137.884899 84.08048
L 135.20444 84.269535
L 132.559355 84.526211
L 129.960293 84.849475
L 127.41772 85.238026
L 124.941875 85.690298
L 122.542727 86.204471
L 120.229937 86.778474
L 118.012816 87.409995
L 115.900294 88.096493
L 113.900875 88.835202
L 112.022611 89.623149
L 110.273066 90.45716
L 108.659284 91.333876
L 107.187763 92.249769
L 105.864428 93.20115
L 104.694608 94.184187
L 103.683014 95.194923
L 102.833718 96.229288
L 102.150141 97.283117
L 101.635035 98.352166
L 101.290475 99.432131
L 101.117847 100.518663
L 101.117847 101.607387
L 101.290475 102.693918
L 101.635035 103.773883
L 102.150141 104.842932
L 102.833718 105.896761
L 103.683014 106.931126
L 104.694608 107.941862
L 105.864428 108.9249
L 107.187763 109.87628
L 108.659284 110.792173
L 110.273066 111.66889
L 112.022611 112.502901
L 113.900875 113.290847
L 115.900294 114.029556
L 118.012816 114.716054
L 120.229937 115.347576
L 122.542727 115.921579
L 124.941875 116.435751
L 127.41772 116.888024
L 129.960293 117.276574
L 132.559355 117.599838
L 135.20444 117.856515
L 137.884899 118.04557
L 140.589938 118.166242
L 143.308665 118.218045
L 146.030131 118.200772
L 148.74338 118.11449
L 151.437485 117.959549
L 154.101599 117.736571
L 156.724994 117.446455
L 159.297106 117.090368
L 161.807578 116.669745
L 164.246302 116.186279
L 166.603458 115.641917
L 168.869555 115.038851
L 171.035467 114.379509
L 173.092473 113.666547
L 175.032291 112.902835
L 176.847109 112.091448
L 178.52962 111.235653
L 180.073049 110.338897
L 181.471181 109.40479
L 182.718386 108.437093
L 183.809642 107.439704
L 184.740556 106.416639
L 185.507378 105.372016
L 186.107022 104.310042
L 186.537071 103.234994
L 186.795796 102.1512
L 186.882153 101.063025
z
" clip-path="url(#pdb067a243d)" style="fill: #acb0be; opacity: 0.25; stroke: #acb0be; stroke-linejoin: miter"/>
   </g>
   <g id="patch_3">
    <path d="M 174.014268 101.063025
L 173.953818 100.301302
L 173.772711 99.542646
L 173.471676 98.790112
L 173.051926 98.046731
L 172.51515 97.315495
L 171.86351 96.599349
L 171.099631 95.901177
L 170.226587 95.223789
L 169.247895 94.569914
L 168.167495 93.942185
L 166.989737 93.343129
L 165.719364 92.775158
L 164.361492 92.240559
L 162.921588 91.741485
L 161.405449 91.279946
L 159.819182 90.8578
L 158.169172 90.476747
L 156.462066 90.138321
L 154.704735 89.843885
L 152.904256 89.594624
L 151.06788 89.391542
L 149.203 89.235458
L 147.317127 89.126999
L 145.417853 89.066602
L 143.512826 89.05451
L 141.609717 89.090773
L 139.71619 89.175243
L 137.839869 89.307582
L 135.988309 89.487255
L 134.168966 89.71354
L 132.389165 89.985526
L 130.656074 90.302116
L 128.97667 90.662037
L 127.357716 91.063839
L 125.805732 91.505904
L 124.326966 91.986453
L 122.927373 92.503549
L 121.612589 93.055112
L 120.387907 93.638919
L 119.258259 94.252621
L 118.228195 94.893746
L 117.30186 95.559712
L 116.482986 96.247839
L 115.77487 96.955354
L 115.180363 97.679409
L 114.70186 98.417089
L 114.341285 99.165424
L 114.100093 99.921399
L 113.979254 100.681971
L 113.979254 101.444078
L 114.100093 102.20465
L 114.341285 102.960626
L 114.70186 103.70896
L 115.180363 104.44664
L 115.77487 105.170696
L 116.482986 105.878211
L 117.30186 106.566337
L 118.228195 107.232304
L 119.258259 107.873429
L 120.387907 108.48713
L 121.612589 109.070938
L 122.927373 109.6225
L 124.326966 110.139597
L 125.805732 110.620145
L 127.357716 111.06221
L 128.97667 111.464012
L 130.656074 111.823933
L 132.389165 112.140524
L 134.168966 112.412509
L 135.988309 112.638794
L 137.839869 112.818468
L 139.71619 112.950806
L 141.609717 113.035277
L 143.512826 113.071539
L 145.417853 113.059448
L 147.317127 112.999051
L 149.203 112.890592
L 151.06788 112.734507
L 152.904256 112.531426
L 154.704735 112.282165
L 156.462066 111.987729
L 158.169172 111.649303
L 159.819182 111.268249
L 161.405449 110.846103
L 162.921588 110.384564
L 164.361492 109.88549
L 165.719364 109.350892
L 166.989737 108.782921
L 168.167495 108.183864
L 169.247895 107.556135
L 170.226587 106.90226
L 171.099631 106.224873
L 171.86351 105.526701
L 172.51515 104.810555
L 173.051926 104.079319
L 173.471676 103.335937
L 173.772711 102.583403
L 173.953818 101.824748
L 174.014268 101.063025
z
" clip-path="url(#pdb067a243d)" style="fill: #acb0be; opacity: 0.25; stroke: #acb0be; stroke-linejoin: miter"/>
   </g>
   <g id="patch_4">
    <path d="M 161.146383 101.063025
L 161.11184 100.627754
L 161.00835 100.194237
L 160.83633 99.764218
L 160.596473 99.339428
L 160.289744 98.921579
L 159.917379 98.512353
L 159.480876 98.113397
L 158.981994 97.726319
L 158.422741 97.352676
L 157.80537 96.993973
L 157.132365 96.651656
L 156.406438 96.327101
L 155.630511 96.021616
L 154.807708 95.736431
L 153.941344 95.472694
L 153.034905 95.231468
L 152.092043 95.013723
L 151.116553 94.820337
L 150.112364 94.652087
L 149.083519 94.509653
L 148.034161 94.393606
L 146.968516 94.304415
L 145.890874 94.242438
L 144.805574 94.207926
L 143.716987 94.201016
L 142.629497 94.221738
L 141.547481 94.270007
L 140.475298 94.345629
L 139.417263 94.448299
L 138.377639 94.577605
L 137.36061 94.733025
L 136.370272 94.913934
L 135.410613 95.119603
L 134.485496 95.349204
L 133.598648 95.601813
L 132.753639 95.876412
L 131.953872 96.171896
L 131.202566 96.487074
L 130.502748 96.820679
L 129.857235 97.171365
L 129.268627 97.537722
L 128.739293 97.918275
L 128.271365 98.31149
L 127.866727 98.715784
L 127.527009 99.12953
L 127.253578 99.551062
L 127.047536 99.978681
L 126.909711 100.410667
L 126.84066 100.84528
L 126.84066 101.280769
L 126.909711 101.715382
L 127.047536 102.147368
L 127.253578 102.574988
L 127.527009 102.996519
L 127.866727 103.410265
L 128.271365 103.81456
L 128.739293 104.207775
L 129.268627 104.588327
L 129.857235 104.954684
L 130.502748 105.305371
L 131.202566 105.638975
L 131.953872 105.954154
L 132.753639 106.249637
L 133.598648 106.524236
L 134.485496 106.776845
L 135.410613 107.006446
L 136.370272 107.212115
L 137.36061 107.393024
L 138.377639 107.548444
L 139.417263 107.67775
L 140.475298 107.780421
L 141.547481 107.856043
L 142.629497 107.904312
L 143.716987 107.925033
L 144.805574 107.918123
L 145.890874 107.883611
L 146.968516 107.821634
L 148.034161 107.732443
L 149.083519 107.616397
L 150.112364 107.473962
L 151.116553 107.305713
L 152.092043 107.112326
L 153.034905 106.894582
L 153.941344 106.653355
L 154.807708 106.389619
L 155.630511 106.104434
L 156.406438 105.798949
L 157.132365 105.474394
L 157.80537 105.132076
L 158.422741 104.773373
L 158.981994 104.399731
L 159.480876 104.012652
L 159.917379 103.613697
L 160.289744 103.20447
L 160.596473 102.786621
L 160.83633 102.361832
L 161.00835 101.931813
L 161.11184 101.498295
L 161.146383 101.063025
z
" clip-path="url(#pdb067a243d)" style="fill: #acb0be; opacity: 0.25; stroke: #acb0be; stroke-linejoin: miter"/>
   </g>
   <g id="line2d_1">
    <path d="M 186.882153 101.063025
L 186.795796 99.974849
L 186.537071 98.891055
L 186.107022 97.816007
L 185.507378 96.754033
L 184.740556 95.709411
L 183.809642 94.686345
L 182.718386 93.688956
L 181.471181 92.72126
L 180.073049 91.787153
L 178.52962 90.890397
L 176.847109 90.034602
L 175.032291 89.223215
L 173.092473 88.459502
L 171.035467 87.74654
L 168.869555 87.087198
L 166.603458 86.484132
L 164.246302 85.939771
L 161.807578 85.456305
L 159.297106 85.035682
L 156.724994 84.679595
L 154.101599 84.389479
L 151.437485 84.166501
L 148.74338 84.011559
L 146.030131 83.925278
L 143.308665 83.908004
L 140.589938 83.959808
L 137.884899 84.08048
L 135.20444 84.269535
L 132.559355 84.526211
L 129.960293 84.849475
L 127.41772 85.238026
L 124.941875 85.690298
L 122.542727 86.204471
L 120.229937 86.778474
L 118.012816 87.409995
L 115.900294 88.096493
L 113.900875 88.835202
L 112.022611 89.623149
L 110.273066 90.45716
L 108.659284 91.333876
L 107.187763 92.249769
L 105.864428 93.20115
L 104.694608 94.184187
L 103.683014 95.194923
L 102.833718 96.229288
L 102.150141 97.283117
L 101.635035 98.352166
L 101.290475 99.432131
L 101.117847 100.518663
L 101.117847 101.607387
L 101.290475 102.693918
L 101.635035 103.773883
L 102.150141 104.842932
L 102.833718 105.896761
L 103.683014 106.931126
L 104.694608 107.941862
L 105.864428 108.9249
L 107.187763 109.87628
L 108.659284 110.792173
L 110.273066 111.66889
L 112.022611 112.502901
L 113.900875 113.290847
L 115.900294 114.029556
L 118.012816 114.716054
L 120.229937 115.347576
L 122.542727 115.921579
L 124.941875 116.435751
L 127.41772 116.888024
L 129.960293 117.276574
L 132.559355 117.599838
L 135.20444 117.856515
L 137.884899 118.04557
L 140.589938 118.166242
L 143.308665 118.218045
L 146.030131 118.200772
L 148.74338 118.11449
L 151.437485 117.959549
L 154.101599 117.736571
L 156.724994 117.446455
L 159.297106 117.090368
L 161.807578 116.669745
L 164.246302 116.186279
L 166.603458 115.641917
L 168.869555 115.038851
L 171.035467 114.379509
L 173.092473 113.666547
L 175.032291 112.902835
L 176.847109 112.091448
L 178.52962 111.235653
L 180.073049 110.338897
L 181.471181 109.40479
L 182.718386 108.437093
L 183.809642 107.439704
L 184.740556 106.416639
L 185.507378 105.372016
L 186.107022 104.310042
L 186.537071 103.234994
L 186.795796 102.1512
L 186.882153 101.063025
" clip-path="url(#pdb067a243d)" style="fill: none; stroke: #acb0be; stroke-width: 1.5; stroke-linecap: square"/>
   </g>
   <g id="line2d_2">
    <path d="M 174.014268 101.063025
L 173.953818 100.301302
L 173.772711 99.542646
L 173.471676 98.790112
L 173.051926 98.046731
L 172.51515 97.315495
L 171.86351 96.599349
L 171.099631 95.901177
L 170.226587 95.223789
L 169.247895 94.569914
L 168.167495 93.942185
L 166.989737 93.343129
L 165.719364 92.775158
L 164.361492 92.240559
L 162.921588 91.741485
L 161.405449 91.279946
L 159.819182 90.8578
L 158.169172 90.476747
L 156.462066 90.138321
L 154.704735 89.843885
L 152.904256 89.594624
L 151.06788 89.391542
L 149.203 89.235458
L 147.317127 89.126999
L 145.417853 89.066602
L 143.512826 89.05451
L 141.609717 89.090773
L 139.71619 89.175243
L 137.839869 89.307582
L 135.988309 89.487255
L 134.168966 89.71354
L 132.389165 89.985526
L 130.656074 90.302116
L 128.97667 90.662037
L 127.357716 91.063839
L 125.805732 91.505904
L 124.326966 91.986453
L 122.927373 92.503549
L 121.612589 93.055112
L 120.387907 93.638919
L 119.258259 94.252621
L 118.228195 94.893746
L 117.30186 95.559712
L 116.482986 96.247839
L 115.77487 96.955354
L 115.180363 97.679409
L 114.70186 98.417089
L 114.341285 99.165424
L 114.100093 99.921399
L 113.979254 100.681971
L 113.979254 101.444078
L 114.100093 102.20465
L 114.341285 102.960626
L 114.70186 103.70896
L 115.180363 104.44664
L 115.77487 105.170696
L 116.482986 105.878211
L 117.30186 106.566337
L 118.228195 107.232304
L 119.258259 107.873429
L 120.387907 108.48713
L 121.612589 109.070938
L 122.927373 109.6225
L 124.326966 110.139597
L 125.805732 110.620145
L 127.357716 111.06221
L 128.97667 111.464012
L 130.656074 111.823933
L 132.389165 112.140524
L 134.168966 112.412509
L 135.988309 112.638794
L 137.839869 112.818468
L 139.71619 112.950806
L 141.609717 113.035277
L 143.512826 113.071539
L 145.417853 113.059448
L 147.317127 112.999051
L 149.203 112.890592
L 151.06788 112.734507
L 152.904256 112.531426
L 154.704735 112.282165
L 156.462066 111.987729
L 158.169172 111.649303
L 159.819182 111.268249
L 161.405449 110.846103
L 162.921588 110.384564
L 164.361492 109.88549
L 165.719364 109.350892
L 166.989737 108.782921
L 168.167495 108.183864
L 169.247895 107.556135
L 170.226587 106.90226
L 171.099631 106.224873
L 171.86351 105.526701
L 172.51515 104.810555
L 173.051926 104.079319
L 173.471676 103.335937
L 173.772711 102.583403
L 173.953818 101.824748
L 174.014268 101.063025
" clip-path="url(#pdb067a243d)" style="fill: none; stroke: #acb0be; stroke-width: 1.5; stroke-linecap: square"/>
   </g>
   <g id="line2d_3">
    <path d="M 161.146383 101.063025
L 161.11184 100.627754
L 161.00835 100.194237
L 160.83633 99.764218
L 160.596473 99.339428
L 160.289744 98.921579
L 159.917379 98.512353
L 159.480876 98.113397
L 158.981994 97.726319
L 158.422741 97.352676
L 157.80537 96.993973
L 157.132365 96.651656
L 156.406438 96.327101
L 155.630511 96.021616
L 154.807708 95.736431
L 153.941344 95.472694
L 153.034905 95.231468
L 152.092043 95.013723
L 151.116553 94.820337
L 150.112364 94.652087
L 149.083519 94.509653
L 148.034161 94.393606
L 146.968516 94.304415
L 145.890874 94.242438
L 144.805574 94.207926
L 143.716987 94.201016
L 142.629497 94.221738
L 141.547481 94.270007
L 140.475298 94.345629
L 139.417263 94.448299
L 138.377639 94.577605
L 137.36061 94.733025
L 136.370272 94.913934
L 135.410613 95.119603
L 134.485496 95.349204
L 133.598648 95.601813
L 132.753639 95.876412
L 131.953872 96.171896
L 131.202566 96.487074
L 130.502748 96.820679
L 129.857235 97.171365
L 129.268627 97.537722
L 128.739293 97.918275
L 128.271365 98.31149
L 127.866727 98.715784
L 127.527009 99.12953
L 127.253578 99.551062
L 127.047536 99.978681
L 126.909711 100.410667
L 126.84066 100.84528
L 126.84066 101.280769
L 126.909711 101.715382
L 127.047536 102.147368
L 127.253578 102.574988
L 127.527009 102.996519
L 127.866727 103.410265
L 128.271365 103.81456
L 128.739293 104.207775
L 129.268627 104.588327
L 129.857235 104.954684
L 130.502748 105.305371
L 131.202566 105.638975
L 131.953872 105.954154
L 132.753639 106.249637
L 133.598648 106.524236
L 134.485496 106.776845
L 135.410613 107.006446
L 136.370272 107.212115
L 137.36061 107.393024
L 138.377639 107.548444
L 139.417263 107.67775
L 140.475298 107.780421
L 141.547481 107.856043
L 142.629497 107.904312
L 143.716987 107.925033
L 144.805574 107.918123
L 145.890874 107.883611
L 146.968516 107.821634
L 148.034161 107.732443
L 149.083519 107.616397
L 150.112364 107.473962
L 151.116553 107.305713
L 152.092043 107.112326
L 153.034905 106.894582
L 153.941344 106.653355
L 154.807708 106.389619
L 155.630511 106.104434
L 156.406438 105.798949
L 157.132365 105.474394
L 157.80537 105.132076
L 158.422741 104.773373
L 158.981994 104.399731
L 159.480876 104.012652
L 159.917379 103.613697
L 160.289744 103.20447
L 160.596473 102.786621
L 160.83633 102.361832
L 161.00835 101.931813
L 161.11184 101.498295
L 161.146383 101.063025
" clip-path="url(#pdb067a243d)" style="fill: none; stroke: #acb0be; stroke-width: 1.5; stroke-linecap: square"/>
   </g>
   <g id="line2d_4">
    <defs>
     <path id="me0367c0bab" d="M 0 3
C 0.795609 3 1.55874 2.683901 2.12132 2.12132
C 2.683901 1.55874 3 0.795609 3 0
C 3 -0.795609 2.683901 -1.55874 2.12132 -2.12132
C 1.55874 -2.683901 0.795609 -3 0 -3
C -0.795609 -3 -1.55874 -2.683901 -2.12132 -2.12132
C -2.683901 -1.55874 -3 -0.795609 -3 0
C -3 0.795609 -2.683901 1.55874 -2.12132 2.12132
C -1.55874 2.683901 -0.795609 3 0 3
z
" style="stroke: #40a02b"/>
    </defs>
    <g clip-path="url(#pdb067a243d)">
     <use xlink:href="#me0367c0bab" x="143.989203" y="34.578951" style="fill: #40a02b; stroke: #40a02b"/>
    </g>
   </g>
   <g id="line2d_5">
    <defs>
     <path id="m01cb5dd4eb" d="M 0 3
C 0.795609 3 1.55874 2.683901 2.12132 2.12132
C 2.683901 1.55874 3 0.795609 3 0
C 3 -0.795609 2.683901 -1.55874 2.12132 -2.12132
C 1.55874 -2.683901 0.795609 -3 0 -3
C -0.795609 -3 -1.55874 -2.683901 -2.12132 -2.12132
C -2.683901 -1.55874 -3 -0.795609 -3 0
C -3 0.795609 -2.683901 1.55874 -2.12132 2.12132
C -1.55874 2.683901 -0.795609 3 0 3
z
" style="stroke: #4c4f69"/>
    </defs>
    <g clip-path="url(#pdb067a243d)">
     <use xlink:href="#m01cb5dd4eb" x="143.989203" y="101.063025" style="fill: #4c4f69; stroke: #4c4f69"/>
    </g>
   </g>
   <g id="line2d_6">
    <path d="M 183.512706 88.039448
L 184.089929 88.965904
L 184.520611 89.994267
L 184.795189 91.123593
L 184.904104 92.351166
L 184.837949 93.672379
L 184.58766 95.080642
L 184.144728 96.567329
L 183.501438 98.121766
L 182.651134 99.731268
L 181.588483 101.381227
L 180.309757 103.055257
L 178.813106 104.735394
L 177.098811 106.402357
L 175.169513 108.035859
L 173.030403 109.61497
L 170.689362 111.118522
L 168.157041 112.525545
L 165.446869 113.815729
L 162.574996 114.969885
L 159.560149 115.970405
L 156.423423 116.801697
L 153.187987 117.450577
L 149.87873 117.906616
L 146.521853 118.16241
L 143.144413 118.213779
L 139.773838 118.059882
L 136.437432 117.703238
L 133.161881 117.149658
L 129.972787 116.408089
L 126.894227 115.490376
L 123.948372 114.410953
L 121.155166 113.186473
L 118.532068 111.83539
L 116.093881 110.377512
L 113.852649 108.833536
L 111.817631 107.224589
L 109.995349 105.571771
L 108.389698 103.895739
L 107.002113 102.216321
L 105.83178 100.552175
L 104.875874 98.920503
L 104.129834 97.336825
L 103.587627 95.814802
L 103.242036 94.366121
L 103.084918 93.000432
L 103.107457 91.725341
L 103.300393 90.546436
L 103.654222 89.467366
L 104.159364 88.489944
L 104.806309 87.614283
L 105.585723 86.838952
L 106.488534 86.161146
L 107.50599 85.576869
L 108.629691 85.081119
L 109.851609 84.66808
L 111.164095 84.331303
L 112.559866 84.063888
L 114.031996 83.858653
L 115.573901 83.708292
L 117.179319 83.605519
L 118.842297 83.543192
L 120.557178 83.514429
L 122.318588 83.5127
L 124.121432 83.531897
L 125.960885 83.566398
L 127.832387 83.6111
L 129.731641 83.66145
L 131.654597 83.713454
L 133.597448 83.763675
L 135.556607 83.809228
L 137.528688 83.847763
L 139.510475 83.877454
L 141.498892 83.896974
L 143.490959 83.905488
L 145.483753 83.90264
L 147.474362 83.888549
L 149.459842 83.863809
L 151.437168 83.829499
L 153.4032 83.787194
L 155.35464 83.73898
L 157.288006 83.687473
L 159.199601 83.635832
L 161.085501 83.587771
L 162.941532 83.547566
L 164.763266 83.520046
L 166.546013 83.510578
L 168.284813 83.525032
L 169.974432 83.569737
L 171.609355 83.651408
L 173.18378 83.777071
L 174.6916 83.953953
L 176.126394 84.189369
L 177.48141 84.490581
L 178.749546 84.864651
L 179.923335 85.318275
L 180.99494 85.857608
L 181.956146 86.488082
L 182.798374 87.214221
L 183.512706 88.039448
" clip-path="url(#pdb067a243d)" style="fill: none; stroke: #e64553; stroke-width: 1.5; stroke-linecap: square"/>
   </g>
   <g id="line2d_7">
    <path d="M 172.645826 94.570033
L 172.919699 95.283346
L 173.080968 96.046623
L 173.124928 96.85762
L 173.047178 97.713214
L 172.843706 98.609379
L 172.510984 99.54118
L 172.046062 100.502777
L 171.446674 101.487458
L 170.711341 102.487689
L 169.839471 103.495182
L 168.831458 104.50099
L 167.688767 105.495619
L 166.414016 106.469163
L 165.011035 107.411454
L 163.484909 108.312227
L 161.842002 109.161295
L 160.08995 109.94874
L 158.237637 110.665093
L 156.295136 111.301526
L 154.273629 111.850025
L 152.185296 112.303561
L 150.043185 112.656235
L 147.861052 112.90341
L 145.653187 113.041805
L 143.434232 113.069577
L 141.218979 112.986354
L 139.022167 112.793248
L 136.858287 112.492827
L 134.741386 112.08906
L 132.684887 111.587231
L 130.70142 110.993821
L 128.802682 110.316372
L 126.999313 109.563325
L 125.300799 108.743852
L 123.715408 107.867671
L 122.250139 106.944857
L 120.910717 105.985658
L 119.701594 105.000313
L 118.625988 103.998878
L 117.685932 102.991073
L 116.882345 101.986131
L 116.215117 100.992684
L 115.683199 100.018653
L 115.284705 99.071169
L 115.017015 98.156512
L 114.876877 97.280073
L 114.86051 96.446331
L 114.963696 95.658859
L 115.181871 94.920337
L 115.510207 94.232586
L 115.943686 93.596614
L 116.477161 93.012674
L 117.105413 92.48033
L 117.823197 91.998529
L 118.625283 91.565679
L 119.506483 91.17973
L 120.46168 90.838252
L 121.485843 90.538519
L 122.574046 90.277586
L 123.721478 90.052361
L 124.923446 89.859674
L 126.175386 89.696344
L 127.472863 89.559236
L 128.811569 89.445311
L 130.187328 89.351671
L 131.596087 89.275598
L 133.033915 89.214588
L 134.496995 89.166372
L 135.981618 89.128942
L 137.484169 89.100565
L 139.001119 89.079795
L 140.52901 89.065483
L 142.064438 89.056781
L 143.604041 89.053149
L 145.144478 89.054353
L 146.682413 89.060472
L 148.214495 89.071892
L 149.737343 89.089308
L 151.24753 89.113719
L 152.741563 89.146423
L 154.215872 89.189012
L 155.666797 89.243358
L 157.090574 89.3116
L 158.483332 89.39613
L 159.841079 89.499561
L 161.159701 89.624705
L 162.434955 89.774537
L 163.662472 89.952149
L 164.83775 90.160707
L 165.956162 90.403393
L 167.012954 90.683347
L 168.003257 91.003596
L 168.92209 91.366986
L 169.764377 91.776104
L 170.524964 92.2332
L 171.198638 92.740105
L 171.780156 93.298152
L 172.264282 93.908095
L 172.645826 94.570033
" clip-path="url(#pdb067a243d)" style="fill: none; stroke: #e64553; stroke-width: 1.5; stroke-linecap: square"/>
   </g>
   <g id="line2d_8">
    <path d="M 160.736852 98.91905
L 160.813294 99.348917
L 160.822133 99.794443
L 160.761983 100.253853
L 160.631723 100.725098
L 160.430531 101.205857
L 160.157902 101.693549
L 159.813682 102.185346
L 159.398091 102.678198
L 158.911743 103.168854
L 158.355673 103.653896
L 157.731348 104.129776
L 157.040683 104.592856
L 156.28605 105.039452
L 155.47028 105.465881
L 154.596662 105.868512
L 153.668932 106.243819
L 152.69126 106.588428
L 151.668231 106.899172
L 150.60481 107.173141
L 149.506315 107.407722
L 148.378373 107.600651
L 147.226876 107.750039
L 146.057931 107.854414
L 144.877805 107.91274
L 143.692868 107.924434
L 142.509536 107.889381
L 141.334209 107.807929
L 140.173214 107.680889
L 139.032743 107.50952
L 137.918804 107.295505
L 136.837161 107.040924
L 135.793292 106.748222
L 134.792344 106.420164
L 133.839095 106.059796
L 132.937926 105.670395
L 132.092793 105.255416
L 131.307209 104.818446
L 130.584235 104.363146
L 129.926472 103.893207
L 129.336063 103.412295
L 128.814698 102.92401
L 128.363626 102.431839
L 127.983669 101.93912
L 127.675241 101.449008
L 127.438372 100.964444
L 127.27273 100.488135
L 127.177647 100.022534
L 127.152149 99.569827
L 127.194978 99.131926
L 127.304626 98.710466
L 127.479356 98.306809
L 127.717234 97.922047
L 128.016146 97.557016
L 128.373832 97.212309
L 128.787897 96.88829
L 129.255841 96.585116
L 129.775069 96.302758
L 130.342914 96.041018
L 130.956651 95.79956
L 131.613507 95.577925
L 132.310676 95.375561
L 133.045327 95.191841
L 133.814615 95.026089
L 134.615684 94.877598
L 135.445677 94.745652
L 136.301738 94.629542
L 137.181016 94.528586
L 138.080668 94.442144
L 138.99786 94.369627
L 139.929765 94.310516
L 140.873569 94.264365
L 141.826462 94.230813
L 142.785643 94.209593
L 143.748316 94.20053
L 144.711687 94.203549
L 145.672964 94.218675
L 146.629351 94.246033
L 147.57805 94.285845
L 148.516256 94.338426
L 149.441157 94.404179
L 150.349933 94.483589
L 151.239753 94.577211
L 152.107778 94.68566
L 152.951162 94.809601
L 153.76705 94.949731
L 154.552586 95.106763
L 155.304911 95.281412
L 156.021176 95.474372
L 156.698541 95.686297
L 157.334187 95.91778
L 157.925322 96.169329
L 158.469196 96.441344
L 158.963111 96.734095
L 159.404434 97.047699
L 159.790616 97.382094
L 160.119206 97.737022
L 160.387876 98.112008
L 160.594433 98.506338
L 160.736852 98.91905
" clip-path="url(#pdb067a243d)" style="fill: none; stroke: #e64553; stroke-width: 1.5; stroke-linecap: square"/>
   </g>
   <g id="text_1">
    <!-- $r_0$ -->
    <g style="fill: #40a02b" transform="translate(150.423145 34.578951) scale(0.2 -0.2)">
     <defs>
      <path id="CMMI12-72" d="M 2490 2633
C 2291 2598 2189 2457 2189 2316
C 2189 2163 2310 2111 2400 2111
C 2579 2111 2726 2265 2726 2457
C 2726 2651 2528 2816 2208 2816
C 1952 2816 1658 2700 1389 2335
C 1344 2660 1088 2816 832 2816
C 582 2816 454 2642 378 2508
C 269 2278 173 1892 173 1860
C 173 1834 198 1801 243 1801
C 294 1801 301 1808 339 1957
C 435 2342 557 2687 813 2687
C 966 2687 1011 2604 1011 2419
C 1011 2278 947 2028 902 1827
L 723 1130
C 698 1007 627 716 595 600
C 550 432 480 128 480 96
C 480 6 550 -64 646 -64
C 717 -64 838 -20 877 109
C 896 160 1133 1136 1171 1285
C 1203 1427 1242 1562 1274 1705
C 1299 1795 1325 1898 1344 1982
C 1363 2040 1536 2355 1696 2495
C 1773 2566 1939 2687 2202 2687
C 2304 2687 2406 2674 2490 2633
z
" transform="scale(0.015625)"/>
      <path id="CMR17-30" d="M 2688 2038
C 2688 2430 2682 3099 2413 3613
C 2176 4063 1798 4224 1466 4224
C 1158 4224 768 4082 525 3620
C 269 3137 243 2539 243 2038
C 243 1671 250 1112 448 623
C 723 -39 1216 -128 1466 -128
C 1760 -128 2208 -7 2470 604
C 2662 1048 2688 1568 2688 2038
z
M 1466 -26
C 1056 -26 813 328 723 816
C 653 1196 653 1749 653 2109
C 653 2604 653 3015 736 3407
C 858 3954 1216 4121 1466 4121
C 1728 4121 2067 3947 2189 3420
C 2272 3054 2278 2623 2278 2109
C 2278 1691 2278 1176 2202 797
C 2067 96 1690 -26 1466 -26
z
" transform="scale(0.015625)"/>
     </defs>
     <use xlink:href="#CMMI12-72" transform="scale(0.996264)"/>
     <use xlink:href="#CMR17-30" transform="translate(43.960894 -14.943915) scale(0.697382)"/>
    </g>
   </g>
   <g id="text_2">
    <!-- $l_0$ -->
    <g style="fill: #4c4f69" transform="translate(150.423145 105.35232) scale(0.2 -0.2)">
     <defs>
      <path id="CMMI12-6c" d="M 1626 4255
C 1632 4281 1645 4319 1645 4351
C 1645 4416 1581 4416 1568 4416
C 1562 4416 1331 4396 1216 4383
C 1107 4377 1011 4364 896 4358
C 742 4345 698 4339 698 4223
C 698 4159 762 4159 826 4159
C 1152 4159 1152 4102 1152 4039
C 1152 4013 1152 4001 1120 3886
L 326 731
C 307 661 294 610 294 509
C 294 191 531 -64 858 -64
C 1069 -64 1210 76 1312 273
C 1421 483 1510 884 1510 909
C 1510 941 1485 967 1446 967
C 1389 967 1382 935 1357 839
C 1242 401 1126 64 870 64
C 678 64 678 267 678 356
C 678 382 678 515 723 693
L 1626 4255
z
" transform="scale(0.015625)"/>
     </defs>
     <use xlink:href="#CMMI12-6c" transform="scale(0.996264)"/>
     <use xlink:href="#CMR17-30" transform="translate(29.057447 -14.943915) scale(0.697382)"/>
    </g>
   </g>
  </g>
 </g>
 <defs>
  <clipPath id="pdb067a243d">
   <rect x="21.6" y="30.396997" width="244.8" height="92.003003"/>
  </clipPath>
 </defs>
</svg>
