<?xml version="1.0" encoding="utf-8" standalone="no"?>
<!DOCTYPE svg PUBLIC "-//W3C//DTD SVG 1.1//EN"
  "http://www.w3.org/Graphics/SVG/1.1/DTD/svg11.dtd">
<svg xmlns:xlink="http://www.w3.org/1999/xlink" width="324pt" height="324pt" viewBox="0 0 324 324" xmlns="http://www.w3.org/2000/svg" version="1.1">
 <metadata>
  <rdf:RDF xmlns:dc="http://purl.org/dc/elements/1.1/" xmlns:cc="http://creativecommons.org/ns#" xmlns:rdf="http://www.w3.org/1999/02/22-rdf-syntax-ns#">
   <cc:Work>
    <dc:type rdf:resource="http://purl.org/dc/dcmitype/StillImage"/>
    <dc:date>1980-01-01T00:00:00+00:00</dc:date>
    <dc:format>image/svg+xml</dc:format>
    <dc:creator>
     <cc:Agent>
      <dc:title>Matplotlib v3.8.4, https://matplotlib.org/</dc:title>
     </cc:Agent>
    </dc:creator>
   </cc:Work>
  </rdf:RDF>
 </metadata>
 <defs>
  <style type="text/css">*{stroke-linejoin: round; stroke-linecap: butt}</style>
 </defs>
 <g id="figure_1">
  <g id="patch_1">
   <path d="M 0 324
L 324 324
L 324 0
L 0 0
z
" style="fill: #ffffff"/>
  </g>
  <g id="axes_1">
   <g id="patch_2">
    <path d="M 41.6 256.189048
L 253.895238 256.189048
L 253.895238 43.89381
L 41.6 43.89381
z
" style="fill: #eff1f5"/>
   </g>
   <g id="matplotlib.axis_1">
    <g id="text_1">
     <!-- External -->
     <g style="fill: #4c4f69" transform="translate(126.129807 284.660298) scale(0.12 -0.12)">
      <defs>
       <path id="STIXTwoText-45" d="M 3648 0
L 230 0
L 230 192
Q 493 192 624 227
Q 755 262 803 384
Q 851 506 851 755
L 851 3424
Q 851 3667 803 3795
Q 755 3923 624 3968
Q 493 4013 230 4013
L 230 4205
L 3590 4205
L 3629 3155
L 3424 3155
Q 3379 3475 3286 3638
Q 3194 3802 2986 3859
Q 2778 3917 2381 3917
L 1440 3917
L 1440 2291
L 2189 2291
Q 2483 2291 2636 2342
Q 2790 2394 2848 2534
Q 2906 2675 2906 2931
L 3110 2931
L 3110 1446
L 2906 1446
Q 2906 1709 2848 1837
Q 2790 1965 2636 2003
Q 2483 2042 2189 2042
L 1440 2042
L 1440 282
L 2266 282
Q 2637 282 2864 317
Q 3091 352 3222 448
Q 3354 544 3440 723
Q 3526 902 3622 1190
L 3827 1190
L 3648 0
z
" transform="scale(0.015625)"/>
       <path id="STIXTwoText-78" d="M 3085 0
L 1747 0
L 1747 186
Q 1914 186 1981 214
Q 2048 243 2048 326
Q 2048 390 2003 461
L 1600 1082
L 1440 1363
L 1338 1453
L 634 2458
Q 525 2618 448 2701
Q 371 2784 288 2813
Q 205 2842 70 2842
L 70 3027
L 1446 3027
L 1446 2848
Q 1139 2848 1139 2701
Q 1139 2650 1177 2579
Q 1216 2509 1289 2397
Q 1363 2285 1472 2106
L 1651 1773
L 1754 1715
L 2573 557
Q 2707 365 2806 275
Q 2906 186 3085 186
L 3085 0
z
M 1056 0
L -13 0
L -13 186
Q 154 186 262 253
Q 371 320 531 506
L 1338 1555
L 1536 1306
L 1446 1306
L 922 550
Q 877 474 822 397
Q 768 320 768 282
Q 768 230 832 208
Q 896 186 1056 186
L 1056 0
z
M 2464 2541
L 1754 1626
L 1568 1824
L 1651 1824
L 1952 2259
Q 2080 2438 2131 2528
Q 2182 2618 2182 2694
Q 2182 2765 2128 2806
Q 2074 2848 1920 2848
L 1920 3027
L 2976 3027
L 2976 2842
Q 2816 2842 2694 2762
Q 2573 2682 2464 2541
z
" transform="scale(0.015625)"/>
       <path id="STIXTwoText-74" d="M 1875 576
L 1997 474
Q 1875 301 1769 182
Q 1664 64 1536 0
Q 1408 -64 1203 -64
Q 883 -64 736 125
Q 589 314 589 742
L 589 2726
L 237 2726
L 237 2874
Q 461 3014 624 3254
Q 787 3494 960 3904
L 1120 3904
L 1120 2995
L 1843 2995
L 1843 2726
L 1120 2726
L 1120 922
Q 1120 582 1181 448
Q 1242 314 1427 314
Q 1581 314 1667 378
Q 1754 442 1875 576
z
" transform="scale(0.015625)"/>
       <path id="STIXTwoText-65" d="M 1581 -64
Q 1197 -64 886 118
Q 576 301 397 656
Q 218 1011 218 1523
Q 218 2061 400 2409
Q 582 2758 889 2931
Q 1197 3104 1568 3104
Q 2093 3104 2413 2739
Q 2733 2374 2758 1702
L 678 1702
L 672 1939
L 2157 1939
Q 2150 2176 2073 2384
Q 1997 2592 1849 2720
Q 1702 2848 1472 2848
Q 1101 2848 915 2557
Q 730 2266 730 1734
Q 730 1293 870 998
Q 1011 704 1241 560
Q 1472 416 1734 416
Q 1997 416 2160 486
Q 2323 557 2438 669
Q 2554 781 2656 915
L 2778 826
Q 2694 646 2585 483
Q 2477 320 2339 198
Q 2202 77 2016 6
Q 1830 -64 1581 -64
z
" transform="scale(0.015625)"/>
       <path id="STIXTwoText-72" d="M 1786 0
L 186 0
L 186 186
Q 397 186 496 221
Q 595 256 624 349
Q 653 442 653 621
L 653 2381
Q 653 2554 624 2640
Q 595 2726 422 2726
Q 326 2726 275 2720
Q 224 2714 224 2714
L 224 2893
L 1018 3085
L 1171 3085
L 1171 2426
L 1190 2426
Q 1357 2662 1485 2816
Q 1613 2970 1737 3046
Q 1862 3123 2016 3123
Q 2202 3123 2294 3027
Q 2387 2931 2387 2765
Q 2387 2586 2300 2502
Q 2214 2419 2106 2419
Q 2003 2419 1923 2473
Q 1843 2528 1785 2582
Q 1728 2637 1690 2637
Q 1581 2637 1440 2470
Q 1299 2304 1184 2112
L 1184 653
Q 1184 454 1235 352
Q 1286 250 1417 218
Q 1549 186 1786 186
L 1786 0
z
" transform="scale(0.015625)"/>
       <path id="STIXTwoText-6e" d="M 3552 0
L 2074 0
L 2074 179
Q 2304 179 2403 220
Q 2502 262 2524 364
Q 2547 467 2547 646
L 2547 1805
Q 2547 2189 2460 2381
Q 2374 2573 2240 2633
Q 2106 2694 1958 2694
Q 1773 2694 1625 2620
Q 1478 2547 1360 2444
Q 1242 2342 1139 2253
L 1094 2566
L 1190 2566
Q 1453 2797 1686 2950
Q 1920 3104 2221 3104
Q 2656 3104 2867 2809
Q 3078 2515 3078 1965
L 3078 646
Q 3078 467 3107 364
Q 3136 262 3238 220
Q 3341 179 3552 179
L 3552 0
z
M 1670 0
L 205 0
L 205 179
Q 422 179 515 220
Q 608 262 630 364
Q 653 467 653 646
L 653 2445
Q 653 2618 582 2672
Q 512 2726 384 2726
Q 301 2726 256 2720
Q 211 2714 211 2714
L 211 2899
L 1024 3085
L 1171 3085
L 1165 2496
L 1184 2362
L 1184 646
Q 1184 467 1209 364
Q 1235 262 1337 220
Q 1440 179 1670 179
L 1670 0
z
" transform="scale(0.015625)"/>
       <path id="STIXTwoText-61" d="M 1005 -45
Q 634 -45 438 160
Q 243 365 243 672
Q 243 928 361 1104
Q 480 1280 675 1401
Q 870 1523 1097 1606
Q 1325 1690 1542 1747
Q 1760 1805 1926 1856
L 1926 2138
Q 1926 2554 1782 2730
Q 1638 2906 1350 2906
Q 1075 2906 998 2790
Q 922 2675 922 2387
Q 922 2240 848 2166
Q 774 2093 640 2093
Q 544 2093 457 2166
Q 371 2240 371 2400
Q 371 2579 508 2739
Q 646 2899 899 3001
Q 1152 3104 1498 3104
Q 2022 3104 2240 2861
Q 2458 2618 2458 2118
L 2458 666
Q 2458 467 2502 409
Q 2547 352 2650 352
Q 2739 352 2812 397
Q 2886 442 2950 512
L 3046 410
Q 2886 179 2742 73
Q 2598 -32 2355 -32
Q 2131 -32 2064 96
Q 1997 224 1965 461
L 1926 538
L 1926 1645
Q 1638 1574 1382 1478
Q 1126 1382 966 1228
Q 806 1075 806 826
Q 806 589 934 448
Q 1062 307 1267 307
Q 1434 307 1616 390
Q 1798 474 1971 627
L 2022 397
L 1946 397
Q 1798 269 1660 166
Q 1523 64 1366 9
Q 1210 -45 1005 -45
z
" transform="scale(0.015625)"/>
       <path id="STIXTwoText-6c" d="M 1664 0
L 192 0
L 192 186
Q 403 186 499 227
Q 595 269 617 368
Q 640 467 640 646
L 640 3859
Q 640 4058 566 4096
Q 493 4134 371 4134
Q 288 4134 227 4128
Q 166 4122 166 4122
L 166 4294
L 1011 4518
L 1171 4518
L 1171 646
Q 1171 461 1200 361
Q 1229 262 1331 224
Q 1434 186 1664 186
L 1664 0
z
" transform="scale(0.015625)"/>
      </defs>
      <use xlink:href="#STIXTwoText-45"/>
      <use xlink:href="#STIXTwoText-78" x="62.599991"/>
      <use xlink:href="#STIXTwoText-74" x="110.499985"/>
      <use xlink:href="#STIXTwoText-65" x="141.999969"/>
      <use xlink:href="#STIXTwoText-72" x="188.399963"/>
      <use xlink:href="#STIXTwoText-6e" x="226.399948"/>
      <use xlink:href="#STIXTwoText-61" x="283.999939"/>
      <use xlink:href="#STIXTwoText-6c" x="331.999924"/>
     </g>
    </g>
   </g>
   <g id="matplotlib.axis_2">
    <g id="text_2">
     <!-- Internal -->
     <g style="fill: #4c4f69" transform="translate(18.96 170.627054) rotate(-90) scale(0.12 -0.12)">
      <defs>
       <path id="STIXTwoText-49" d="M 2061 0
L 218 0
L 218 192
Q 506 192 640 240
Q 774 288 812 425
Q 851 563 851 838
L 851 3360
Q 851 3610 819 3754
Q 787 3898 656 3955
Q 525 4013 218 4013
L 218 4205
L 2061 4205
L 2061 4013
Q 1760 4013 1625 3955
Q 1491 3898 1462 3754
Q 1434 3610 1434 3360
L 1434 838
Q 1434 563 1472 425
Q 1510 288 1644 240
Q 1779 192 2061 192
L 2061 0
z
" transform="scale(0.015625)"/>
      </defs>
      <use xlink:href="#STIXTwoText-49"/>
      <use xlink:href="#STIXTwoText-6e" x="35.699997"/>
      <use xlink:href="#STIXTwoText-74" x="93.299988"/>
      <use xlink:href="#STIXTwoText-65" x="124.799973"/>
      <use xlink:href="#STIXTwoText-72" x="171.199966"/>
      <use xlink:href="#STIXTwoText-6e" x="209.199951"/>
      <use xlink:href="#STIXTwoText-61" x="266.799942"/>
      <use xlink:href="#STIXTwoText-6c" x="314.799927"/>
     </g>
    </g>
   </g>
   <g id="QuadMesh_1">
    <path d="M 41.6 256.189048
L 68.136905 256.189048
L 68.136905 229.652143
L 41.6 229.652143
L 41.6 256.189048
" clip-path="url(#p6d45a8191b)" style="fill: #fe640b"/>
    <path d="M 68.136905 256.189048
L 94.67381 256.189048
L 94.67381 229.652143
L 68.136905 229.652143
L 68.136905 256.189048
" clip-path="url(#p6d45a8191b)" style="fill: #afbaf6"/>
    <path d="M 94.67381 256.189048
L 121.210714 256.189048
L 121.210714 229.652143
L 94.67381 229.652143
L 94.67381 256.189048
" clip-path="url(#p6d45a8191b)" style="fill: #afbaf6"/>
    <path d="M 121.210714 256.189048
L 147.747619 256.189048
L 147.747619 229.652143
L 121.210714 229.652143
L 121.210714 256.189048
" clip-path="url(#p6d45a8191b)" style="fill: #7287fd"/>
    <path d="M 147.747619 256.189048
L 174.284524 256.189048
L 174.284524 229.652143
L 147.747619 229.652143
L 147.747619 256.189048
" clip-path="url(#p6d45a8191b)" style="fill: #b9c3f4"/>
    <path d="M 174.284524 256.189048
L 200.821429 256.189048
L 200.821429 229.652143
L 174.284524 229.652143
L 174.284524 256.189048
" clip-path="url(#p6d45a8191b)" style="fill: #7287fd"/>
    <path d="M 200.821429 256.189048
L 227.358333 256.189048
L 227.358333 229.652143
L 200.821429 229.652143
L 200.821429 256.189048
" clip-path="url(#p6d45a8191b)" style="fill: #7287fd"/>
    <path d="M 227.358333 256.189048
L 253.895238 256.189048
L 253.895238 229.652143
L 227.358333 229.652143
L 227.358333 256.189048
" clip-path="url(#p6d45a8191b)" style="fill: #b9c3f4"/>
    <path d="M 41.6 229.652143
L 68.136905 229.652143
L 68.136905 203.115238
L 41.6 203.115238
L 41.6 229.652143
" clip-path="url(#p6d45a8191b)" style="fill: #90a1f9"/>
    <path d="M 68.136905 229.652143
L 94.67381 229.652143
L 94.67381 203.115238
L 68.136905 203.115238
L 68.136905 229.652143
" clip-path="url(#p6d45a8191b)" style="fill: #7287fd"/>
    <path d="M 94.67381 229.652143
L 121.210714 229.652143
L 121.210714 203.115238
L 94.67381 203.115238
L 94.67381 229.652143
" clip-path="url(#p6d45a8191b)" style="fill: #7287fd"/>
    <path d="M 121.210714 229.652143
L 147.747619 229.652143
L 147.747619 203.115238
L 121.210714 203.115238
L 121.210714 229.652143
" clip-path="url(#p6d45a8191b)" style="fill: #7287fd"/>
    <path d="M 147.747619 229.652143
L 174.284524 229.652143
L 174.284524 203.115238
L 147.747619 203.115238
L 147.747619 229.652143
" clip-path="url(#p6d45a8191b)" style="fill: #7287fd"/>
    <path d="M 174.284524 229.652143
L 200.821429 229.652143
L 200.821429 203.115238
L 174.284524 203.115238
L 174.284524 229.652143
" clip-path="url(#p6d45a8191b)" style="fill: #7287fd"/>
    <path d="M 200.821429 229.652143
L 227.358333 229.652143
L 227.358333 203.115238
L 200.821429 203.115238
L 200.821429 229.652143
" clip-path="url(#p6d45a8191b)" style="fill: #7287fd"/>
    <path d="M 227.358333 229.652143
L 253.895238 229.652143
L 253.895238 203.115238
L 227.358333 203.115238
L 227.358333 229.652143
" clip-path="url(#p6d45a8191b)" style="fill: #7287fd"/>
    <path d="M 41.6 203.115238
L 68.136905 203.115238
L 68.136905 176.578333
L 41.6 176.578333
L 41.6 203.115238
" clip-path="url(#p6d45a8191b)" style="fill: #90a1f9"/>
    <path d="M 68.136905 203.115238
L 94.67381 203.115238
L 94.67381 176.578333
L 68.136905 176.578333
L 68.136905 203.115238
" clip-path="url(#p6d45a8191b)" style="fill: #7287fd"/>
    <path d="M 94.67381 203.115238
L 121.210714 203.115238
L 121.210714 176.578333
L 94.67381 176.578333
L 94.67381 203.115238
" clip-path="url(#p6d45a8191b)" style="fill: #7287fd"/>
    <path d="M 121.210714 203.115238
L 147.747619 203.115238
L 147.747619 176.578333
L 121.210714 176.578333
L 121.210714 203.115238
" clip-path="url(#p6d45a8191b)" style="fill: #7287fd"/>
    <path d="M 147.747619 203.115238
L 174.284524 203.115238
L 174.284524 176.578333
L 147.747619 176.578333
L 147.747619 203.115238
" clip-path="url(#p6d45a8191b)" style="fill: #7287fd"/>
    <path d="M 174.284524 203.115238
L 200.821429 203.115238
L 200.821429 176.578333
L 174.284524 176.578333
L 174.284524 203.115238
" clip-path="url(#p6d45a8191b)" style="fill: #7287fd"/>
    <path d="M 200.821429 203.115238
L 227.358333 203.115238
L 227.358333 176.578333
L 200.821429 176.578333
L 200.821429 203.115238
" clip-path="url(#p6d45a8191b)" style="fill: #7287fd"/>
    <path d="M 227.358333 203.115238
L 253.895238 203.115238
L 253.895238 176.578333
L 227.358333 176.578333
L 227.358333 203.115238
" clip-path="url(#p6d45a8191b)" style="fill: #7287fd"/>
    <path d="M 41.6 176.578333
L 68.136905 176.578333
L 68.136905 150.041429
L 41.6 150.041429
L 41.6 176.578333
" clip-path="url(#p6d45a8191b)" style="fill: #7287fd"/>
    <path d="M 68.136905 176.578333
L 94.67381 176.578333
L 94.67381 150.041429
L 68.136905 150.041429
L 68.136905 176.578333
" clip-path="url(#p6d45a8191b)" style="fill: #7287fd"/>
    <path d="M 94.67381 176.578333
L 121.210714 176.578333
L 121.210714 150.041429
L 94.67381 150.041429
L 94.67381 176.578333
" clip-path="url(#p6d45a8191b)" style="fill: #7287fd"/>
    <path d="M 121.210714 176.578333
L 147.747619 176.578333
L 147.747619 150.041429
L 121.210714 150.041429
L 121.210714 176.578333
" clip-path="url(#p6d45a8191b)" style="fill: #7287fd"/>
    <path d="M 147.747619 176.578333
L 174.284524 176.578333
L 174.284524 150.041429
L 147.747619 150.041429
L 147.747619 176.578333
" clip-path="url(#p6d45a8191b)" style="fill: #7287fd"/>
    <path d="M 174.284524 176.578333
L 200.821429 176.578333
L 200.821429 150.041429
L 174.284524 150.041429
L 174.284524 176.578333
" clip-path="url(#p6d45a8191b)" style="fill: #7287fd"/>
    <path d="M 200.821429 176.578333
L 227.358333 176.578333
L 227.358333 150.041429
L 200.821429 150.041429
L 200.821429 176.578333
" clip-path="url(#p6d45a8191b)" style="fill: #7287fd"/>
    <path d="M 227.358333 176.578333
L 253.895238 176.578333
L 253.895238 150.041429
L 227.358333 150.041429
L 227.358333 176.578333
" clip-path="url(#p6d45a8191b)" style="fill: #7287fd"/>
    <path d="M 41.6 150.041429
L 68.136905 150.041429
L 68.136905 123.504524
L 41.6 123.504524
L 41.6 150.041429
" clip-path="url(#p6d45a8191b)" style="fill: #90a1f9"/>
    <path d="M 68.136905 150.041429
L 94.67381 150.041429
L 94.67381 123.504524
L 68.136905 123.504524
L 68.136905 150.041429
" clip-path="url(#p6d45a8191b)" style="fill: #7287fd"/>
    <path d="M 94.67381 150.041429
L 121.210714 150.041429
L 121.210714 123.504524
L 94.67381 123.504524
L 94.67381 150.041429
" clip-path="url(#p6d45a8191b)" style="fill: #7287fd"/>
    <path d="M 121.210714 150.041429
L 147.747619 150.041429
L 147.747619 123.504524
L 121.210714 123.504524
L 121.210714 150.041429
" clip-path="url(#p6d45a8191b)" style="fill: #7287fd"/>
    <path d="M 147.747619 150.041429
L 174.284524 150.041429
L 174.284524 123.504524
L 147.747619 123.504524
L 147.747619 150.041429
" clip-path="url(#p6d45a8191b)" style="fill: #7287fd"/>
    <path d="M 174.284524 150.041429
L 200.821429 150.041429
L 200.821429 123.504524
L 174.284524 123.504524
L 174.284524 150.041429
" clip-path="url(#p6d45a8191b)" style="fill: #7287fd"/>
    <path d="M 200.821429 150.041429
L 227.358333 150.041429
L 227.358333 123.504524
L 200.821429 123.504524
L 200.821429 150.041429
" clip-path="url(#p6d45a8191b)" style="fill: #7287fd"/>
    <path d="M 227.358333 150.041429
L 253.895238 150.041429
L 253.895238 123.504524
L 227.358333 123.504524
L 227.358333 150.041429
" clip-path="url(#p6d45a8191b)" style="fill: #7287fd"/>
    <path d="M 41.6 123.504524
L 68.136905 123.504524
L 68.136905 96.967619
L 41.6 96.967619
L 41.6 123.504524
" clip-path="url(#p6d45a8191b)" style="fill: #7287fd"/>
    <path d="M 68.136905 123.504524
L 94.67381 123.504524
L 94.67381 96.967619
L 68.136905 96.967619
L 68.136905 123.504524
" clip-path="url(#p6d45a8191b)" style="fill: #7287fd"/>
    <path d="M 94.67381 123.504524
L 121.210714 123.504524
L 121.210714 96.967619
L 94.67381 96.967619
L 94.67381 123.504524
" clip-path="url(#p6d45a8191b)" style="fill: #7287fd"/>
    <path d="M 121.210714 123.504524
L 147.747619 123.504524
L 147.747619 96.967619
L 121.210714 96.967619
L 121.210714 123.504524
" clip-path="url(#p6d45a8191b)" style="fill: #7287fd"/>
    <path d="M 147.747619 123.504524
L 174.284524 123.504524
L 174.284524 96.967619
L 147.747619 96.967619
L 147.747619 123.504524
" clip-path="url(#p6d45a8191b)" style="fill: #7287fd"/>
    <path d="M 174.284524 123.504524
L 200.821429 123.504524
L 200.821429 96.967619
L 174.284524 96.967619
L 174.284524 123.504524
" clip-path="url(#p6d45a8191b)" style="fill: #7287fd"/>
    <path d="M 200.821429 123.504524
L 227.358333 123.504524
L 227.358333 96.967619
L 200.821429 96.967619
L 200.821429 123.504524
" clip-path="url(#p6d45a8191b)" style="fill: #7287fd"/>
    <path d="M 227.358333 123.504524
L 253.895238 123.504524
L 253.895238 96.967619
L 227.358333 96.967619
L 227.358333 123.504524
" clip-path="url(#p6d45a8191b)" style="fill: #7287fd"/>
    <path d="M 41.6 96.967619
L 68.136905 96.967619
L 68.136905 70.430714
L 41.6 70.430714
L 41.6 96.967619
" clip-path="url(#p6d45a8191b)" style="fill: #7287fd"/>
    <path d="M 68.136905 96.967619
L 94.67381 96.967619
L 94.67381 70.430714
L 68.136905 70.430714
L 68.136905 96.967619
" clip-path="url(#p6d45a8191b)" style="fill: #7287fd"/>
    <path d="M 94.67381 96.967619
L 121.210714 96.967619
L 121.210714 70.430714
L 94.67381 70.430714
L 94.67381 96.967619
" clip-path="url(#p6d45a8191b)" style="fill: #7287fd"/>
    <path d="M 121.210714 96.967619
L 147.747619 96.967619
L 147.747619 70.430714
L 121.210714 70.430714
L 121.210714 96.967619
" clip-path="url(#p6d45a8191b)" style="fill: #7287fd"/>
    <path d="M 147.747619 96.967619
L 174.284524 96.967619
L 174.284524 70.430714
L 147.747619 70.430714
L 147.747619 96.967619
" clip-path="url(#p6d45a8191b)" style="fill: #7287fd"/>
    <path d="M 174.284524 96.967619
L 200.821429 96.967619
L 200.821429 70.430714
L 174.284524 70.430714
L 174.284524 96.967619
" clip-path="url(#p6d45a8191b)" style="fill: #7287fd"/>
    <path d="M 200.821429 96.967619
L 227.358333 96.967619
L 227.358333 70.430714
L 200.821429 70.430714
L 200.821429 96.967619
" clip-path="url(#p6d45a8191b)" style="fill: #7287fd"/>
    <path d="M 227.358333 96.967619
L 253.895238 96.967619
L 253.895238 70.430714
L 227.358333 70.430714
L 227.358333 96.967619
" clip-path="url(#p6d45a8191b)" style="fill: #7287fd"/>
    <path d="M 41.6 70.430714
L 68.136905 70.430714
L 68.136905 43.89381
L 41.6 43.89381
L 41.6 70.430714
" clip-path="url(#p6d45a8191b)" style="fill: #90a1f9"/>
    <path d="M 68.136905 70.430714
L 94.67381 70.430714
L 94.67381 43.89381
L 68.136905 43.89381
L 68.136905 70.430714
" clip-path="url(#p6d45a8191b)" style="fill: #7287fd"/>
    <path d="M 94.67381 70.430714
L 121.210714 70.430714
L 121.210714 43.89381
L 94.67381 43.89381
L 94.67381 70.430714
" clip-path="url(#p6d45a8191b)" style="fill: #7287fd"/>
    <path d="M 121.210714 70.430714
L 147.747619 70.430714
L 147.747619 43.89381
L 121.210714 43.89381
L 121.210714 70.430714
" clip-path="url(#p6d45a8191b)" style="fill: #7287fd"/>
    <path d="M 147.747619 70.430714
L 174.284524 70.430714
L 174.284524 43.89381
L 147.747619 43.89381
L 147.747619 70.430714
" clip-path="url(#p6d45a8191b)" style="fill: #7287fd"/>
    <path d="M 174.284524 70.430714
L 200.821429 70.430714
L 200.821429 43.89381
L 174.284524 43.89381
L 174.284524 70.430714
" clip-path="url(#p6d45a8191b)" style="fill: #7287fd"/>
    <path d="M 200.821429 70.430714
L 227.358333 70.430714
L 227.358333 43.89381
L 200.821429 43.89381
L 200.821429 70.430714
" clip-path="url(#p6d45a8191b)" style="fill: #7287fd"/>
    <path d="M 227.358333 70.430714
L 253.895238 70.430714
L 253.895238 43.89381
L 227.358333 43.89381
L 227.358333 70.430714
" clip-path="url(#p6d45a8191b)" style="fill: #7287fd"/>
   </g>
   <g id="patch_3">
    <path d="M 41.6 256.189048
L 41.6 43.89381
" style="fill: none; stroke: #ffffff; stroke-width: 0.8; stroke-linejoin: miter; stroke-linecap: square"/>
   </g>
   <g id="patch_4">
    <path d="M 253.895238 256.189048
L 253.895238 43.89381
" style="fill: none; stroke: #ffffff; stroke-width: 0.8; stroke-linejoin: miter; stroke-linecap: square"/>
   </g>
   <g id="patch_5">
    <path d="M 41.6 256.189048
L 253.895238 256.189048
" style="fill: none; stroke: #ffffff; stroke-width: 0.8; stroke-linejoin: miter; stroke-linecap: square"/>
   </g>
   <g id="patch_6">
    <path d="M 41.6 43.89381
L 253.895238 43.89381
" style="fill: none; stroke: #ffffff; stroke-width: 0.8; stroke-linejoin: miter; stroke-linecap: square"/>
   </g>
   <g id="text_3">
    <!-- 1 -->
    <g style="fill: #4c4f69" transform="translate(49.57974 269.78215) scale(0.12 -0.12)">
     <defs>
      <path id="JetBrainsMonoNFM-Regular-31" d="M 576 0
L 576 525
L 1843 525
L 1843 4173
L 576 3226
L 576 3885
L 1632 4672
L 2419 4672
L 2419 525
L 3456 525
L 3456 0
L 576 0
z
" transform="scale(0.015625)"/>
     </defs>
     <use xlink:href="#JetBrainsMonoNFM-Regular-31"/>
    </g>
   </g>
   <g id="text_4">
    <!-- 2 -->
    <g style="fill: #4c4f69" transform="translate(76.277475 269.78215) scale(0.12 -0.12)">
     <defs>
      <path id="JetBrainsMonoNFM-Regular-32" d="M 550 0
L 550 531
L 2106 2195
Q 2445 2554 2585 2835
Q 2726 3117 2726 3386
Q 2726 3770 2505 3997
Q 2285 4224 1907 4224
Q 1517 4224 1289 3990
Q 1062 3757 1062 3360
L 486 3360
Q 506 3994 890 4365
Q 1274 4736 1907 4736
Q 2554 4736 2934 4371
Q 3315 4006 3315 3379
Q 3315 3046 3132 2675
Q 2950 2304 2509 1843
L 1248 525
L 3373 525
L 3373 0
L 550 0
z
" transform="scale(0.015625)"/>
     </defs>
     <use xlink:href="#JetBrainsMonoNFM-Regular-32"/>
    </g>
   </g>
   <g id="text_5">
    <!-- 3 -->
    <g style="fill: #4c4f69" transform="translate(102.975209 269.78215) scale(0.12 -0.12)">
     <defs>
      <path id="JetBrainsMonoNFM-Regular-33" d="M 1850 -64
Q 1203 -64 825 297
Q 448 659 448 1280
L 1024 1280
Q 1024 896 1248 672
Q 1472 448 1856 448
Q 2240 448 2464 672
Q 2688 896 2688 1280
L 2688 1600
Q 2688 1984 2464 2208
Q 2240 2432 1856 2432
L 1350 2432
L 1350 2931
L 2496 4147
L 576 4147
L 576 4672
L 3149 4672
L 3149 4134
L 2022 2938
Q 2598 2893 2931 2537
Q 3264 2182 3264 1600
L 3264 1280
Q 3264 659 2883 297
Q 2502 -64 1850 -64
z
" transform="scale(0.015625)"/>
     </defs>
     <use xlink:href="#JetBrainsMonoNFM-Regular-33"/>
    </g>
   </g>
   <g id="text_6">
    <!-- 5 -->
    <g style="fill: #4c4f69" transform="translate(129.672944 269.78215) scale(0.12 -0.12)">
     <defs>
      <path id="JetBrainsMonoNFM-Regular-35" d="M 1882 -64
Q 1235 -64 857 297
Q 480 659 480 1280
L 1056 1280
Q 1056 896 1280 672
Q 1504 448 1888 448
Q 2272 448 2496 672
Q 2720 896 2720 1280
L 2720 1568
Q 2720 1952 2502 2176
Q 2285 2400 1914 2400
L 640 2400
L 640 4672
L 3130 4672
L 3130 4147
L 1178 4147
L 1190 2925
L 1946 2925
Q 2592 2925 2944 2569
Q 3296 2214 3296 1568
L 3296 1280
Q 3296 659 2915 297
Q 2534 -64 1882 -64
z
" transform="scale(0.015625)"/>
     </defs>
     <use xlink:href="#JetBrainsMonoNFM-Regular-35"/>
    </g>
   </g>
   <g id="text_7">
    <!-- 8 -->
    <g style="fill: #4c4f69" transform="translate(156.370678 269.78215) scale(0.12 -0.12)">
     <defs>
      <path id="JetBrainsMonoNFM-Regular-38" d="M 1920 -64
Q 1478 -64 1139 109
Q 800 282 611 592
Q 422 902 422 1306
Q 422 1747 675 2067
Q 928 2387 1350 2458
L 1350 2477
Q 986 2560 768 2845
Q 550 3130 550 3501
Q 550 3866 723 4144
Q 896 4422 1206 4579
Q 1517 4736 1920 4736
Q 2330 4736 2637 4579
Q 2944 4422 3117 4144
Q 3290 3866 3290 3501
Q 3290 3130 3072 2845
Q 2854 2560 2490 2477
L 2490 2458
Q 2912 2387 3165 2067
Q 3418 1747 3418 1306
Q 3418 902 3229 592
Q 3040 282 2704 109
Q 2368 -64 1920 -64
z
M 1920 2701
Q 2278 2701 2496 2912
Q 2714 3123 2714 3462
Q 2714 3802 2496 4013
Q 2278 4224 1920 4224
Q 1568 4224 1347 4013
Q 1126 3802 1126 3462
Q 1126 3123 1347 2912
Q 1568 2701 1920 2701
z
M 1920 454
Q 2330 454 2586 694
Q 2842 934 2842 1318
Q 2842 1709 2586 1949
Q 2330 2189 1920 2189
Q 1510 2189 1254 1949
Q 998 1709 998 1318
Q 998 934 1254 694
Q 1510 454 1920 454
z
" transform="scale(0.015625)"/>
     </defs>
     <use xlink:href="#JetBrainsMonoNFM-Regular-38"/>
    </g>
   </g>
   <g id="text_8">
    <!-- 13 -->
    <g style="fill: #4c4f69" transform="translate(179.468413 269.78215) scale(0.12 -0.12)">
     <use xlink:href="#JetBrainsMonoNFM-Regular-31"/>
     <use xlink:href="#JetBrainsMonoNFM-Regular-33" x="59.999985"/>
    </g>
   </g>
   <g id="text_9">
    <!-- 21 -->
    <g style="fill: #4c4f69" transform="translate(206.166147 269.78215) scale(0.12 -0.12)">
     <use xlink:href="#JetBrainsMonoNFM-Regular-32"/>
     <use xlink:href="#JetBrainsMonoNFM-Regular-31" x="59.999985"/>
    </g>
   </g>
   <g id="text_10">
    <!-- 34 -->
    <g style="fill: #4c4f69" transform="translate(232.863882 269.78215) scale(0.12 -0.12)">
     <defs>
      <path id="JetBrainsMonoNFM-Regular-34" d="M 2560 0
L 2560 1024
L 448 1024
L 448 1926
L 2150 4672
L 2803 4672
L 1024 1798
L 1024 1549
L 2560 1549
L 2560 2688
L 3136 2688
L 3136 0
L 2560 0
z
" transform="scale(0.015625)"/>
     </defs>
     <use xlink:href="#JetBrainsMonoNFM-Regular-33"/>
     <use xlink:href="#JetBrainsMonoNFM-Regular-34" x="59.999985"/>
    </g>
   </g>
   <g id="text_11">
    <!-- 1 -->
    <g style="fill: #4c4f69" transform="translate(28.350216 247.909307) scale(0.12 -0.12)">
     <use xlink:href="#JetBrainsMonoNFM-Regular-31"/>
    </g>
   </g>
   <g id="text_12">
    <!-- 2 -->
    <g style="fill: #4c4f69" transform="translate(28.350216 221.211573) scale(0.12 -0.12)">
     <use xlink:href="#JetBrainsMonoNFM-Regular-32"/>
    </g>
   </g>
   <g id="text_13">
    <!-- 3 -->
    <g style="fill: #4c4f69" transform="translate(28.350216 194.513838) scale(0.12 -0.12)">
     <use xlink:href="#JetBrainsMonoNFM-Regular-33"/>
    </g>
   </g>
   <g id="text_14">
    <!-- 5 -->
    <g style="fill: #4c4f69" transform="translate(28.350216 167.816104) scale(0.12 -0.12)">
     <use xlink:href="#JetBrainsMonoNFM-Regular-35"/>
    </g>
   </g>
   <g id="text_15">
    <!-- 8 -->
    <g style="fill: #4c4f69" transform="translate(28.350216 141.118369) scale(0.12 -0.12)">
     <use xlink:href="#JetBrainsMonoNFM-Regular-38"/>
    </g>
   </g>
   <g id="text_16">
    <!-- 13 -->
    <g style="fill: #4c4f69" transform="translate(24.750216 114.420635) scale(0.12 -0.12)">
     <use xlink:href="#JetBrainsMonoNFM-Regular-31"/>
     <use xlink:href="#JetBrainsMonoNFM-Regular-33" x="59.999985"/>
    </g>
   </g>
   <g id="text_17">
    <!-- 21 -->
    <g style="fill: #4c4f69" transform="translate(24.750216 87.7229) scale(0.12 -0.12)">
     <use xlink:href="#JetBrainsMonoNFM-Regular-32"/>
     <use xlink:href="#JetBrainsMonoNFM-Regular-31" x="59.999985"/>
    </g>
   </g>
   <g id="text_18">
    <!-- 34 -->
    <g style="fill: #4c4f69" transform="translate(24.750216 61.025166) scale(0.12 -0.12)">
     <use xlink:href="#JetBrainsMonoNFM-Regular-33"/>
     <use xlink:href="#JetBrainsMonoNFM-Regular-34" x="59.999985"/>
    </g>
   </g>
  </g>
  <g id="axes_2">
   <g id="patch_7">
    <path d="M 257.495238 256.189048
L 268.11 256.189048
L 268.11 43.89381
L 257.495238 43.89381
z
" style="fill: #eff1f5"/>
   </g>
   <g id="matplotlib.axis_3"/>
   <g id="matplotlib.axis_4">
    <g id="ytick_1">
     <g id="line2d_1">
      <path d="M 257.495238 256.189048
L 268.11 256.189048
" clip-path="url(#p40eecc0901)" style="fill: none; stroke: #ffffff; stroke-width: 0.8; stroke-linecap: round"/>
     </g>
     <g id="line2d_2">
      <defs>
       <path id="m08e111747a" d="M 0 0
L 3.5 0
" style="stroke: #4c4f69; stroke-width: 0.8"/>
      </defs>
      <g>
       <use xlink:href="#m08e111747a" x="268.11" y="256.189048" style="fill: #4c4f69; stroke: #4c4f69; stroke-width: 0.8"/>
      </g>
     </g>
     <g id="text_19">
      <!-- 0 -->
      <g style="fill: #4c4f69" transform="translate(275.11 259.839048) scale(0.1 -0.1)">
       <defs>
        <path id="JetBrainsMonoNFM-Regular-30" d="M 1920 -64
Q 1274 -64 893 310
Q 512 685 512 1312
L 512 3360
Q 512 3987 893 4361
Q 1274 4736 1920 4736
Q 2566 4736 2947 4361
Q 3328 3987 3328 3360
L 3328 1312
Q 3328 896 3155 585
Q 2982 275 2665 105
Q 2349 -64 1920 -64
z
M 1920 429
Q 2304 429 2537 675
Q 2771 922 2771 1312
L 2771 3360
Q 2771 3750 2537 3996
Q 2304 4243 1920 4243
Q 1536 4243 1302 3996
Q 1069 3750 1069 3360
L 1069 1312
Q 1069 922 1302 675
Q 1536 429 1920 429
z
M 1920 1984
Q 1747 1984 1641 2080
Q 1536 2176 1536 2355
Q 1536 2528 1641 2621
Q 1747 2714 1920 2714
Q 2093 2714 2198 2621
Q 2304 2528 2304 2355
Q 2304 2176 2198 2080
Q 2093 1984 1920 1984
z
" transform="scale(0.015625)"/>
       </defs>
       <use xlink:href="#JetBrainsMonoNFM-Regular-30"/>
      </g>
     </g>
    </g>
    <g id="ytick_2">
     <g id="line2d_3">
      <path d="M 257.495238 223.735943
L 268.11 223.735943
" clip-path="url(#p40eecc0901)" style="fill: none; stroke: #ffffff; stroke-width: 0.8; stroke-linecap: round"/>
     </g>
     <g id="line2d_4">
      <g>
       <use xlink:href="#m08e111747a" x="268.11" y="223.735943" style="fill: #4c4f69; stroke: #4c4f69; stroke-width: 0.8"/>
      </g>
     </g>
     <g id="text_20">
      <!-- 100 -->
      <g style="fill: #4c4f69" transform="translate(275.11 227.385943) scale(0.1 -0.1)">
       <use xlink:href="#JetBrainsMonoNFM-Regular-31"/>
       <use xlink:href="#JetBrainsMonoNFM-Regular-30" x="59.999985"/>
       <use xlink:href="#JetBrainsMonoNFM-Regular-30" x="119.999969"/>
      </g>
     </g>
    </g>
    <g id="ytick_3">
     <g id="line2d_5">
      <path d="M 257.495238 191.282839
L 268.11 191.282839
" clip-path="url(#p40eecc0901)" style="fill: none; stroke: #ffffff; stroke-width: 0.8; stroke-linecap: round"/>
     </g>
     <g id="line2d_6">
      <g>
       <use xlink:href="#m08e111747a" x="268.11" y="191.282839" style="fill: #4c4f69; stroke: #4c4f69; stroke-width: 0.8"/>
      </g>
     </g>
     <g id="text_21">
      <!-- 200 -->
      <g style="fill: #4c4f69" transform="translate(275.11 194.932839) scale(0.1 -0.1)">
       <use xlink:href="#JetBrainsMonoNFM-Regular-32"/>
       <use xlink:href="#JetBrainsMonoNFM-Regular-30" x="59.999985"/>
       <use xlink:href="#JetBrainsMonoNFM-Regular-30" x="119.999969"/>
      </g>
     </g>
    </g>
    <g id="ytick_4">
     <g id="line2d_7">
      <path d="M 257.495238 158.829735
L 268.11 158.829735
" clip-path="url(#p40eecc0901)" style="fill: none; stroke: #ffffff; stroke-width: 0.8; stroke-linecap: round"/>
     </g>
     <g id="line2d_8">
      <g>
       <use xlink:href="#m08e111747a" x="268.11" y="158.829735" style="fill: #4c4f69; stroke: #4c4f69; stroke-width: 0.8"/>
      </g>
     </g>
     <g id="text_22">
      <!-- 300 -->
      <g style="fill: #4c4f69" transform="translate(275.11 162.479735) scale(0.1 -0.1)">
       <use xlink:href="#JetBrainsMonoNFM-Regular-33"/>
       <use xlink:href="#JetBrainsMonoNFM-Regular-30" x="59.999985"/>
       <use xlink:href="#JetBrainsMonoNFM-Regular-30" x="119.999969"/>
      </g>
     </g>
    </g>
    <g id="ytick_5">
     <g id="line2d_9">
      <path d="M 257.495238 126.376631
L 268.11 126.376631
" clip-path="url(#p40eecc0901)" style="fill: none; stroke: #ffffff; stroke-width: 0.8; stroke-linecap: round"/>
     </g>
     <g id="line2d_10">
      <g>
       <use xlink:href="#m08e111747a" x="268.11" y="126.376631" style="fill: #4c4f69; stroke: #4c4f69; stroke-width: 0.8"/>
      </g>
     </g>
     <g id="text_23">
      <!-- 400 -->
      <g style="fill: #4c4f69" transform="translate(275.11 130.026631) scale(0.1 -0.1)">
       <use xlink:href="#JetBrainsMonoNFM-Regular-34"/>
       <use xlink:href="#JetBrainsMonoNFM-Regular-30" x="59.999985"/>
       <use xlink:href="#JetBrainsMonoNFM-Regular-30" x="119.999969"/>
      </g>
     </g>
    </g>
    <g id="ytick_6">
     <g id="line2d_11">
      <path d="M 257.495238 93.923527
L 268.11 93.923527
" clip-path="url(#p40eecc0901)" style="fill: none; stroke: #ffffff; stroke-width: 0.8; stroke-linecap: round"/>
     </g>
     <g id="line2d_12">
      <g>
       <use xlink:href="#m08e111747a" x="268.11" y="93.923527" style="fill: #4c4f69; stroke: #4c4f69; stroke-width: 0.8"/>
      </g>
     </g>
     <g id="text_24">
      <!-- 500 -->
      <g style="fill: #4c4f69" transform="translate(275.11 97.573527) scale(0.1 -0.1)">
       <use xlink:href="#JetBrainsMonoNFM-Regular-35"/>
       <use xlink:href="#JetBrainsMonoNFM-Regular-30" x="59.999985"/>
       <use xlink:href="#JetBrainsMonoNFM-Regular-30" x="119.999969"/>
      </g>
     </g>
    </g>
    <g id="ytick_7">
     <g id="line2d_13">
      <path d="M 257.495238 61.470422
L 268.11 61.470422
" clip-path="url(#p40eecc0901)" style="fill: none; stroke: #ffffff; stroke-width: 0.8; stroke-linecap: round"/>
     </g>
     <g id="line2d_14">
      <g>
       <use xlink:href="#m08e111747a" x="268.11" y="61.470422" style="fill: #4c4f69; stroke: #4c4f69; stroke-width: 0.8"/>
      </g>
     </g>
     <g id="text_25">
      <!-- 600 -->
      <g style="fill: #4c4f69" transform="translate(275.11 65.120422) scale(0.1 -0.1)">
       <defs>
        <path id="JetBrainsMonoNFM-Regular-36" d="M 1926 -64
Q 1478 -64 1136 125
Q 794 314 602 650
Q 410 986 410 1427
Q 410 1734 525 2057
Q 640 2381 838 2733
L 1920 4672
L 2560 4672
L 1408 2669
L 1427 2656
Q 1510 2765 1676 2822
Q 1843 2880 2042 2880
Q 2458 2880 2768 2697
Q 3078 2515 3254 2195
Q 3430 1875 3430 1453
Q 3430 1005 3238 662
Q 3046 320 2710 128
Q 2374 -64 1926 -64
z
M 1920 448
Q 2336 448 2595 723
Q 2854 998 2854 1440
Q 2854 1882 2595 2157
Q 2336 2432 1920 2432
Q 1504 2432 1245 2157
Q 986 1882 986 1440
Q 986 998 1245 723
Q 1504 448 1920 448
z
" transform="scale(0.015625)"/>
       </defs>
       <use xlink:href="#JetBrainsMonoNFM-Regular-36"/>
       <use xlink:href="#JetBrainsMonoNFM-Regular-30" x="59.999985"/>
       <use xlink:href="#JetBrainsMonoNFM-Regular-30" x="119.999969"/>
      </g>
     </g>
    </g>
    <g id="text_26">
     <!-- Makespan [$s$] -->
     <g style="fill: #4c4f69" transform="translate(304.23 115.901429) rotate(-270) scale(0.12 -0.12)">
      <defs>
       <path id="STIXTwoText-4d" d="M 1683 0
L 179 0
L 179 192
Q 442 192 570 240
Q 698 288 742 448
Q 787 608 787 934
L 787 3424
Q 787 3667 742 3792
Q 698 3917 573 3965
Q 448 4013 192 4013
L 192 4205
L 1498 4205
L 2848 986
L 2874 986
L 4218 4205
L 5434 4205
L 5434 4013
Q 5210 4013 5088 3965
Q 4966 3917 4921 3792
Q 4877 3667 4877 3430
L 4877 762
Q 4877 531 4921 406
Q 4966 282 5088 237
Q 5210 192 5440 192
L 5440 0
L 3738 0
L 3738 192
Q 3987 192 4108 237
Q 4230 282 4268 406
Q 4307 531 4307 762
L 4307 3520
L 4282 3520
L 2790 0
L 2637 0
L 1126 3514
L 1101 3514
L 1101 934
Q 1101 608 1145 448
Q 1190 288 1315 240
Q 1440 192 1683 192
L 1683 0
z
" transform="scale(0.015625)"/>
       <path id="STIXTwoText-6b" d="M 1645 0
L 192 0
L 192 186
Q 480 186 560 266
Q 640 346 640 608
L 640 3808
Q 640 4013 592 4073
Q 544 4134 384 4134
Q 320 4134 243 4128
Q 166 4122 166 4122
L 166 4294
L 998 4518
L 1171 4518
L 1171 1696
L 1210 1696
L 2035 2515
Q 2054 2534 2102 2588
Q 2150 2643 2150 2720
Q 2150 2784 2086 2809
Q 2022 2835 1837 2835
L 1837 3027
L 3219 3027
L 3219 2835
Q 3066 2835 2947 2806
Q 2829 2778 2707 2698
Q 2586 2618 2410 2470
Q 2234 2323 1965 2086
L 1645 1824
L 2771 557
Q 2925 384 3024 304
Q 3123 224 3219 205
Q 3315 186 3450 186
L 3450 0
L 2035 0
L 2035 186
Q 2176 186 2230 202
Q 2285 218 2285 262
Q 2285 307 2262 348
Q 2240 390 2214 416
L 1210 1555
L 1171 1555
L 1171 582
Q 1171 339 1257 262
Q 1344 186 1645 186
L 1645 0
z
" transform="scale(0.015625)"/>
       <path id="STIXTwoText-73" d="M 269 -51
L 250 1050
L 416 1050
Q 518 557 716 361
Q 915 166 1267 166
Q 1510 166 1664 265
Q 1818 365 1818 589
Q 1818 742 1763 844
Q 1709 947 1555 1052
Q 1402 1158 1101 1306
Q 806 1453 620 1590
Q 435 1728 345 1894
Q 256 2061 256 2298
Q 256 2694 541 2899
Q 826 3104 1235 3104
Q 1478 3104 1632 3049
Q 1786 2995 1907 2938
L 1914 2938
L 2022 3072
L 2150 3072
L 2170 2093
L 1997 2093
Q 1894 2547 1708 2716
Q 1523 2886 1229 2886
Q 1011 2886 860 2784
Q 710 2682 710 2464
Q 710 2278 883 2131
Q 1056 1984 1459 1779
Q 1754 1626 1952 1482
Q 2150 1338 2252 1168
Q 2355 998 2355 762
Q 2355 461 2208 278
Q 2061 96 1814 13
Q 1568 -70 1280 -70
Q 1005 -70 841 -12
Q 678 45 550 96
L 538 96
L 403 -51
L 269 -51
z
" transform="scale(0.015625)"/>
       <path id="STIXTwoText-70" d="M 1760 -1408
L 141 -1408
L 141 -1229
Q 442 -1229 525 -1129
Q 608 -1030 608 -762
L 608 2406
Q 608 2592 566 2662
Q 525 2733 365 2733
Q 301 2733 230 2726
Q 160 2720 160 2720
L 160 2906
L 966 3085
L 1126 3085
L 1126 2547
L 1146 2547
Q 1376 2816 1616 2960
Q 1856 3104 2138 3104
Q 2458 3104 2698 2921
Q 2938 2739 3075 2416
Q 3213 2093 3213 1670
Q 3213 1126 3024 739
Q 2835 352 2515 144
Q 2195 -64 1811 -64
Q 1632 -64 1469 -22
Q 1306 19 1165 115
L 1139 115
L 1139 -723
Q 1139 -928 1190 -1037
Q 1242 -1146 1376 -1184
Q 1510 -1222 1760 -1222
L 1760 -1408
z
M 1843 186
Q 2182 186 2406 506
Q 2630 826 2630 1491
Q 2630 2099 2432 2384
Q 2234 2669 1875 2669
Q 1619 2669 1424 2534
Q 1229 2400 1139 2278
L 1139 608
Q 1203 544 1299 441
Q 1395 339 1529 262
Q 1664 186 1843 186
z
" transform="scale(0.015625)"/>
       <path id="STIXTwoText-20" transform="scale(0.015625)"/>
       <path id="STIXTwoText-5b" d="M 1920 -1190
L 582 -1190
L 582 4685
L 1920 4685
L 1920 4493
L 1088 4493
L 1088 -998
L 1920 -998
L 1920 -1190
z
" transform="scale(0.015625)"/>
       <path id="STIXGeneral-Italic-73" d="M 2342 2829
L 2214 1933
L 2112 1933
Q 2022 2675 1542 2675
Q 1370 2675 1267 2579
Q 1165 2483 1165 2310
Q 1165 2067 1510 1658
Q 1946 1152 1946 787
Q 1946 397 1686 163
Q 1427 -70 1024 -70
Q 838 -70 672 -6
Q 538 51 390 51
Q 262 51 205 -83
L 102 -83
L 230 934
L 333 934
Q 461 64 973 64
Q 1203 64 1331 192
Q 1459 320 1459 557
Q 1459 845 1101 1293
Q 698 1798 698 2131
Q 698 2451 909 2636
Q 1120 2822 1472 2822
Q 1600 2822 1830 2758
Q 1971 2714 2061 2714
Q 2189 2714 2253 2829
L 2342 2829
z
" transform="scale(0.015625)"/>
       <path id="STIXTwoText-5d" d="M 1638 -1190
L 301 -1190
L 301 -998
L 1133 -998
L 1133 4493
L 301 4493
L 301 4685
L 1638 4685
L 1638 -1190
z
" transform="scale(0.015625)"/>
      </defs>
      <use xlink:href="#STIXTwoText-4d" transform="translate(0 0.796875)"/>
      <use xlink:href="#STIXTwoText-61" transform="translate(89.499985 0.796875)"/>
      <use xlink:href="#STIXTwoText-6b" transform="translate(137.499969 0.796875)"/>
      <use xlink:href="#STIXTwoText-65" transform="translate(191.699966 0.796875)"/>
      <use xlink:href="#STIXTwoText-73" transform="translate(238.09996 0.796875)"/>
      <use xlink:href="#STIXTwoText-70" transform="translate(277.599945 0.796875)"/>
      <use xlink:href="#STIXTwoText-61" transform="translate(331.299942 0.796875)"/>
      <use xlink:href="#STIXTwoText-6e" transform="translate(379.299927 0.796875)"/>
      <use xlink:href="#STIXTwoText-20" transform="translate(436.899918 0.796875)"/>
      <use xlink:href="#STIXTwoText-5b" transform="translate(460.399902 0.796875)"/>
      <use xlink:href="#STIXGeneral-Italic-73" transform="translate(495.099899 0.796875)"/>
      <use xlink:href="#STIXTwoText-5d" transform="translate(533.999893 0.796875)"/>
     </g>
    </g>
   </g>
   <g id="QuadMesh_2">
    <path d="M 257.495238 256.189048
L 268.11 256.189048
L 268.11 247.343413
L 257.495238 247.343413
L 257.495238 256.189048
" clip-path="url(#p40eecc0901)" style="fill: #7287fd"/>
    <path d="M 257.495238 247.343413
L 268.11 247.343413
L 268.11 238.497778
L 257.495238 238.497778
L 257.495238 247.343413
" clip-path="url(#p40eecc0901)" style="fill: #7c90fc"/>
    <path d="M 257.495238 238.497778
L 268.11 238.497778
L 268.11 229.652143
L 257.495238 229.652143
L 257.495238 238.497778
" clip-path="url(#p40eecc0901)" style="fill: #8698fb"/>
    <path d="M 257.495238 229.652143
L 268.11 229.652143
L 268.11 220.806508
L 257.495238 220.806508
L 257.495238 229.652143
" clip-path="url(#p40eecc0901)" style="fill: #90a1f9"/>
    <path d="M 257.495238 220.806508
L 268.11 220.806508
L 268.11 211.960873
L 257.495238 211.960873
L 257.495238 220.806508
" clip-path="url(#p40eecc0901)" style="fill: #9aa9f8"/>
    <path d="M 257.495238 211.960873
L 268.11 211.960873
L 268.11 203.115238
L 257.495238 203.115238
L 257.495238 211.960873
" clip-path="url(#p40eecc0901)" style="fill: #a4b2f7"/>
    <path d="M 257.495238 203.115238
L 268.11 203.115238
L 268.11 194.269603
L 257.495238 194.269603
L 257.495238 203.115238
" clip-path="url(#p40eecc0901)" style="fill: #afbaf6"/>
    <path d="M 257.495238 194.269603
L 268.11 194.269603
L 268.11 185.423968
L 257.495238 185.423968
L 257.495238 194.269603
" clip-path="url(#p40eecc0901)" style="fill: #b9c3f4"/>
    <path d="M 257.495238 185.423968
L 268.11 185.423968
L 268.11 176.578333
L 257.495238 176.578333
L 257.495238 185.423968
" clip-path="url(#p40eecc0901)" style="fill: #c3cbf3"/>
    <path d="M 257.495238 176.578333
L 268.11 176.578333
L 268.11 167.732698
L 257.495238 167.732698
L 257.495238 176.578333
" clip-path="url(#p40eecc0901)" style="fill: #cdd4f2"/>
    <path d="M 257.495238 167.732698
L 268.11 167.732698
L 268.11 158.887063
L 257.495238 158.887063
L 257.495238 167.732698
" clip-path="url(#p40eecc0901)" style="fill: #d7dcf1"/>
    <path d="M 257.495238 158.887063
L 268.11 158.887063
L 268.11 150.041429
L 257.495238 150.041429
L 257.495238 158.887063
" clip-path="url(#p40eecc0901)" style="fill: #e1e5f0"/>
    <path d="M 257.495238 150.041429
L 268.11 150.041429
L 268.11 141.195794
L 257.495238 141.195794
L 257.495238 150.041429
" clip-path="url(#p40eecc0901)" style="fill: #e7e3e5"/>
    <path d="M 257.495238 141.195794
L 268.11 141.195794
L 268.11 132.350159
L 257.495238 132.350159
L 257.495238 141.195794
" clip-path="url(#p40eecc0901)" style="fill: #e9d8d1"/>
    <path d="M 257.495238 132.350159
L 268.11 132.350159
L 268.11 123.504524
L 257.495238 123.504524
L 257.495238 132.350159
" clip-path="url(#p40eecc0901)" style="fill: #ebccbd"/>
    <path d="M 257.495238 123.504524
L 268.11 123.504524
L 268.11 114.658889
L 257.495238 114.658889
L 257.495238 123.504524
" clip-path="url(#p40eecc0901)" style="fill: #edc1aa"/>
    <path d="M 257.495238 114.658889
L 268.11 114.658889
L 268.11 105.813254
L 257.495238 105.813254
L 257.495238 114.658889
" clip-path="url(#p40eecc0901)" style="fill: #efb596"/>
    <path d="M 257.495238 105.813254
L 268.11 105.813254
L 268.11 96.967619
L 257.495238 96.967619
L 257.495238 105.813254
" clip-path="url(#p40eecc0901)" style="fill: #f1a982"/>
    <path d="M 257.495238 96.967619
L 268.11 96.967619
L 268.11 88.121984
L 257.495238 88.121984
L 257.495238 96.967619
" clip-path="url(#p40eecc0901)" style="fill: #f49e6e"/>
    <path d="M 257.495238 88.121984
L 268.11 88.121984
L 268.11 79.276349
L 257.495238 79.276349
L 257.495238 88.121984
" clip-path="url(#p40eecc0901)" style="fill: #f6925a"/>
    <path d="M 257.495238 79.276349
L 268.11 79.276349
L 268.11 70.430714
L 257.495238 70.430714
L 257.495238 79.276349
" clip-path="url(#p40eecc0901)" style="fill: #f88746"/>
    <path d="M 257.495238 70.430714
L 268.11 70.430714
L 268.11 61.585079
L 257.495238 61.585079
L 257.495238 70.430714
" clip-path="url(#p40eecc0901)" style="fill: #fa7b33"/>
    <path d="M 257.495238 61.585079
L 268.11 61.585079
L 268.11 52.739444
L 257.495238 52.739444
L 257.495238 61.585079
" clip-path="url(#p40eecc0901)" style="fill: #fc701f"/>
    <path d="M 257.495238 52.739444
L 268.11 52.739444
L 268.11 43.89381
L 257.495238 43.89381
L 257.495238 52.739444
" clip-path="url(#p40eecc0901)" style="fill: #fe640b"/>
   </g>
   <g id="LineCollection_1"/>
   <g id="patch_8">
    <path d="M 257.495238 256.189048
L 262.802619 256.189048
L 268.11 256.189048
L 268.11 43.89381
L 262.802619 43.89381
L 257.495238 43.89381
L 257.495238 256.189048
z
" style="fill: none; stroke: #ffffff; stroke-width: 0.8; stroke-linejoin: miter; stroke-linecap: square"/>
   </g>
  </g>
 </g>
 <defs>
  <clipPath id="p6d45a8191b">
   <rect x="41.6" y="43.89381" width="212.295238" height="212.295238"/>
  </clipPath>
  <clipPath id="p40eecc0901">
   <rect x="257.495238" y="43.89381" width="10.614762" height="212.295238"/>
  </clipPath>
 </defs>
</svg>
