<?xml version="1.0" encoding="utf-8" standalone="no"?>
<!DOCTYPE svg PUBLIC "-//W3C//DTD SVG 1.1//EN"
  "http://www.w3.org/Graphics/SVG/1.1/DTD/svg11.dtd">
<svg xmlns:xlink="http://www.w3.org/1999/xlink" width="432pt" height="324pt" viewBox="0 0 432 324" xmlns="http://www.w3.org/2000/svg" version="1.1">
 <metadata>
  <rdf:RDF xmlns:dc="http://purl.org/dc/elements/1.1/" xmlns:cc="http://creativecommons.org/ns#" xmlns:rdf="http://www.w3.org/1999/02/22-rdf-syntax-ns#">
   <cc:Work>
    <dc:type rdf:resource="http://purl.org/dc/dcmitype/StillImage"/>
    <dc:date>1980-01-01T00:00:00+00:00</dc:date>
    <dc:format>image/svg+xml</dc:format>
    <dc:creator>
     <cc:Agent>
      <dc:title>Matplotlib v3.8.4, https://matplotlib.org/</dc:title>
     </cc:Agent>
    </dc:creator>
   </cc:Work>
  </rdf:RDF>
 </metadata>
 <defs>
  <style type="text/css">*{stroke-linejoin: round; stroke-linecap: butt}</style>
 </defs>
 <g id="figure_1">
  <g id="patch_1">
   <path d="M 0 324
L 432 324
L 432 0
L 0 0
z
" style="fill: #ffffff"/>
  </g>
  <g id="axes_1">
   <g id="patch_2">
    <path d="M 54 288.36
L 321.84 288.36
L 321.84 38.88
L 54 38.88
z
" style="fill: #eff1f5"/>
   </g>
   <g id="matplotlib.axis_1">
    <g id="xtick_1">
     <g id="line2d_1">
      <path d="M 54 288.36
L 54 38.88
" clip-path="url(#pc0e51de8b7)" style="fill: none; stroke: #ffffff; stroke-width: 0.8; stroke-linecap: round"/>
     </g>
     <g id="text_1">
      <!-- 5 -->
      <g style="fill: #4c4f69" transform="translate(51 302.66) scale(0.1 -0.1)">
       <defs>
        <path id="JetBrainsMonoNFM-Regular-35" d="M 1882 -64
Q 1235 -64 857 297
Q 480 659 480 1280
L 1056 1280
Q 1056 896 1280 672
Q 1504 448 1888 448
Q 2272 448 2496 672
Q 2720 896 2720 1280
L 2720 1568
Q 2720 1952 2502 2176
Q 2285 2400 1914 2400
L 640 2400
L 640 4672
L 3130 4672
L 3130 4147
L 1178 4147
L 1190 2925
L 1946 2925
Q 2592 2925 2944 2569
Q 3296 2214 3296 1568
L 3296 1280
Q 3296 659 2915 297
Q 2534 -64 1882 -64
z
" transform="scale(0.015625)"/>
       </defs>
       <use xlink:href="#JetBrainsMonoNFM-Regular-35"/>
      </g>
     </g>
    </g>
    <g id="xtick_2">
     <g id="line2d_2">
      <path d="M 107.568 288.36
L 107.568 38.88
" clip-path="url(#pc0e51de8b7)" style="fill: none; stroke: #ffffff; stroke-width: 0.8; stroke-linecap: round"/>
     </g>
     <g id="text_2">
      <!-- 10 -->
      <g style="fill: #4c4f69" transform="translate(101.568 302.66) scale(0.1 -0.1)">
       <defs>
        <path id="JetBrainsMonoNFM-Regular-31" d="M 576 0
L 576 525
L 1843 525
L 1843 4173
L 576 3226
L 576 3885
L 1632 4672
L 2419 4672
L 2419 525
L 3456 525
L 3456 0
L 576 0
z
" transform="scale(0.015625)"/>
        <path id="JetBrainsMonoNFM-Regular-30" d="M 1920 -64
Q 1274 -64 893 310
Q 512 685 512 1312
L 512 3360
Q 512 3987 893 4361
Q 1274 4736 1920 4736
Q 2566 4736 2947 4361
Q 3328 3987 3328 3360
L 3328 1312
Q 3328 896 3155 585
Q 2982 275 2665 105
Q 2349 -64 1920 -64
z
M 1920 429
Q 2304 429 2537 675
Q 2771 922 2771 1312
L 2771 3360
Q 2771 3750 2537 3996
Q 2304 4243 1920 4243
Q 1536 4243 1302 3996
Q 1069 3750 1069 3360
L 1069 1312
Q 1069 922 1302 675
Q 1536 429 1920 429
z
M 1920 1984
Q 1747 1984 1641 2080
Q 1536 2176 1536 2355
Q 1536 2528 1641 2621
Q 1747 2714 1920 2714
Q 2093 2714 2198 2621
Q 2304 2528 2304 2355
Q 2304 2176 2198 2080
Q 2093 1984 1920 1984
z
" transform="scale(0.015625)"/>
       </defs>
       <use xlink:href="#JetBrainsMonoNFM-Regular-31"/>
       <use xlink:href="#JetBrainsMonoNFM-Regular-30" x="59.999985"/>
      </g>
     </g>
    </g>
    <g id="xtick_3">
     <g id="line2d_3">
      <path d="M 161.136 288.36
L 161.136 38.88
" clip-path="url(#pc0e51de8b7)" style="fill: none; stroke: #ffffff; stroke-width: 0.8; stroke-linecap: round"/>
     </g>
     <g id="text_3">
      <!-- 15 -->
      <g style="fill: #4c4f69" transform="translate(155.136 302.66) scale(0.1 -0.1)">
       <use xlink:href="#JetBrainsMonoNFM-Regular-31"/>
       <use xlink:href="#JetBrainsMonoNFM-Regular-35" x="59.999985"/>
      </g>
     </g>
    </g>
    <g id="xtick_4">
     <g id="line2d_4">
      <path d="M 214.704 288.36
L 214.704 38.88
" clip-path="url(#pc0e51de8b7)" style="fill: none; stroke: #ffffff; stroke-width: 0.8; stroke-linecap: round"/>
     </g>
     <g id="text_4">
      <!-- 20 -->
      <g style="fill: #4c4f69" transform="translate(208.704 302.66) scale(0.1 -0.1)">
       <defs>
        <path id="JetBrainsMonoNFM-Regular-32" d="M 550 0
L 550 531
L 2106 2195
Q 2445 2554 2585 2835
Q 2726 3117 2726 3386
Q 2726 3770 2505 3997
Q 2285 4224 1907 4224
Q 1517 4224 1289 3990
Q 1062 3757 1062 3360
L 486 3360
Q 506 3994 890 4365
Q 1274 4736 1907 4736
Q 2554 4736 2934 4371
Q 3315 4006 3315 3379
Q 3315 3046 3132 2675
Q 2950 2304 2509 1843
L 1248 525
L 3373 525
L 3373 0
L 550 0
z
" transform="scale(0.015625)"/>
       </defs>
       <use xlink:href="#JetBrainsMonoNFM-Regular-32"/>
       <use xlink:href="#JetBrainsMonoNFM-Regular-30" x="59.999985"/>
      </g>
     </g>
    </g>
    <g id="xtick_5">
     <g id="line2d_5">
      <path d="M 268.272 288.36
L 268.272 38.88
" clip-path="url(#pc0e51de8b7)" style="fill: none; stroke: #ffffff; stroke-width: 0.8; stroke-linecap: round"/>
     </g>
     <g id="text_5">
      <!-- 25 -->
      <g style="fill: #4c4f69" transform="translate(262.272 302.66) scale(0.1 -0.1)">
       <use xlink:href="#JetBrainsMonoNFM-Regular-32"/>
       <use xlink:href="#JetBrainsMonoNFM-Regular-35" x="59.999985"/>
      </g>
     </g>
    </g>
    <g id="xtick_6">
     <g id="line2d_6">
      <path d="M 321.84 288.36
L 321.84 38.88
" clip-path="url(#pc0e51de8b7)" style="fill: none; stroke: #ffffff; stroke-width: 0.8; stroke-linecap: round"/>
     </g>
     <g id="text_6">
      <!-- 30 -->
      <g style="fill: #4c4f69" transform="translate(315.84 302.66) scale(0.1 -0.1)">
       <defs>
        <path id="JetBrainsMonoNFM-Regular-33" d="M 1850 -64
Q 1203 -64 825 297
Q 448 659 448 1280
L 1024 1280
Q 1024 896 1248 672
Q 1472 448 1856 448
Q 2240 448 2464 672
Q 2688 896 2688 1280
L 2688 1600
Q 2688 1984 2464 2208
Q 2240 2432 1856 2432
L 1350 2432
L 1350 2931
L 2496 4147
L 576 4147
L 576 4672
L 3149 4672
L 3149 4134
L 2022 2938
Q 2598 2893 2931 2537
Q 3264 2182 3264 1600
L 3264 1280
Q 3264 659 2883 297
Q 2502 -64 1850 -64
z
" transform="scale(0.015625)"/>
       </defs>
       <use xlink:href="#JetBrainsMonoNFM-Regular-33"/>
       <use xlink:href="#JetBrainsMonoNFM-Regular-30" x="59.999985"/>
      </g>
     </g>
    </g>
   </g>
   <g id="matplotlib.axis_2">
    <g id="ytick_1">
     <g id="line2d_7">
      <path d="M 54 288.36
L 321.84 288.36
" clip-path="url(#pc0e51de8b7)" style="fill: none; stroke: #ffffff; stroke-width: 0.8; stroke-linecap: round"/>
     </g>
     <g id="text_7">
      <!-- 5 -->
      <g style="fill: #4c4f69" transform="translate(41 292.01) scale(0.1 -0.1)">
       <use xlink:href="#JetBrainsMonoNFM-Regular-35"/>
      </g>
     </g>
    </g>
    <g id="ytick_2">
     <g id="line2d_8">
      <path d="M 54 238.464
L 321.84 238.464
" clip-path="url(#pc0e51de8b7)" style="fill: none; stroke: #ffffff; stroke-width: 0.8; stroke-linecap: round"/>
     </g>
     <g id="text_8">
      <!-- 10 -->
      <g style="fill: #4c4f69" transform="translate(35 242.114) scale(0.1 -0.1)">
       <use xlink:href="#JetBrainsMonoNFM-Regular-31"/>
       <use xlink:href="#JetBrainsMonoNFM-Regular-30" x="59.999985"/>
      </g>
     </g>
    </g>
    <g id="ytick_3">
     <g id="line2d_9">
      <path d="M 54 188.568
L 321.84 188.568
" clip-path="url(#pc0e51de8b7)" style="fill: none; stroke: #ffffff; stroke-width: 0.8; stroke-linecap: round"/>
     </g>
     <g id="text_9">
      <!-- 15 -->
      <g style="fill: #4c4f69" transform="translate(35 192.218) scale(0.1 -0.1)">
       <use xlink:href="#JetBrainsMonoNFM-Regular-31"/>
       <use xlink:href="#JetBrainsMonoNFM-Regular-35" x="59.999985"/>
      </g>
     </g>
    </g>
    <g id="ytick_4">
     <g id="line2d_10">
      <path d="M 54 138.672
L 321.84 138.672
" clip-path="url(#pc0e51de8b7)" style="fill: none; stroke: #ffffff; stroke-width: 0.8; stroke-linecap: round"/>
     </g>
     <g id="text_10">
      <!-- 20 -->
      <g style="fill: #4c4f69" transform="translate(35 142.322) scale(0.1 -0.1)">
       <use xlink:href="#JetBrainsMonoNFM-Regular-32"/>
       <use xlink:href="#JetBrainsMonoNFM-Regular-30" x="59.999985"/>
      </g>
     </g>
    </g>
    <g id="ytick_5">
     <g id="line2d_11">
      <path d="M 54 88.776
L 321.84 88.776
" clip-path="url(#pc0e51de8b7)" style="fill: none; stroke: #ffffff; stroke-width: 0.8; stroke-linecap: round"/>
     </g>
     <g id="text_11">
      <!-- 25 -->
      <g style="fill: #4c4f69" transform="translate(35 92.426) scale(0.1 -0.1)">
       <use xlink:href="#JetBrainsMonoNFM-Regular-32"/>
       <use xlink:href="#JetBrainsMonoNFM-Regular-35" x="59.999985"/>
      </g>
     </g>
    </g>
    <g id="ytick_6">
     <g id="line2d_12">
      <path d="M 54 38.88
L 321.84 38.88
" clip-path="url(#pc0e51de8b7)" style="fill: none; stroke: #ffffff; stroke-width: 0.8; stroke-linecap: round"/>
     </g>
     <g id="text_12">
      <!-- 30 -->
      <g style="fill: #4c4f69" transform="translate(35 42.53) scale(0.1 -0.1)">
       <use xlink:href="#JetBrainsMonoNFM-Regular-33"/>
       <use xlink:href="#JetBrainsMonoNFM-Regular-30" x="59.999985"/>
      </g>
     </g>
    </g>
   </g>
   <g id="QuadMesh_1">
    <path d="M 54 288.36
L 98.64 288.36
L 98.64 246.78
L 54 246.78
L 54 288.36
" clip-path="url(#pc0e51de8b7)" style="fill: #e64553"/>
    <path d="M 98.64 288.36
L 143.28 288.36
L 143.28 246.78
L 98.64 246.78
L 98.64 288.36
" clip-path="url(#pc0e51de8b7)" style="fill: #e6cfd6"/>
    <path d="M 143.28 288.36
L 187.92 288.36
L 187.92 246.78
L 143.28 246.78
L 143.28 288.36
" clip-path="url(#pc0e51de8b7)" style="fill: #e6c4cc"/>
    <path d="M 187.92 288.36
L 232.56 288.36
L 232.56 246.78
L 187.92 246.78
L 187.92 288.36
" clip-path="url(#pc0e51de8b7)" style="fill: #86c5d3"/>
    <path d="M 232.56 288.36
L 277.2 288.36
L 277.2 246.78
L 232.56 246.78
L 232.56 288.36
" clip-path="url(#pc0e51de8b7)" style="fill: #93cad7"/>
    <path d="M 277.2 288.36
L 321.84 288.36
L 321.84 246.78
L 277.2 246.78
L 277.2 288.36
" clip-path="url(#pc0e51de8b7)" style="fill: #e69aa4"/>
    <path d="M 54 246.78
L 98.64 246.78
L 98.64 205.2
L 54 205.2
L 54 246.78
" clip-path="url(#pc0e51de8b7)" style="fill: #d3e2e9"/>
    <path d="M 98.64 246.78
L 143.28 246.78
L 143.28 205.2
L 98.64 205.2
L 98.64 246.78
" clip-path="url(#pc0e51de8b7)" style="fill: #e0e7ed"/>
    <path d="M 143.28 246.78
L 187.92 246.78
L 187.92 205.2
L 143.28 205.2
L 143.28 246.78
" clip-path="url(#pc0e51de8b7)" style="fill: #93cad7"/>
    <path d="M 187.92 246.78
L 232.56 246.78
L 232.56 205.2
L 187.92 205.2
L 187.92 246.78
" clip-path="url(#pc0e51de8b7)" style="fill: #60b7c8"/>
    <path d="M 232.56 246.78
L 277.2 246.78
L 277.2 205.2
L 232.56 205.2
L 232.56 246.78
" clip-path="url(#pc0e51de8b7)" style="fill: #86c5d3"/>
    <path d="M 277.2 246.78
L 321.84 246.78
L 321.84 205.2
L 277.2 205.2
L 277.2 246.78
" clip-path="url(#pc0e51de8b7)" style="fill: #60b7c8"/>
    <path d="M 54 205.2
L 98.64 205.2
L 98.64 163.62
L 54 163.62
L 54 205.2
" clip-path="url(#pc0e51de8b7)" style="fill: #c6dde6"/>
    <path d="M 98.64 205.2
L 143.28 205.2
L 143.28 163.62
L 98.64 163.62
L 98.64 205.2
" clip-path="url(#pc0e51de8b7)" style="fill: #60b7c8"/>
    <path d="M 143.28 205.2
L 187.92 205.2
L 187.92 163.62
L 143.28 163.62
L 143.28 205.2
" clip-path="url(#pc0e51de8b7)" style="fill: #c6dde6"/>
    <path d="M 187.92 205.2
L 232.56 205.2
L 232.56 163.62
L 187.92 163.62
L 187.92 205.2
" clip-path="url(#pc0e51de8b7)" style="fill: #c6dde6"/>
    <path d="M 232.56 205.2
L 277.2 205.2
L 277.2 163.62
L 232.56 163.62
L 232.56 205.2
" clip-path="url(#pc0e51de8b7)" style="fill: #79c0cf"/>
    <path d="M 277.2 205.2
L 321.84 205.2
L 321.84 163.62
L 277.2 163.62
L 277.2 205.2
" clip-path="url(#pc0e51de8b7)" style="fill: #60b7c8"/>
    <path d="M 54 163.62
L 98.64 163.62
L 98.64 122.04
L 54 122.04
L 54 163.62
" clip-path="url(#pc0e51de8b7)" style="fill: #86c5d3"/>
    <path d="M 98.64 163.62
L 143.28 163.62
L 143.28 122.04
L 98.64 122.04
L 98.64 163.62
" clip-path="url(#pc0e51de8b7)" style="fill: #53b2c4"/>
    <path d="M 143.28 163.62
L 187.92 163.62
L 187.92 122.04
L 143.28 122.04
L 143.28 163.62
" clip-path="url(#pc0e51de8b7)" style="fill: #209fb5"/>
    <path d="M 187.92 163.62
L 232.56 163.62
L 232.56 122.04
L 187.92 122.04
L 187.92 163.62
" clip-path="url(#pc0e51de8b7)" style="fill: #93cad7"/>
    <path d="M 232.56 163.62
L 277.2 163.62
L 277.2 122.04
L 232.56 122.04
L 232.56 163.62
" clip-path="url(#pc0e51de8b7)" style="fill: #93cad7"/>
    <path d="M 277.2 163.62
L 321.84 163.62
L 321.84 122.04
L 277.2 122.04
L 277.2 163.62
" clip-path="url(#pc0e51de8b7)" style="fill: #60b7c8"/>
    <path d="M 54 122.04
L 98.64 122.04
L 98.64 80.46
L 54 80.46
L 54 122.04
" clip-path="url(#pc0e51de8b7)" style="fill: #a0cfda"/>
    <path d="M 98.64 122.04
L 143.28 122.04
L 143.28 80.46
L 98.64 80.46
L 98.64 122.04
" clip-path="url(#pc0e51de8b7)" style="fill: #6dbccb"/>
    <path d="M 143.28 122.04
L 187.92 122.04
L 187.92 80.46
L 143.28 80.46
L 143.28 122.04
" clip-path="url(#pc0e51de8b7)" style="fill: #2da4b9"/>
    <path d="M 187.92 122.04
L 232.56 122.04
L 232.56 80.46
L 187.92 80.46
L 187.92 122.04
" clip-path="url(#pc0e51de8b7)" style="fill: #209fb5"/>
    <path d="M 232.56 122.04
L 277.2 122.04
L 277.2 80.46
L 232.56 80.46
L 232.56 122.04
" clip-path="url(#pc0e51de8b7)" style="fill: #a0cfda"/>
    <path d="M 277.2 122.04
L 321.84 122.04
L 321.84 80.46
L 277.2 80.46
L 277.2 122.04
" clip-path="url(#pc0e51de8b7)" style="fill: #53b2c4"/>
    <path d="M 54 80.46
L 98.64 80.46
L 98.64 38.88
L 54 38.88
L 54 80.46
" clip-path="url(#pc0e51de8b7)" style="fill: #60b7c8"/>
    <path d="M 98.64 80.46
L 143.28 80.46
L 143.28 38.88
L 98.64 38.88
L 98.64 80.46
" clip-path="url(#pc0e51de8b7)" style="fill: #79c0cf"/>
    <path d="M 143.28 80.46
L 187.92 80.46
L 187.92 38.88
L 143.28 38.88
L 143.28 80.46
" clip-path="url(#pc0e51de8b7)" style="fill: #60b7c8"/>
    <path d="M 187.92 80.46
L 232.56 80.46
L 232.56 38.88
L 187.92 38.88
L 187.92 80.46
" clip-path="url(#pc0e51de8b7)" style="fill: #2da4b9"/>
    <path d="M 232.56 80.46
L 277.2 80.46
L 277.2 38.88
L 232.56 38.88
L 232.56 80.46
" clip-path="url(#pc0e51de8b7)" style="fill: #2da4b9"/>
    <path d="M 277.2 80.46
L 321.84 80.46
L 321.84 38.88
L 277.2 38.88
L 277.2 80.46
" clip-path="url(#pc0e51de8b7)" style="fill: #6dbccb"/>
   </g>
   <g id="patch_3">
    <path d="M 54 288.36
L 54 38.88
" style="fill: none; stroke: #ffffff; stroke-width: 0.8; stroke-linejoin: miter; stroke-linecap: square"/>
   </g>
   <g id="patch_4">
    <path d="M 321.84 288.36
L 321.84 38.88
" style="fill: none; stroke: #ffffff; stroke-width: 0.8; stroke-linejoin: miter; stroke-linecap: square"/>
   </g>
   <g id="patch_5">
    <path d="M 54 288.36
L 321.84 288.36
" style="fill: none; stroke: #ffffff; stroke-width: 0.8; stroke-linejoin: miter; stroke-linecap: square"/>
   </g>
   <g id="patch_6">
    <path d="M 54 38.88
L 321.84 38.88
" style="fill: none; stroke: #ffffff; stroke-width: 0.8; stroke-linejoin: miter; stroke-linecap: square"/>
   </g>
  </g>
  <g id="axes_2">
   <g id="patch_7">
    <path d="M 338.58 288.36
L 351.054 288.36
L 351.054 38.88
L 338.58 38.88
z
" style="fill: #eff1f5"/>
   </g>
   <g id="matplotlib.axis_3"/>
   <g id="matplotlib.axis_4">
    <g id="ytick_7">
     <g id="line2d_13">
      <defs>
       <path id="m696cb7e503" d="M 0 0
L 3.5 0
" style="stroke: #4c4f69; stroke-width: 0.8"/>
      </defs>
      <g>
       <use xlink:href="#m696cb7e503" x="351.054" y="260.283949" style="fill: #4c4f69; stroke: #4c4f69; stroke-width: 0.8"/>
      </g>
     </g>
     <g id="text_13">
      <!-- −13.5 -->
      <g style="fill: #262626" transform="translate(358.054 263.813637) scale(0.1 -0.1)">
       <defs>
        <path id="STIXTwoText-2212" d="M 4211 1434
L 397 1434
L 397 1869
L 4211 1869
L 4211 1434
z
" transform="scale(0.015625)"/>
        <path id="STIXTwoText-31" d="M 2726 0
L 512 0
L 512 179
Q 966 179 1152 275
Q 1338 371 1338 608
L 1338 3315
Q 1338 3482 1293 3555
Q 1248 3629 1126 3629
Q 1062 3629 947 3616
Q 832 3603 704 3580
Q 576 3558 474 3526
L 474 3738
L 1715 4090
L 1901 4090
L 1901 608
Q 1901 371 2093 275
Q 2285 179 2726 179
L 2726 0
z
" transform="scale(0.015625)"/>
        <path id="STIXTwoText-33" d="M 1094 -83
Q 806 -83 652 -28
Q 499 26 438 106
Q 378 186 378 269
Q 378 371 442 460
Q 506 550 627 550
Q 723 550 828 502
Q 934 454 1049 393
Q 1165 333 1283 285
Q 1402 237 1523 237
Q 1728 237 1907 310
Q 2086 384 2201 560
Q 2317 736 2317 1050
Q 2317 1338 2157 1549
Q 1997 1760 1731 1878
Q 1466 1997 1158 1997
L 1030 1997
L 1030 2240
L 1152 2240
Q 1370 2240 1574 2349
Q 1779 2458 1910 2656
Q 2042 2854 2042 3110
Q 2042 3392 1866 3549
Q 1690 3706 1389 3706
Q 1101 3706 909 3574
Q 717 3443 550 3187
L 403 3270
Q 582 3686 876 3904
Q 1171 4122 1562 4122
Q 2054 4122 2323 3875
Q 2592 3629 2592 3264
Q 2592 2931 2397 2726
Q 2202 2522 1901 2330
L 1901 2310
Q 2157 2234 2371 2090
Q 2586 1946 2714 1738
Q 2842 1530 2842 1242
Q 2842 806 2598 508
Q 2355 211 1958 64
Q 1562 -83 1094 -83
z
" transform="scale(0.015625)"/>
        <path id="STIXTwoText-2e" d="M 774 -51
Q 582 -51 489 57
Q 397 166 397 326
Q 397 493 499 611
Q 602 730 781 730
Q 966 730 1068 608
Q 1171 486 1171 320
Q 1171 173 1068 61
Q 966 -51 774 -51
z
" transform="scale(0.015625)"/>
        <path id="STIXTwoText-35" d="M 1114 -83
Q 742 -83 560 6
Q 378 96 378 275
Q 378 384 445 467
Q 512 550 634 550
Q 730 550 822 502
Q 915 454 1014 393
Q 1114 333 1235 285
Q 1357 237 1510 237
Q 1741 237 1936 326
Q 2131 416 2249 614
Q 2368 813 2368 1146
Q 2368 1504 2227 1721
Q 2086 1939 1849 2054
Q 1613 2170 1315 2214
Q 1018 2259 698 2266
L 621 2362
L 1018 4032
L 2771 4032
L 2669 3514
L 1165 3514
L 992 2784
Q 1312 2758 1590 2704
Q 1869 2650 2096 2554
Q 2323 2458 2489 2301
Q 2656 2144 2745 1923
Q 2835 1702 2835 1402
Q 2835 1030 2710 752
Q 2586 474 2355 288
Q 2125 102 1811 9
Q 1498 -83 1114 -83
z
" transform="scale(0.015625)"/>
       </defs>
       <use xlink:href="#STIXTwoText-2212"/>
       <use xlink:href="#STIXTwoText-31" x="71.999985"/>
       <use xlink:href="#STIXTwoText-33" x="121.499969"/>
       <use xlink:href="#STIXTwoText-2e" x="170.999954"/>
       <use xlink:href="#STIXTwoText-35" x="195.499939"/>
      </g>
     </g>
    </g>
    <g id="ytick_8">
     <g id="line2d_14">
      <g>
       <use xlink:href="#m696cb7e503" x="351.054" y="212.781314" style="fill: #4c4f69; stroke: #4c4f69; stroke-width: 0.8"/>
      </g>
     </g>
     <g id="text_14">
      <!-- −13.0 -->
      <g style="fill: #262626" transform="translate(358.054 216.311002) scale(0.1 -0.1)">
       <defs>
        <path id="STIXTwoText-30" d="M 1581 -70
Q 1197 -70 928 99
Q 659 269 492 563
Q 326 858 249 1242
Q 173 1626 173 2048
Q 173 2656 336 3120
Q 499 3584 816 3846
Q 1133 4109 1594 4109
Q 2010 4109 2323 3862
Q 2637 3616 2816 3152
Q 2995 2688 2995 2029
Q 2995 1619 2915 1241
Q 2835 864 2665 569
Q 2496 275 2227 102
Q 1958 -70 1581 -70
z
M 1581 160
Q 1958 160 2166 614
Q 2374 1069 2374 1990
Q 2374 2963 2172 3427
Q 1971 3891 1574 3891
Q 1197 3891 992 3430
Q 787 2970 787 2016
Q 787 1088 992 624
Q 1197 160 1581 160
z
" transform="scale(0.015625)"/>
       </defs>
       <use xlink:href="#STIXTwoText-2212"/>
       <use xlink:href="#STIXTwoText-31" x="71.999985"/>
       <use xlink:href="#STIXTwoText-33" x="121.499969"/>
       <use xlink:href="#STIXTwoText-2e" x="170.999954"/>
       <use xlink:href="#STIXTwoText-30" x="195.499939"/>
      </g>
     </g>
    </g>
    <g id="ytick_9">
     <g id="line2d_15">
      <g>
       <use xlink:href="#m696cb7e503" x="351.054" y="165.278679" style="fill: #4c4f69; stroke: #4c4f69; stroke-width: 0.8"/>
      </g>
     </g>
     <g id="text_15">
      <!-- −12.5 -->
      <g style="fill: #262626" transform="translate(358.054 168.808367) scale(0.1 -0.1)">
       <defs>
        <path id="STIXTwoText-32" d="M 2765 0
L 243 0
L 243 218
L 1216 1190
Q 1536 1517 1747 1782
Q 1958 2048 2064 2317
Q 2170 2586 2170 2918
Q 2170 3277 1955 3491
Q 1741 3706 1370 3706
Q 1056 3706 835 3571
Q 614 3437 435 3078
L 282 3142
Q 429 3610 749 3866
Q 1069 4122 1536 4122
Q 1901 4122 2176 3984
Q 2451 3846 2608 3600
Q 2765 3354 2765 3014
Q 2765 2733 2646 2473
Q 2528 2214 2294 1939
Q 2061 1664 1722 1318
L 877 518
L 877 486
L 1325 506
L 2214 506
Q 2470 506 2572 621
Q 2675 736 2784 1024
L 2970 1024
L 2765 0
z
" transform="scale(0.015625)"/>
       </defs>
       <use xlink:href="#STIXTwoText-2212"/>
       <use xlink:href="#STIXTwoText-31" x="71.999985"/>
       <use xlink:href="#STIXTwoText-32" x="121.499969"/>
       <use xlink:href="#STIXTwoText-2e" x="170.999954"/>
       <use xlink:href="#STIXTwoText-35" x="195.499939"/>
      </g>
     </g>
    </g>
    <g id="ytick_10">
     <g id="line2d_16">
      <g>
       <use xlink:href="#m696cb7e503" x="351.054" y="117.776044" style="fill: #4c4f69; stroke: #4c4f69; stroke-width: 0.8"/>
      </g>
     </g>
     <g id="text_16">
      <!-- −12.0 -->
      <g style="fill: #262626" transform="translate(358.054 121.305732) scale(0.1 -0.1)">
       <use xlink:href="#STIXTwoText-2212"/>
       <use xlink:href="#STIXTwoText-31" x="71.999985"/>
       <use xlink:href="#STIXTwoText-32" x="121.499969"/>
       <use xlink:href="#STIXTwoText-2e" x="170.999954"/>
       <use xlink:href="#STIXTwoText-30" x="195.499939"/>
      </g>
     </g>
    </g>
    <g id="ytick_11">
     <g id="line2d_17">
      <g>
       <use xlink:href="#m696cb7e503" x="351.054" y="70.273409" style="fill: #4c4f69; stroke: #4c4f69; stroke-width: 0.8"/>
      </g>
     </g>
     <g id="text_17">
      <!-- −11.5 -->
      <g style="fill: #262626" transform="translate(358.054 73.803097) scale(0.1 -0.1)">
       <use xlink:href="#STIXTwoText-2212"/>
       <use xlink:href="#STIXTwoText-31" x="71.999985"/>
       <use xlink:href="#STIXTwoText-31" x="121.499969"/>
       <use xlink:href="#STIXTwoText-2e" x="170.999954"/>
       <use xlink:href="#STIXTwoText-35" x="195.499939"/>
      </g>
     </g>
    </g>
    <g id="text_18">
     <!-- Log Dimensionless Jerk [$m/s^3$] -->
     <g style="fill: #4c4f69" transform="translate(392.594 62.52) rotate(-270) scale(0.12 -0.12)">
      <defs>
       <path id="JetBrainsMonoNFM-Regular-4c" d="M 832 0
L 832 4672
L 1408 4672
L 1408 525
L 3520 525
L 3520 0
L 832 0
z
" transform="scale(0.015625)"/>
       <path id="JetBrainsMonoNFM-Regular-6f" d="M 1920 -51
Q 1286 -51 912 320
Q 538 691 538 1357
L 538 2163
Q 538 2835 909 3203
Q 1280 3571 1920 3571
Q 2560 3571 2931 3203
Q 3302 2835 3302 2163
L 3302 1357
Q 3302 691 2928 320
Q 2554 -51 1920 -51
z
M 1920 461
Q 2298 461 2512 672
Q 2726 883 2726 1293
L 2726 2227
Q 2726 2637 2512 2848
Q 2298 3059 1920 3059
Q 1549 3059 1331 2848
Q 1114 2637 1114 2227
L 1114 1293
Q 1114 883 1331 672
Q 1549 461 1920 461
z
" transform="scale(0.015625)"/>
       <path id="JetBrainsMonoNFM-Regular-67" d="M 1030 -1152
L 1030 -627
L 2022 -627
Q 2323 -627 2496 -457
Q 2669 -288 2669 0
L 2669 320
L 2682 896
L 2662 896
Q 2611 582 2361 412
Q 2112 243 1734 243
Q 1190 243 876 588
Q 563 934 563 1536
L 563 2278
Q 563 2880 876 3232
Q 1190 3584 1734 3584
Q 2112 3584 2361 3405
Q 2611 3226 2662 2912
L 2675 2912
L 2675 3520
L 3245 3520
L 3245 0
Q 3245 -531 2915 -841
Q 2586 -1152 2016 -1152
L 1030 -1152
z
M 1907 723
Q 2266 723 2470 947
Q 2675 1171 2675 1568
L 2675 2240
Q 2675 2637 2470 2861
Q 2266 3085 1907 3085
Q 1542 3085 1340 2873
Q 1139 2662 1139 2304
L 1139 1504
Q 1139 1146 1340 934
Q 1542 723 1907 723
z
" transform="scale(0.015625)"/>
       <path id="JetBrainsMonoNFM-Regular-20" transform="scale(0.015625)"/>
       <path id="JetBrainsMonoNFM-Regular-44" d="M 589 0
L 589 4672
L 1798 4672
Q 2253 4672 2582 4499
Q 2912 4326 3094 4012
Q 3277 3699 3277 3270
L 3277 1408
Q 3277 979 3094 662
Q 2912 346 2582 173
Q 2253 0 1798 0
L 589 0
z
M 1165 512
L 1798 512
Q 2221 512 2461 749
Q 2701 986 2701 1408
L 2701 3270
Q 2701 3686 2461 3923
Q 2221 4160 1798 4160
L 1165 4160
L 1165 512
z
" transform="scale(0.015625)"/>
       <path id="JetBrainsMonoNFM-Regular-69" d="M 544 0
L 544 525
L 1792 525
L 1792 2995
L 672 2995
L 672 3520
L 2368 3520
L 2368 525
L 3552 525
L 3552 0
L 544 0
z
M 2016 4154
Q 1805 4154 1683 4262
Q 1562 4371 1562 4557
Q 1562 4749 1683 4861
Q 1805 4973 2016 4973
Q 2227 4973 2348 4861
Q 2470 4749 2470 4557
Q 2470 4371 2348 4262
Q 2227 4154 2016 4154
z
" transform="scale(0.015625)"/>
       <path id="JetBrainsMonoNFM-Regular-6d" d="M 384 0
L 384 3520
L 883 3520
L 883 3053
L 896 3053
Q 928 3290 1085 3437
Q 1242 3584 1485 3584
Q 1715 3584 1875 3449
Q 2035 3315 2106 3085
L 2112 3085
Q 2157 3315 2313 3449
Q 2470 3584 2714 3584
Q 3053 3584 3254 3331
Q 3456 3078 3456 2675
L 3456 0
L 2918 0
L 2918 2682
Q 2918 2893 2816 3017
Q 2714 3142 2534 3142
Q 2362 3142 2259 3020
Q 2157 2899 2157 2688
L 2157 0
L 1683 0
L 1683 2682
Q 1683 2893 1580 3017
Q 1478 3142 1306 3142
Q 1126 3142 1024 3020
Q 922 2899 922 2688
L 922 0
L 384 0
z
" transform="scale(0.015625)"/>
       <path id="JetBrainsMonoNFM-Regular-65" d="M 1920 -64
Q 1299 -64 918 310
Q 538 685 538 1344
L 538 2176
Q 538 2835 918 3209
Q 1299 3584 1920 3584
Q 2336 3584 2646 3417
Q 2957 3251 3129 2950
Q 3302 2650 3302 2240
L 3302 1613
L 1101 1613
L 1101 1280
Q 1101 890 1325 662
Q 1549 435 1920 435
Q 2240 435 2448 560
Q 2656 685 2701 896
L 3277 896
Q 3219 454 2848 195
Q 2477 -64 1920 -64
z
M 1101 2061
L 2739 2061
L 2739 2240
Q 2739 2656 2524 2883
Q 2310 3110 1920 3110
Q 1530 3110 1315 2883
Q 1101 2656 1101 2240
L 1101 2061
z
" transform="scale(0.015625)"/>
       <path id="JetBrainsMonoNFM-Regular-6e" d="M 589 0
L 589 3520
L 1165 3520
L 1165 2848
L 1171 2848
Q 1216 3200 1459 3392
Q 1702 3584 2106 3584
Q 2637 3584 2950 3257
Q 3264 2931 3264 2368
L 3264 0
L 2688 0
L 2688 2266
Q 2688 2669 2486 2883
Q 2285 3098 1939 3098
Q 1581 3098 1373 2874
Q 1165 2650 1165 2240
L 1165 0
L 589 0
z
" transform="scale(0.015625)"/>
       <path id="JetBrainsMonoNFM-Regular-73" d="M 1779 -51
Q 1190 -51 867 214
Q 544 480 544 966
L 1120 966
Q 1120 723 1293 585
Q 1466 448 1779 448
L 2061 448
Q 2381 448 2557 589
Q 2733 730 2733 986
Q 2733 1440 2317 1498
L 1344 1638
Q 986 1690 787 1936
Q 589 2182 589 2586
Q 589 3046 905 3308
Q 1222 3571 1779 3571
L 2061 3571
Q 2573 3571 2896 3318
Q 3219 3066 3245 2656
L 2662 2656
Q 2650 2842 2486 2963
Q 2323 3085 2061 3085
L 1779 3085
Q 1485 3085 1318 2950
Q 1152 2816 1152 2586
Q 1152 2214 1491 2163
L 2400 2035
Q 3296 1907 3296 986
Q 3296 493 2973 221
Q 2650 -51 2061 -51
L 1779 -51
z
" transform="scale(0.015625)"/>
       <path id="JetBrainsMonoNFM-Regular-6c" d="M 2432 0
Q 1965 0 1686 272
Q 1408 544 1408 992
L 1408 4147
L 192 4147
L 192 4672
L 1984 4672
L 1984 992
Q 1984 774 2105 649
Q 2227 525 2432 525
L 3520 525
L 3520 0
L 2432 0
z
" transform="scale(0.015625)"/>
       <path id="JetBrainsMonoNFM-Regular-4a" d="M 1728 -64
Q 1056 -64 672 313
Q 288 691 288 1344
L 864 1344
Q 864 915 1091 681
Q 1318 448 1728 448
Q 2138 448 2365 681
Q 2592 915 2592 1344
L 2592 4672
L 3168 4672
L 3168 1344
Q 3168 691 2781 313
Q 2394 -64 1728 -64
z
" transform="scale(0.015625)"/>
       <path id="JetBrainsMonoNFM-Regular-72" d="M 717 0
L 717 3520
L 1293 3520
L 1293 2848
L 1306 2848
Q 1350 3187 1593 3385
Q 1837 3584 2246 3584
Q 2797 3584 3094 3254
Q 3392 2925 3392 2317
L 3392 2016
L 2816 2016
L 2816 2317
Q 2816 3085 2067 3085
Q 1690 3085 1491 2867
Q 1293 2650 1293 2240
L 1293 0
L 717 0
z
" transform="scale(0.015625)"/>
       <path id="JetBrainsMonoNFM-Regular-6b" d="M 621 0
L 621 4672
L 1197 4672
L 1197 2067
L 1869 2067
L 2854 3520
L 3514 3520
L 2381 1843
L 3578 0
L 2906 0
L 1882 1568
L 1197 1568
L 1197 0
L 621 0
z
" transform="scale(0.015625)"/>
       <path id="JetBrainsMonoNFM-Regular-5b" d="M 1312 -704
L 1312 5312
L 2880 5312
L 2880 4800
L 1888 4800
L 1888 -192
L 2880 -192
L 2880 -704
L 1312 -704
z
" transform="scale(0.015625)"/>
       <path id="STIXGeneral-Italic-6d" d="M 4506 672
L 4474 627
Q 3981 -58 3552 -58
Q 3296 -58 3296 237
Q 3296 333 3379 659
L 3750 2112
Q 3795 2291 3795 2355
Q 3795 2413 3756 2451
Q 3718 2490 3667 2490
Q 3366 2490 2829 1741
Q 2592 1408 2457 1072
Q 2323 736 2138 0
L 1658 0
L 1830 595
Q 2266 2099 2266 2330
Q 2266 2490 2125 2490
Q 1965 2490 1702 2237
Q 1440 1984 1171 1574
Q 1011 1325 899 1043
Q 787 762 557 0
L 77 0
L 352 922
Q 704 2093 704 2381
Q 704 2522 442 2522
L 282 2522
L 282 2624
L 1318 2822
L 1338 2810
L 966 1472
Q 1798 2822 2374 2822
Q 2560 2822 2659 2720
Q 2758 2618 2758 2438
Q 2758 2195 2502 1466
Q 2842 2003 3069 2275
Q 3296 2547 3526 2694
Q 3731 2822 3930 2822
Q 4102 2822 4201 2710
Q 4301 2598 4301 2419
Q 4301 2336 4282 2240
L 3846 634
Q 3782 390 3782 346
Q 3782 243 3859 243
Q 4000 243 4275 582
L 4410 749
L 4506 672
z
" transform="scale(0.015625)"/>
       <path id="STIXGeneral-Regular-2f" d="M 1837 4326
L 378 -90
L -58 -90
L 1408 4326
L 1837 4326
z
" transform="scale(0.015625)"/>
       <path id="STIXGeneral-Italic-73" d="M 2342 2829
L 2214 1933
L 2112 1933
Q 2022 2675 1542 2675
Q 1370 2675 1267 2579
Q 1165 2483 1165 2310
Q 1165 2067 1510 1658
Q 1946 1152 1946 787
Q 1946 397 1686 163
Q 1427 -70 1024 -70
Q 838 -70 672 -6
Q 538 51 390 51
Q 262 51 205 -83
L 102 -83
L 230 934
L 333 934
Q 461 64 973 64
Q 1203 64 1331 192
Q 1459 320 1459 557
Q 1459 845 1101 1293
Q 698 1798 698 2131
Q 698 2451 909 2636
Q 1120 2822 1472 2822
Q 1600 2822 1830 2758
Q 1971 2714 2061 2714
Q 2189 2714 2253 2829
L 2342 2829
z
" transform="scale(0.015625)"/>
       <path id="STIXGeneral-Regular-33" d="M 390 3264
L 288 3290
Q 435 3770 748 4048
Q 1062 4326 1542 4326
Q 1990 4326 2265 4083
Q 2541 3840 2541 3450
Q 2541 2925 1946 2566
Q 2298 2413 2477 2227
Q 2758 1914 2758 1402
Q 2758 890 2464 506
Q 2246 211 1840 60
Q 1434 -90 979 -90
Q 262 -90 262 275
Q 262 378 339 442
Q 416 506 525 506
Q 685 506 915 339
Q 1197 141 1466 141
Q 1818 141 2058 425
Q 2298 710 2298 1120
Q 2298 1856 1632 2048
Q 1434 2112 979 2112
L 979 2202
Q 1338 2323 1517 2432
Q 2035 2726 2035 3290
Q 2035 3610 1852 3776
Q 1670 3942 1344 3942
Q 768 3942 390 3264
z
" transform="scale(0.015625)"/>
       <path id="JetBrainsMonoNFM-Regular-5d" d="M 960 -704
L 960 -192
L 1952 -192
L 1952 4800
L 960 4800
L 960 5312
L 2528 5312
L 2528 -704
L 960 -704
z
" transform="scale(0.015625)"/>
      </defs>
      <use xlink:href="#JetBrainsMonoNFM-Regular-4c"/>
      <use xlink:href="#JetBrainsMonoNFM-Regular-6f" transform="translate(59.999985 0)"/>
      <use xlink:href="#JetBrainsMonoNFM-Regular-67" transform="translate(119.999969 0)"/>
      <use xlink:href="#JetBrainsMonoNFM-Regular-20" transform="translate(179.999954 0)"/>
      <use xlink:href="#JetBrainsMonoNFM-Regular-44" transform="translate(239.999939 0)"/>
      <use xlink:href="#JetBrainsMonoNFM-Regular-69" transform="translate(299.999924 0)"/>
      <use xlink:href="#JetBrainsMonoNFM-Regular-6d" transform="translate(359.999908 0)"/>
      <use xlink:href="#JetBrainsMonoNFM-Regular-65" transform="translate(419.999893 0)"/>
      <use xlink:href="#JetBrainsMonoNFM-Regular-6e" transform="translate(479.999878 0)"/>
      <use xlink:href="#JetBrainsMonoNFM-Regular-73" transform="translate(539.999863 0)"/>
      <use xlink:href="#JetBrainsMonoNFM-Regular-69" transform="translate(599.999847 0)"/>
      <use xlink:href="#JetBrainsMonoNFM-Regular-6f" transform="translate(659.999832 0)"/>
      <use xlink:href="#JetBrainsMonoNFM-Regular-6e" transform="translate(719.999817 0)"/>
      <use xlink:href="#JetBrainsMonoNFM-Regular-6c" transform="translate(779.999802 0)"/>
      <use xlink:href="#JetBrainsMonoNFM-Regular-65" transform="translate(839.999786 0)"/>
      <use xlink:href="#JetBrainsMonoNFM-Regular-73" transform="translate(899.999771 0)"/>
      <use xlink:href="#JetBrainsMonoNFM-Regular-73" transform="translate(959.999756 0)"/>
      <use xlink:href="#JetBrainsMonoNFM-Regular-20" transform="translate(1019.999741 0)"/>
      <use xlink:href="#JetBrainsMonoNFM-Regular-4a" transform="translate(1079.999725 0)"/>
      <use xlink:href="#JetBrainsMonoNFM-Regular-65" transform="translate(1139.99971 0)"/>
      <use xlink:href="#JetBrainsMonoNFM-Regular-72" transform="translate(1199.999695 0)"/>
      <use xlink:href="#JetBrainsMonoNFM-Regular-6b" transform="translate(1259.99968 0)"/>
      <use xlink:href="#JetBrainsMonoNFM-Regular-20" transform="translate(1319.999664 0)"/>
      <use xlink:href="#JetBrainsMonoNFM-Regular-5b" transform="translate(1379.999649 0)"/>
      <use xlink:href="#STIXGeneral-Italic-6d" transform="translate(1439.999634 0)"/>
      <use xlink:href="#STIXGeneral-Regular-2f" transform="translate(1512.199615 0)"/>
      <use xlink:href="#STIXGeneral-Italic-73" transform="translate(1539.999603 0)"/>
      <use xlink:href="#STIXGeneral-Regular-33" transform="translate(1585.095691 35.275) scale(0.7)"/>
      <use xlink:href="#JetBrainsMonoNFM-Regular-5d" transform="translate(1624.505055 0)"/>
     </g>
    </g>
   </g>
   <g id="QuadMesh_2">
    <path d="M 338.58 288.36
L 351.054 288.36
L 351.054 280.56375
L 338.58 280.56375
L 338.58 288.36
" clip-path="url(#pad232b6683)" style="fill: #e64553"/>
    <path d="M 338.58 280.56375
L 351.054 280.56375
L 351.054 272.7675
L 338.58 272.7675
L 338.58 280.56375
" clip-path="url(#pad232b6683)" style="fill: #e6505d"/>
    <path d="M 338.58 272.7675
L 351.054 272.7675
L 351.054 264.97125
L 338.58 264.97125
L 338.58 272.7675
" clip-path="url(#pad232b6683)" style="fill: #e65a67"/>
    <path d="M 338.58 264.97125
L 351.054 264.97125
L 351.054 257.175
L 338.58 257.175
L 338.58 264.97125
" clip-path="url(#pad232b6683)" style="fill: #e66571"/>
    <path d="M 338.58 257.175
L 351.054 257.175
L 351.054 249.37875
L 338.58 249.37875
L 338.58 257.175
" clip-path="url(#pad232b6683)" style="fill: #e66f7b"/>
    <path d="M 338.58 249.37875
L 351.054 249.37875
L 351.054 241.5825
L 338.58 241.5825
L 338.58 249.37875
" clip-path="url(#pad232b6683)" style="fill: #e67a85"/>
    <path d="M 338.58 241.5825
L 351.054 241.5825
L 351.054 233.78625
L 338.58 233.78625
L 338.58 241.5825
" clip-path="url(#pad232b6683)" style="fill: #e6848f"/>
    <path d="M 338.58 233.78625
L 351.054 233.78625
L 351.054 225.99
L 338.58 225.99
L 338.58 233.78625
" clip-path="url(#pad232b6683)" style="fill: #e68f99"/>
    <path d="M 338.58 225.99
L 351.054 225.99
L 351.054 218.19375
L 338.58 218.19375
L 338.58 225.99
" clip-path="url(#pad232b6683)" style="fill: #e69aa4"/>
    <path d="M 338.58 218.19375
L 351.054 218.19375
L 351.054 210.3975
L 338.58 210.3975
L 338.58 218.19375
" clip-path="url(#pad232b6683)" style="fill: #e6a4ae"/>
    <path d="M 338.58 210.3975
L 351.054 210.3975
L 351.054 202.60125
L 338.58 202.60125
L 338.58 210.3975
" clip-path="url(#pad232b6683)" style="fill: #e6afb8"/>
    <path d="M 338.58 202.60125
L 351.054 202.60125
L 351.054 194.805
L 338.58 194.805
L 338.58 202.60125
" clip-path="url(#pad232b6683)" style="fill: #e6b9c2"/>
    <path d="M 338.58 194.805
L 351.054 194.805
L 351.054 187.00875
L 338.58 187.00875
L 338.58 194.805
" clip-path="url(#pad232b6683)" style="fill: #e6c4cc"/>
    <path d="M 338.58 187.00875
L 351.054 187.00875
L 351.054 179.2125
L 338.58 179.2125
L 338.58 187.00875
" clip-path="url(#pad232b6683)" style="fill: #e6cfd6"/>
    <path d="M 338.58 179.2125
L 351.054 179.2125
L 351.054 171.41625
L 338.58 171.41625
L 338.58 179.2125
" clip-path="url(#pad232b6683)" style="fill: #e6d9e0"/>
    <path d="M 338.58 171.41625
L 351.054 171.41625
L 351.054 163.62
L 338.58 163.62
L 338.58 171.41625
" clip-path="url(#pad232b6683)" style="fill: #e6e4ea"/>
    <path d="M 338.58 163.62
L 351.054 163.62
L 351.054 155.82375
L 338.58 155.82375
L 338.58 163.62
" clip-path="url(#pad232b6683)" style="fill: #e0e7ed"/>
    <path d="M 338.58 155.82375
L 351.054 155.82375
L 351.054 148.0275
L 338.58 148.0275
L 338.58 155.82375
" clip-path="url(#pad232b6683)" style="fill: #d3e2e9"/>
    <path d="M 338.58 148.0275
L 351.054 148.0275
L 351.054 140.23125
L 338.58 140.23125
L 338.58 148.0275
" clip-path="url(#pad232b6683)" style="fill: #c6dde6"/>
    <path d="M 338.58 140.23125
L 351.054 140.23125
L 351.054 132.435
L 338.58 132.435
L 338.58 140.23125
" clip-path="url(#pad232b6683)" style="fill: #b9d8e2"/>
    <path d="M 338.58 132.435
L 351.054 132.435
L 351.054 124.63875
L 338.58 124.63875
L 338.58 132.435
" clip-path="url(#pad232b6683)" style="fill: #add4de"/>
    <path d="M 338.58 124.63875
L 351.054 124.63875
L 351.054 116.8425
L 338.58 116.8425
L 338.58 124.63875
" clip-path="url(#pad232b6683)" style="fill: #a0cfda"/>
    <path d="M 338.58 116.8425
L 351.054 116.8425
L 351.054 109.04625
L 338.58 109.04625
L 338.58 116.8425
" clip-path="url(#pad232b6683)" style="fill: #93cad7"/>
    <path d="M 338.58 109.04625
L 351.054 109.04625
L 351.054 101.25
L 338.58 101.25
L 338.58 109.04625
" clip-path="url(#pad232b6683)" style="fill: #86c5d3"/>
    <path d="M 338.58 101.25
L 351.054 101.25
L 351.054 93.45375
L 338.58 93.45375
L 338.58 101.25
" clip-path="url(#pad232b6683)" style="fill: #79c0cf"/>
    <path d="M 338.58 93.45375
L 351.054 93.45375
L 351.054 85.6575
L 338.58 85.6575
L 338.58 93.45375
" clip-path="url(#pad232b6683)" style="fill: #6dbccb"/>
    <path d="M 338.58 85.6575
L 351.054 85.6575
L 351.054 77.86125
L 338.58 77.86125
L 338.58 85.6575
" clip-path="url(#pad232b6683)" style="fill: #60b7c8"/>
    <path d="M 338.58 77.86125
L 351.054 77.86125
L 351.054 70.065
L 338.58 70.065
L 338.58 77.86125
" clip-path="url(#pad232b6683)" style="fill: #53b2c4"/>
    <path d="M 338.58 70.065
L 351.054 70.065
L 351.054 62.26875
L 338.58 62.26875
L 338.58 70.065
" clip-path="url(#pad232b6683)" style="fill: #46adc0"/>
    <path d="M 338.58 62.26875
L 351.054 62.26875
L 351.054 54.4725
L 338.58 54.4725
L 338.58 62.26875
" clip-path="url(#pad232b6683)" style="fill: #3aa9bc"/>
    <path d="M 338.58 54.4725
L 351.054 54.4725
L 351.054 46.67625
L 338.58 46.67625
L 338.58 54.4725
" clip-path="url(#pad232b6683)" style="fill: #2da4b9"/>
    <path d="M 338.58 46.67625
L 351.054 46.67625
L 351.054 38.88
L 338.58 38.88
L 338.58 46.67625
" clip-path="url(#pad232b6683)" style="fill: #209fb5"/>
   </g>
   <g id="LineCollection_1"/>
   <g id="patch_8">
    <path d="M 338.58 288.36
L 344.817 288.36
L 351.054 288.36
L 351.054 38.88
L 344.817 38.88
L 338.58 38.88
L 338.58 288.36
z
" style="fill: none; stroke: #ffffff; stroke-width: 0.8; stroke-linejoin: miter; stroke-linecap: square"/>
   </g>
  </g>
 </g>
 <defs>
  <clipPath id="pc0e51de8b7">
   <rect x="54" y="38.88" width="267.84" height="249.48"/>
  </clipPath>
  <clipPath id="pad232b6683">
   <rect x="338.58" y="38.88" width="12.474" height="249.48"/>
  </clipPath>
 </defs>
</svg>
