<?xml version="1.0" encoding="utf-8" standalone="no"?>
<!DOCTYPE svg PUBLIC "-//W3C//DTD SVG 1.1//EN"
  "http://www.w3.org/Graphics/SVG/1.1/DTD/svg11.dtd">
<svg xmlns:xlink="http://www.w3.org/1999/xlink" width="460.8pt" height="345.6pt" viewBox="0 0 460.8 345.6" xmlns="http://www.w3.org/2000/svg" version="1.1">
 <metadata>
  <rdf:RDF xmlns:dc="http://purl.org/dc/elements/1.1/" xmlns:cc="http://creativecommons.org/ns#" xmlns:rdf="http://www.w3.org/1999/02/22-rdf-syntax-ns#">
   <cc:Work>
    <dc:type rdf:resource="http://purl.org/dc/dcmitype/StillImage"/>
    <dc:date>1980-01-01T00:00:00+00:00</dc:date>
    <dc:format>image/svg+xml</dc:format>
    <dc:creator>
     <cc:Agent>
      <dc:title>Matplotlib v3.8.4, https://matplotlib.org/</dc:title>
     </cc:Agent>
    </dc:creator>
   </cc:Work>
  </rdf:RDF>
 </metadata>
 <defs>
  <style type="text/css">*{stroke-linejoin: round; stroke-linecap: butt}</style>
 </defs>
 <g id="figure_1">
  <g id="patch_1">
   <path d="M 0 345.6
L 460.8 345.6
L 460.8 0
L 0 0
z
" style="fill: #ffffff"/>
  </g>
  <g id="axes_1">
   <g id="patch_2">
    <path d="M 66.11712 304
L 355.71712 304
L 355.71712 14.4
L 66.11712 14.4
z
" style="fill: #eff1f5"/>
   </g>
   <g id="matplotlib.axis_1">
    <g id="text_1">
     <!-- External -->
     <g style="fill: #4c4f69" transform="translate(189.299307 332.47125) scale(0.12 -0.12)">
      <defs>
       <path id="STIXTwoText-45" d="M 3648 0
L 230 0
L 230 192
Q 493 192 624 227
Q 755 262 803 384
Q 851 506 851 755
L 851 3424
Q 851 3667 803 3795
Q 755 3923 624 3968
Q 493 4013 230 4013
L 230 4205
L 3590 4205
L 3629 3155
L 3424 3155
Q 3379 3475 3286 3638
Q 3194 3802 2986 3859
Q 2778 3917 2381 3917
L 1440 3917
L 1440 2291
L 2189 2291
Q 2483 2291 2636 2342
Q 2790 2394 2848 2534
Q 2906 2675 2906 2931
L 3110 2931
L 3110 1446
L 2906 1446
Q 2906 1709 2848 1837
Q 2790 1965 2636 2003
Q 2483 2042 2189 2042
L 1440 2042
L 1440 282
L 2266 282
Q 2637 282 2864 317
Q 3091 352 3222 448
Q 3354 544 3440 723
Q 3526 902 3622 1190
L 3827 1190
L 3648 0
z
" transform="scale(0.015625)"/>
       <path id="STIXTwoText-78" d="M 3085 0
L 1747 0
L 1747 186
Q 1914 186 1981 214
Q 2048 243 2048 326
Q 2048 390 2003 461
L 1600 1082
L 1440 1363
L 1338 1453
L 634 2458
Q 525 2618 448 2701
Q 371 2784 288 2813
Q 205 2842 70 2842
L 70 3027
L 1446 3027
L 1446 2848
Q 1139 2848 1139 2701
Q 1139 2650 1177 2579
Q 1216 2509 1289 2397
Q 1363 2285 1472 2106
L 1651 1773
L 1754 1715
L 2573 557
Q 2707 365 2806 275
Q 2906 186 3085 186
L 3085 0
z
M 1056 0
L -13 0
L -13 186
Q 154 186 262 253
Q 371 320 531 506
L 1338 1555
L 1536 1306
L 1446 1306
L 922 550
Q 877 474 822 397
Q 768 320 768 282
Q 768 230 832 208
Q 896 186 1056 186
L 1056 0
z
M 2464 2541
L 1754 1626
L 1568 1824
L 1651 1824
L 1952 2259
Q 2080 2438 2131 2528
Q 2182 2618 2182 2694
Q 2182 2765 2128 2806
Q 2074 2848 1920 2848
L 1920 3027
L 2976 3027
L 2976 2842
Q 2816 2842 2694 2762
Q 2573 2682 2464 2541
z
" transform="scale(0.015625)"/>
       <path id="STIXTwoText-74" d="M 1875 576
L 1997 474
Q 1875 301 1769 182
Q 1664 64 1536 0
Q 1408 -64 1203 -64
Q 883 -64 736 125
Q 589 314 589 742
L 589 2726
L 237 2726
L 237 2874
Q 461 3014 624 3254
Q 787 3494 960 3904
L 1120 3904
L 1120 2995
L 1843 2995
L 1843 2726
L 1120 2726
L 1120 922
Q 1120 582 1181 448
Q 1242 314 1427 314
Q 1581 314 1667 378
Q 1754 442 1875 576
z
" transform="scale(0.015625)"/>
       <path id="STIXTwoText-65" d="M 1581 -64
Q 1197 -64 886 118
Q 576 301 397 656
Q 218 1011 218 1523
Q 218 2061 400 2409
Q 582 2758 889 2931
Q 1197 3104 1568 3104
Q 2093 3104 2413 2739
Q 2733 2374 2758 1702
L 678 1702
L 672 1939
L 2157 1939
Q 2150 2176 2073 2384
Q 1997 2592 1849 2720
Q 1702 2848 1472 2848
Q 1101 2848 915 2557
Q 730 2266 730 1734
Q 730 1293 870 998
Q 1011 704 1241 560
Q 1472 416 1734 416
Q 1997 416 2160 486
Q 2323 557 2438 669
Q 2554 781 2656 915
L 2778 826
Q 2694 646 2585 483
Q 2477 320 2339 198
Q 2202 77 2016 6
Q 1830 -64 1581 -64
z
" transform="scale(0.015625)"/>
       <path id="STIXTwoText-72" d="M 1786 0
L 186 0
L 186 186
Q 397 186 496 221
Q 595 256 624 349
Q 653 442 653 621
L 653 2381
Q 653 2554 624 2640
Q 595 2726 422 2726
Q 326 2726 275 2720
Q 224 2714 224 2714
L 224 2893
L 1018 3085
L 1171 3085
L 1171 2426
L 1190 2426
Q 1357 2662 1485 2816
Q 1613 2970 1737 3046
Q 1862 3123 2016 3123
Q 2202 3123 2294 3027
Q 2387 2931 2387 2765
Q 2387 2586 2300 2502
Q 2214 2419 2106 2419
Q 2003 2419 1923 2473
Q 1843 2528 1785 2582
Q 1728 2637 1690 2637
Q 1581 2637 1440 2470
Q 1299 2304 1184 2112
L 1184 653
Q 1184 454 1235 352
Q 1286 250 1417 218
Q 1549 186 1786 186
L 1786 0
z
" transform="scale(0.015625)"/>
       <path id="STIXTwoText-6e" d="M 3552 0
L 2074 0
L 2074 179
Q 2304 179 2403 220
Q 2502 262 2524 364
Q 2547 467 2547 646
L 2547 1805
Q 2547 2189 2460 2381
Q 2374 2573 2240 2633
Q 2106 2694 1958 2694
Q 1773 2694 1625 2620
Q 1478 2547 1360 2444
Q 1242 2342 1139 2253
L 1094 2566
L 1190 2566
Q 1453 2797 1686 2950
Q 1920 3104 2221 3104
Q 2656 3104 2867 2809
Q 3078 2515 3078 1965
L 3078 646
Q 3078 467 3107 364
Q 3136 262 3238 220
Q 3341 179 3552 179
L 3552 0
z
M 1670 0
L 205 0
L 205 179
Q 422 179 515 220
Q 608 262 630 364
Q 653 467 653 646
L 653 2445
Q 653 2618 582 2672
Q 512 2726 384 2726
Q 301 2726 256 2720
Q 211 2714 211 2714
L 211 2899
L 1024 3085
L 1171 3085
L 1165 2496
L 1184 2362
L 1184 646
Q 1184 467 1209 364
Q 1235 262 1337 220
Q 1440 179 1670 179
L 1670 0
z
" transform="scale(0.015625)"/>
       <path id="STIXTwoText-61" d="M 1005 -45
Q 634 -45 438 160
Q 243 365 243 672
Q 243 928 361 1104
Q 480 1280 675 1401
Q 870 1523 1097 1606
Q 1325 1690 1542 1747
Q 1760 1805 1926 1856
L 1926 2138
Q 1926 2554 1782 2730
Q 1638 2906 1350 2906
Q 1075 2906 998 2790
Q 922 2675 922 2387
Q 922 2240 848 2166
Q 774 2093 640 2093
Q 544 2093 457 2166
Q 371 2240 371 2400
Q 371 2579 508 2739
Q 646 2899 899 3001
Q 1152 3104 1498 3104
Q 2022 3104 2240 2861
Q 2458 2618 2458 2118
L 2458 666
Q 2458 467 2502 409
Q 2547 352 2650 352
Q 2739 352 2812 397
Q 2886 442 2950 512
L 3046 410
Q 2886 179 2742 73
Q 2598 -32 2355 -32
Q 2131 -32 2064 96
Q 1997 224 1965 461
L 1926 538
L 1926 1645
Q 1638 1574 1382 1478
Q 1126 1382 966 1228
Q 806 1075 806 826
Q 806 589 934 448
Q 1062 307 1267 307
Q 1434 307 1616 390
Q 1798 474 1971 627
L 2022 397
L 1946 397
Q 1798 269 1660 166
Q 1523 64 1366 9
Q 1210 -45 1005 -45
z
" transform="scale(0.015625)"/>
       <path id="STIXTwoText-6c" d="M 1664 0
L 192 0
L 192 186
Q 403 186 499 227
Q 595 269 617 368
Q 640 467 640 646
L 640 3859
Q 640 4058 566 4096
Q 493 4134 371 4134
Q 288 4134 227 4128
Q 166 4122 166 4122
L 166 4294
L 1011 4518
L 1171 4518
L 1171 646
Q 1171 461 1200 361
Q 1229 262 1331 224
Q 1434 186 1664 186
L 1664 0
z
" transform="scale(0.015625)"/>
      </defs>
      <use xlink:href="#STIXTwoText-45"/>
      <use xlink:href="#STIXTwoText-78" x="62.599991"/>
      <use xlink:href="#STIXTwoText-74" x="110.499985"/>
      <use xlink:href="#STIXTwoText-65" x="141.999969"/>
      <use xlink:href="#STIXTwoText-72" x="188.399963"/>
      <use xlink:href="#STIXTwoText-6e" x="226.399948"/>
      <use xlink:href="#STIXTwoText-61" x="283.999939"/>
      <use xlink:href="#STIXTwoText-6c" x="331.999924"/>
     </g>
    </g>
   </g>
   <g id="matplotlib.axis_2">
    <g id="text_2">
     <!-- Internal -->
     <g style="fill: #4c4f69" transform="translate(43.47712 179.785625) rotate(-90) scale(0.12 -0.12)">
      <defs>
       <path id="STIXTwoText-49" d="M 2061 0
L 218 0
L 218 192
Q 506 192 640 240
Q 774 288 812 425
Q 851 563 851 838
L 851 3360
Q 851 3610 819 3754
Q 787 3898 656 3955
Q 525 4013 218 4013
L 218 4205
L 2061 4205
L 2061 4013
Q 1760 4013 1625 3955
Q 1491 3898 1462 3754
Q 1434 3610 1434 3360
L 1434 838
Q 1434 563 1472 425
Q 1510 288 1644 240
Q 1779 192 2061 192
L 2061 0
z
" transform="scale(0.015625)"/>
      </defs>
      <use xlink:href="#STIXTwoText-49"/>
      <use xlink:href="#STIXTwoText-6e" x="35.699997"/>
      <use xlink:href="#STIXTwoText-74" x="93.299988"/>
      <use xlink:href="#STIXTwoText-65" x="124.799973"/>
      <use xlink:href="#STIXTwoText-72" x="171.199966"/>
      <use xlink:href="#STIXTwoText-6e" x="209.199951"/>
      <use xlink:href="#STIXTwoText-61" x="266.799942"/>
      <use xlink:href="#STIXTwoText-6c" x="314.799927"/>
     </g>
    </g>
   </g>
   <g id="QuadMesh_1">
    <path d="M 66.11712 304
L 102.31712 304
L 102.31712 267.8
L 66.11712 267.8
L 66.11712 304
" clip-path="url(#p6efbffe62e)" style="fill: #fe640b"/>
    <path d="M 102.31712 304
L 138.51712 304
L 138.51712 267.8
L 102.31712 267.8
L 102.31712 304
" clip-path="url(#p6efbffe62e)" style="fill: #afbaf6"/>
    <path d="M 138.51712 304
L 174.71712 304
L 174.71712 267.8
L 138.51712 267.8
L 138.51712 304
" clip-path="url(#p6efbffe62e)" style="fill: #afbaf6"/>
    <path d="M 174.71712 304
L 210.91712 304
L 210.91712 267.8
L 174.71712 267.8
L 174.71712 304
" clip-path="url(#p6efbffe62e)" style="fill: #7287fd"/>
    <path d="M 210.91712 304
L 247.11712 304
L 247.11712 267.8
L 210.91712 267.8
L 210.91712 304
" clip-path="url(#p6efbffe62e)" style="fill: #afbaf6"/>
    <path d="M 247.11712 304
L 283.31712 304
L 283.31712 267.8
L 247.11712 267.8
L 247.11712 304
" clip-path="url(#p6efbffe62e)" style="fill: #7287fd"/>
    <path d="M 283.31712 304
L 319.51712 304
L 319.51712 267.8
L 283.31712 267.8
L 283.31712 304
" clip-path="url(#p6efbffe62e)" style="fill: #7287fd"/>
    <path d="M 319.51712 304
L 355.71712 304
L 355.71712 267.8
L 319.51712 267.8
L 319.51712 304
" clip-path="url(#p6efbffe62e)" style="fill: #afbaf6"/>
    <path d="M 66.11712 267.8
L 102.31712 267.8
L 102.31712 231.6
L 66.11712 231.6
L 66.11712 267.8
" clip-path="url(#p6efbffe62e)" style="fill: #a4b2f7"/>
    <path d="M 102.31712 267.8
L 138.51712 267.8
L 138.51712 231.6
L 102.31712 231.6
L 102.31712 267.8
" clip-path="url(#p6efbffe62e)" style="fill: #7c90fc"/>
    <path d="M 138.51712 267.8
L 174.71712 267.8
L 174.71712 231.6
L 138.51712 231.6
L 138.51712 267.8
" clip-path="url(#p6efbffe62e)" style="fill: #7c90fc"/>
    <path d="M 174.71712 267.8
L 210.91712 267.8
L 210.91712 231.6
L 174.71712 231.6
L 174.71712 267.8
" clip-path="url(#p6efbffe62e)" style="fill: #7287fd"/>
    <path d="M 210.91712 267.8
L 247.11712 267.8
L 247.11712 231.6
L 210.91712 231.6
L 210.91712 267.8
" clip-path="url(#p6efbffe62e)" style="fill: #7c90fc"/>
    <path d="M 247.11712 267.8
L 283.31712 267.8
L 283.31712 231.6
L 247.11712 231.6
L 247.11712 267.8
" clip-path="url(#p6efbffe62e)" style="fill: #7287fd"/>
    <path d="M 283.31712 267.8
L 319.51712 267.8
L 319.51712 231.6
L 283.31712 231.6
L 283.31712 267.8
" clip-path="url(#p6efbffe62e)" style="fill: #7287fd"/>
    <path d="M 319.51712 267.8
L 355.71712 267.8
L 355.71712 231.6
L 319.51712 231.6
L 319.51712 267.8
" clip-path="url(#p6efbffe62e)" style="fill: #7c90fc"/>
    <path d="M 66.11712 231.6
L 102.31712 231.6
L 102.31712 195.4
L 66.11712 195.4
L 66.11712 231.6
" clip-path="url(#p6efbffe62e)" style="fill: #a4b2f7"/>
    <path d="M 102.31712 231.6
L 138.51712 231.6
L 138.51712 195.4
L 102.31712 195.4
L 102.31712 231.6
" clip-path="url(#p6efbffe62e)" style="fill: #7c90fc"/>
    <path d="M 138.51712 231.6
L 174.71712 231.6
L 174.71712 195.4
L 138.51712 195.4
L 138.51712 231.6
" clip-path="url(#p6efbffe62e)" style="fill: #7c90fc"/>
    <path d="M 174.71712 231.6
L 210.91712 231.6
L 210.91712 195.4
L 174.71712 195.4
L 174.71712 231.6
" clip-path="url(#p6efbffe62e)" style="fill: #7287fd"/>
    <path d="M 210.91712 231.6
L 247.11712 231.6
L 247.11712 195.4
L 210.91712 195.4
L 210.91712 231.6
" clip-path="url(#p6efbffe62e)" style="fill: #7c90fc"/>
    <path d="M 247.11712 231.6
L 283.31712 231.6
L 283.31712 195.4
L 247.11712 195.4
L 247.11712 231.6
" clip-path="url(#p6efbffe62e)" style="fill: #7287fd"/>
    <path d="M 283.31712 231.6
L 319.51712 231.6
L 319.51712 195.4
L 283.31712 195.4
L 283.31712 231.6
" clip-path="url(#p6efbffe62e)" style="fill: #7287fd"/>
    <path d="M 319.51712 231.6
L 355.71712 231.6
L 355.71712 195.4
L 319.51712 195.4
L 319.51712 231.6
" clip-path="url(#p6efbffe62e)" style="fill: #7c90fc"/>
    <path d="M 66.11712 195.4
L 102.31712 195.4
L 102.31712 159.2
L 66.11712 159.2
L 66.11712 195.4
" clip-path="url(#p6efbffe62e)" style="fill: #7287fd"/>
    <path d="M 102.31712 195.4
L 138.51712 195.4
L 138.51712 159.2
L 102.31712 159.2
L 102.31712 195.4
" clip-path="url(#p6efbffe62e)" style="fill: #7287fd"/>
    <path d="M 138.51712 195.4
L 174.71712 195.4
L 174.71712 159.2
L 138.51712 159.2
L 138.51712 195.4
" clip-path="url(#p6efbffe62e)" style="fill: #7287fd"/>
    <path d="M 174.71712 195.4
L 210.91712 195.4
L 210.91712 159.2
L 174.71712 159.2
L 174.71712 195.4
" clip-path="url(#p6efbffe62e)" style="fill: #7287fd"/>
    <path d="M 210.91712 195.4
L 247.11712 195.4
L 247.11712 159.2
L 210.91712 159.2
L 210.91712 195.4
" clip-path="url(#p6efbffe62e)" style="fill: #7287fd"/>
    <path d="M 247.11712 195.4
L 283.31712 195.4
L 283.31712 159.2
L 247.11712 159.2
L 247.11712 195.4
" clip-path="url(#p6efbffe62e)" style="fill: #7287fd"/>
    <path d="M 283.31712 195.4
L 319.51712 195.4
L 319.51712 159.2
L 283.31712 159.2
L 283.31712 195.4
" clip-path="url(#p6efbffe62e)" style="fill: #7287fd"/>
    <path d="M 319.51712 195.4
L 355.71712 195.4
L 355.71712 159.2
L 319.51712 159.2
L 319.51712 195.4
" clip-path="url(#p6efbffe62e)" style="fill: #7287fd"/>
    <path d="M 66.11712 159.2
L 102.31712 159.2
L 102.31712 123
L 66.11712 123
L 66.11712 159.2
" clip-path="url(#p6efbffe62e)" style="fill: #a4b2f7"/>
    <path d="M 102.31712 159.2
L 138.51712 159.2
L 138.51712 123
L 102.31712 123
L 102.31712 159.2
" clip-path="url(#p6efbffe62e)" style="fill: #7c90fc"/>
    <path d="M 138.51712 159.2
L 174.71712 159.2
L 174.71712 123
L 138.51712 123
L 138.51712 159.2
" clip-path="url(#p6efbffe62e)" style="fill: #7c90fc"/>
    <path d="M 174.71712 159.2
L 210.91712 159.2
L 210.91712 123
L 174.71712 123
L 174.71712 159.2
" clip-path="url(#p6efbffe62e)" style="fill: #7287fd"/>
    <path d="M 210.91712 159.2
L 247.11712 159.2
L 247.11712 123
L 210.91712 123
L 210.91712 159.2
" clip-path="url(#p6efbffe62e)" style="fill: #7c90fc"/>
    <path d="M 247.11712 159.2
L 283.31712 159.2
L 283.31712 123
L 247.11712 123
L 247.11712 159.2
" clip-path="url(#p6efbffe62e)" style="fill: #7287fd"/>
    <path d="M 283.31712 159.2
L 319.51712 159.2
L 319.51712 123
L 283.31712 123
L 283.31712 159.2
" clip-path="url(#p6efbffe62e)" style="fill: #7287fd"/>
    <path d="M 319.51712 159.2
L 355.71712 159.2
L 355.71712 123
L 319.51712 123
L 319.51712 159.2
" clip-path="url(#p6efbffe62e)" style="fill: #7c90fc"/>
    <path d="M 66.11712 123
L 102.31712 123
L 102.31712 86.8
L 66.11712 86.8
L 66.11712 123
" clip-path="url(#p6efbffe62e)" style="fill: #7287fd"/>
    <path d="M 102.31712 123
L 138.51712 123
L 138.51712 86.8
L 102.31712 86.8
L 102.31712 123
" clip-path="url(#p6efbffe62e)" style="fill: #7287fd"/>
    <path d="M 138.51712 123
L 174.71712 123
L 174.71712 86.8
L 138.51712 86.8
L 138.51712 123
" clip-path="url(#p6efbffe62e)" style="fill: #7287fd"/>
    <path d="M 174.71712 123
L 210.91712 123
L 210.91712 86.8
L 174.71712 86.8
L 174.71712 123
" clip-path="url(#p6efbffe62e)" style="fill: #7287fd"/>
    <path d="M 210.91712 123
L 247.11712 123
L 247.11712 86.8
L 210.91712 86.8
L 210.91712 123
" clip-path="url(#p6efbffe62e)" style="fill: #7287fd"/>
    <path d="M 247.11712 123
L 283.31712 123
L 283.31712 86.8
L 247.11712 86.8
L 247.11712 123
" clip-path="url(#p6efbffe62e)" style="fill: #7287fd"/>
    <path d="M 283.31712 123
L 319.51712 123
L 319.51712 86.8
L 283.31712 86.8
L 283.31712 123
" clip-path="url(#p6efbffe62e)" style="fill: #7287fd"/>
    <path d="M 319.51712 123
L 355.71712 123
L 355.71712 86.8
L 319.51712 86.8
L 319.51712 123
" clip-path="url(#p6efbffe62e)" style="fill: #7287fd"/>
    <path d="M 66.11712 86.8
L 102.31712 86.8
L 102.31712 50.6
L 66.11712 50.6
L 66.11712 86.8
" clip-path="url(#p6efbffe62e)" style="fill: #7287fd"/>
    <path d="M 102.31712 86.8
L 138.51712 86.8
L 138.51712 50.6
L 102.31712 50.6
L 102.31712 86.8
" clip-path="url(#p6efbffe62e)" style="fill: #7287fd"/>
    <path d="M 138.51712 86.8
L 174.71712 86.8
L 174.71712 50.6
L 138.51712 50.6
L 138.51712 86.8
" clip-path="url(#p6efbffe62e)" style="fill: #7287fd"/>
    <path d="M 174.71712 86.8
L 210.91712 86.8
L 210.91712 50.6
L 174.71712 50.6
L 174.71712 86.8
" clip-path="url(#p6efbffe62e)" style="fill: #7287fd"/>
    <path d="M 210.91712 86.8
L 247.11712 86.8
L 247.11712 50.6
L 210.91712 50.6
L 210.91712 86.8
" clip-path="url(#p6efbffe62e)" style="fill: #7287fd"/>
    <path d="M 247.11712 86.8
L 283.31712 86.8
L 283.31712 50.6
L 247.11712 50.6
L 247.11712 86.8
" clip-path="url(#p6efbffe62e)" style="fill: #7287fd"/>
    <path d="M 283.31712 86.8
L 319.51712 86.8
L 319.51712 50.6
L 283.31712 50.6
L 283.31712 86.8
" clip-path="url(#p6efbffe62e)" style="fill: #7287fd"/>
    <path d="M 319.51712 86.8
L 355.71712 86.8
L 355.71712 50.6
L 319.51712 50.6
L 319.51712 86.8
" clip-path="url(#p6efbffe62e)" style="fill: #7287fd"/>
    <path d="M 66.11712 50.6
L 102.31712 50.6
L 102.31712 14.4
L 66.11712 14.4
L 66.11712 50.6
" clip-path="url(#p6efbffe62e)" style="fill: #a4b2f7"/>
    <path d="M 102.31712 50.6
L 138.51712 50.6
L 138.51712 14.4
L 102.31712 14.4
L 102.31712 50.6
" clip-path="url(#p6efbffe62e)" style="fill: #7c90fc"/>
    <path d="M 138.51712 50.6
L 174.71712 50.6
L 174.71712 14.4
L 138.51712 14.4
L 138.51712 50.6
" clip-path="url(#p6efbffe62e)" style="fill: #7c90fc"/>
    <path d="M 174.71712 50.6
L 210.91712 50.6
L 210.91712 14.4
L 174.71712 14.4
L 174.71712 50.6
" clip-path="url(#p6efbffe62e)" style="fill: #7287fd"/>
    <path d="M 210.91712 50.6
L 247.11712 50.6
L 247.11712 14.4
L 210.91712 14.4
L 210.91712 50.6
" clip-path="url(#p6efbffe62e)" style="fill: #7c90fc"/>
    <path d="M 247.11712 50.6
L 283.31712 50.6
L 283.31712 14.4
L 247.11712 14.4
L 247.11712 50.6
" clip-path="url(#p6efbffe62e)" style="fill: #7287fd"/>
    <path d="M 283.31712 50.6
L 319.51712 50.6
L 319.51712 14.4
L 283.31712 14.4
L 283.31712 50.6
" clip-path="url(#p6efbffe62e)" style="fill: #7287fd"/>
    <path d="M 319.51712 50.6
L 355.71712 50.6
L 355.71712 14.4
L 319.51712 14.4
L 319.51712 50.6
" clip-path="url(#p6efbffe62e)" style="fill: #7c90fc"/>
   </g>
   <g id="patch_3">
    <path d="M 66.11712 304
L 66.11712 14.4
" style="fill: none; stroke: #ffffff; stroke-width: 0.8; stroke-linejoin: miter; stroke-linecap: square"/>
   </g>
   <g id="patch_4">
    <path d="M 355.71712 304
L 355.71712 14.4
" style="fill: none; stroke: #ffffff; stroke-width: 0.8; stroke-linejoin: miter; stroke-linecap: square"/>
   </g>
   <g id="patch_5">
    <path d="M 66.11712 304
L 355.71712 304
" style="fill: none; stroke: #ffffff; stroke-width: 0.8; stroke-linejoin: miter; stroke-linecap: square"/>
   </g>
   <g id="patch_6">
    <path d="M 66.11712 14.4
L 355.71712 14.4
" style="fill: none; stroke: #ffffff; stroke-width: 0.8; stroke-linejoin: miter; stroke-linecap: square"/>
   </g>
   <g id="text_3">
    <!-- 1 -->
    <g style="fill: #4c4f69" transform="translate(78.313484 320.463636) scale(0.12 -0.12)">
     <defs>
      <path id="JetBrainsMonoNFM-Regular-31" d="M 576 0
L 576 525
L 1843 525
L 1843 4173
L 576 3226
L 576 3885
L 1632 4672
L 2419 4672
L 2419 525
L 3456 525
L 3456 0
L 576 0
z
" transform="scale(0.015625)"/>
     </defs>
     <use xlink:href="#JetBrainsMonoNFM-Regular-31"/>
    </g>
   </g>
   <g id="text_4">
    <!-- 2 -->
    <g style="fill: #4c4f69" transform="translate(114.732878 320.463636) scale(0.12 -0.12)">
     <defs>
      <path id="JetBrainsMonoNFM-Regular-32" d="M 550 0
L 550 531
L 2106 2195
Q 2445 2554 2585 2835
Q 2726 3117 2726 3386
Q 2726 3770 2505 3997
Q 2285 4224 1907 4224
Q 1517 4224 1289 3990
Q 1062 3757 1062 3360
L 486 3360
Q 506 3994 890 4365
Q 1274 4736 1907 4736
Q 2554 4736 2934 4371
Q 3315 4006 3315 3379
Q 3315 3046 3132 2675
Q 2950 2304 2509 1843
L 1248 525
L 3373 525
L 3373 0
L 550 0
z
" transform="scale(0.015625)"/>
     </defs>
     <use xlink:href="#JetBrainsMonoNFM-Regular-32"/>
    </g>
   </g>
   <g id="text_5">
    <!-- 3 -->
    <g style="fill: #4c4f69" transform="translate(151.152272 320.463636) scale(0.12 -0.12)">
     <defs>
      <path id="JetBrainsMonoNFM-Regular-33" d="M 1850 -64
Q 1203 -64 825 297
Q 448 659 448 1280
L 1024 1280
Q 1024 896 1248 672
Q 1472 448 1856 448
Q 2240 448 2464 672
Q 2688 896 2688 1280
L 2688 1600
Q 2688 1984 2464 2208
Q 2240 2432 1856 2432
L 1350 2432
L 1350 2931
L 2496 4147
L 576 4147
L 576 4672
L 3149 4672
L 3149 4134
L 2022 2938
Q 2598 2893 2931 2537
Q 3264 2182 3264 1600
L 3264 1280
Q 3264 659 2883 297
Q 2502 -64 1850 -64
z
" transform="scale(0.015625)"/>
     </defs>
     <use xlink:href="#JetBrainsMonoNFM-Regular-33"/>
    </g>
   </g>
   <g id="text_6">
    <!-- 5 -->
    <g style="fill: #4c4f69" transform="translate(187.571665 320.463636) scale(0.12 -0.12)">
     <defs>
      <path id="JetBrainsMonoNFM-Regular-35" d="M 1882 -64
Q 1235 -64 857 297
Q 480 659 480 1280
L 1056 1280
Q 1056 896 1280 672
Q 1504 448 1888 448
Q 2272 448 2496 672
Q 2720 896 2720 1280
L 2720 1568
Q 2720 1952 2502 2176
Q 2285 2400 1914 2400
L 640 2400
L 640 4672
L 3130 4672
L 3130 4147
L 1178 4147
L 1190 2925
L 1946 2925
Q 2592 2925 2944 2569
Q 3296 2214 3296 1568
L 3296 1280
Q 3296 659 2915 297
Q 2534 -64 1882 -64
z
" transform="scale(0.015625)"/>
     </defs>
     <use xlink:href="#JetBrainsMonoNFM-Regular-35"/>
    </g>
   </g>
   <g id="text_7">
    <!-- 8 -->
    <g style="fill: #4c4f69" transform="translate(223.991059 320.463636) scale(0.12 -0.12)">
     <defs>
      <path id="JetBrainsMonoNFM-Regular-38" d="M 1920 -64
Q 1478 -64 1139 109
Q 800 282 611 592
Q 422 902 422 1306
Q 422 1747 675 2067
Q 928 2387 1350 2458
L 1350 2477
Q 986 2560 768 2845
Q 550 3130 550 3501
Q 550 3866 723 4144
Q 896 4422 1206 4579
Q 1517 4736 1920 4736
Q 2330 4736 2637 4579
Q 2944 4422 3117 4144
Q 3290 3866 3290 3501
Q 3290 3130 3072 2845
Q 2854 2560 2490 2477
L 2490 2458
Q 2912 2387 3165 2067
Q 3418 1747 3418 1306
Q 3418 902 3229 592
Q 3040 282 2704 109
Q 2368 -64 1920 -64
z
M 1920 2701
Q 2278 2701 2496 2912
Q 2714 3123 2714 3462
Q 2714 3802 2496 4013
Q 2278 4224 1920 4224
Q 1568 4224 1347 4013
Q 1126 3802 1126 3462
Q 1126 3123 1347 2912
Q 1568 2701 1920 2701
z
M 1920 454
Q 2330 454 2586 694
Q 2842 934 2842 1318
Q 2842 1709 2586 1949
Q 2330 2189 1920 2189
Q 1510 2189 1254 1949
Q 998 1709 998 1318
Q 998 934 1254 694
Q 1510 454 1920 454
z
" transform="scale(0.015625)"/>
     </defs>
     <use xlink:href="#JetBrainsMonoNFM-Regular-38"/>
    </g>
   </g>
   <g id="text_8">
    <!-- 13 -->
    <g style="fill: #4c4f69" transform="translate(256.810453 320.463636) scale(0.12 -0.12)">
     <use xlink:href="#JetBrainsMonoNFM-Regular-31"/>
     <use xlink:href="#JetBrainsMonoNFM-Regular-33" x="59.999985"/>
    </g>
   </g>
   <g id="text_9">
    <!-- 21 -->
    <g style="fill: #4c4f69" transform="translate(293.229847 320.463636) scale(0.12 -0.12)">
     <use xlink:href="#JetBrainsMonoNFM-Regular-32"/>
     <use xlink:href="#JetBrainsMonoNFM-Regular-31" x="59.999985"/>
    </g>
   </g>
   <g id="text_10">
    <!-- 34 -->
    <g style="fill: #4c4f69" transform="translate(329.649241 320.463636) scale(0.12 -0.12)">
     <defs>
      <path id="JetBrainsMonoNFM-Regular-34" d="M 2560 0
L 2560 1024
L 448 1024
L 448 1926
L 2150 4672
L 2803 4672
L 1024 1798
L 1024 1549
L 2560 1549
L 2560 2688
L 3136 2688
L 3136 0
L 2560 0
z
" transform="scale(0.015625)"/>
     </defs>
     <use xlink:href="#JetBrainsMonoNFM-Regular-33"/>
     <use xlink:href="#JetBrainsMonoNFM-Regular-34" x="59.999985"/>
    </g>
   </g>
   <g id="text_11">
    <!-- 1 -->
    <g style="fill: #4c4f69" transform="translate(53.741362 291.503636) scale(0.12 -0.12)">
     <use xlink:href="#JetBrainsMonoNFM-Regular-31"/>
    </g>
   </g>
   <g id="text_12">
    <!-- 2 -->
    <g style="fill: #4c4f69" transform="translate(53.741362 255.084242) scale(0.12 -0.12)">
     <use xlink:href="#JetBrainsMonoNFM-Regular-32"/>
    </g>
   </g>
   <g id="text_13">
    <!-- 3 -->
    <g style="fill: #4c4f69" transform="translate(53.741362 218.664848) scale(0.12 -0.12)">
     <use xlink:href="#JetBrainsMonoNFM-Regular-33"/>
    </g>
   </g>
   <g id="text_14">
    <!-- 5 -->
    <g style="fill: #4c4f69" transform="translate(53.741362 182.245455) scale(0.12 -0.12)">
     <use xlink:href="#JetBrainsMonoNFM-Regular-35"/>
    </g>
   </g>
   <g id="text_15">
    <!-- 8 -->
    <g style="fill: #4c4f69" transform="translate(53.741362 145.826061) scale(0.12 -0.12)">
     <use xlink:href="#JetBrainsMonoNFM-Regular-38"/>
    </g>
   </g>
   <g id="text_16">
    <!-- 13 -->
    <g style="fill: #4c4f69" transform="translate(50.141362 109.406667) scale(0.12 -0.12)">
     <use xlink:href="#JetBrainsMonoNFM-Regular-31"/>
     <use xlink:href="#JetBrainsMonoNFM-Regular-33" x="59.999985"/>
    </g>
   </g>
   <g id="text_17">
    <!-- 21 -->
    <g style="fill: #4c4f69" transform="translate(50.141362 72.987273) scale(0.12 -0.12)">
     <use xlink:href="#JetBrainsMonoNFM-Regular-32"/>
     <use xlink:href="#JetBrainsMonoNFM-Regular-31" x="59.999985"/>
    </g>
   </g>
   <g id="text_18">
    <!-- 34 -->
    <g style="fill: #4c4f69" transform="translate(50.141362 36.567879) scale(0.12 -0.12)">
     <use xlink:href="#JetBrainsMonoNFM-Regular-33"/>
     <use xlink:href="#JetBrainsMonoNFM-Regular-34" x="59.999985"/>
    </g>
   </g>
  </g>
  <g id="axes_2">
   <g id="patch_7">
    <path d="M 376.57344 304
L 391.05344 304
L 391.05344 14.4
L 376.57344 14.4
z
" style="fill: #eff1f5"/>
   </g>
   <g id="matplotlib.axis_3"/>
   <g id="matplotlib.axis_4">
    <g id="ytick_1">
     <g id="line2d_1">
      <defs>
       <path id="m05769a0f26" d="M 0 0
L 3.5 0
" style="stroke: #4c4f69; stroke-width: 0.8"/>
      </defs>
      <g>
       <use xlink:href="#m05769a0f26" x="391.05344" y="249.546445" style="fill: #4c4f69; stroke: #4c4f69; stroke-width: 0.8"/>
      </g>
     </g>
     <g id="text_19">
      <!-- −200 -->
      <g style="fill: #4c4f69" transform="translate(398.05344 253.196445) scale(0.1 -0.1)">
       <defs>
        <path id="JetBrainsMonoNFM-Regular-2212" d="M 896 1856
L 896 2368
L 2944 2368
L 2944 1856
L 896 1856
z
" transform="scale(0.015625)"/>
        <path id="JetBrainsMonoNFM-Regular-30" d="M 1920 -64
Q 1274 -64 893 310
Q 512 685 512 1312
L 512 3360
Q 512 3987 893 4361
Q 1274 4736 1920 4736
Q 2566 4736 2947 4361
Q 3328 3987 3328 3360
L 3328 1312
Q 3328 896 3155 585
Q 2982 275 2665 105
Q 2349 -64 1920 -64
z
M 1920 429
Q 2304 429 2537 675
Q 2771 922 2771 1312
L 2771 3360
Q 2771 3750 2537 3996
Q 2304 4243 1920 4243
Q 1536 4243 1302 3996
Q 1069 3750 1069 3360
L 1069 1312
Q 1069 922 1302 675
Q 1536 429 1920 429
z
M 1920 1984
Q 1747 1984 1641 2080
Q 1536 2176 1536 2355
Q 1536 2528 1641 2621
Q 1747 2714 1920 2714
Q 2093 2714 2198 2621
Q 2304 2528 2304 2355
Q 2304 2176 2198 2080
Q 2093 1984 1920 1984
z
" transform="scale(0.015625)"/>
       </defs>
       <use xlink:href="#JetBrainsMonoNFM-Regular-2212"/>
       <use xlink:href="#JetBrainsMonoNFM-Regular-32" x="59.999985"/>
       <use xlink:href="#JetBrainsMonoNFM-Regular-30" x="119.999969"/>
       <use xlink:href="#JetBrainsMonoNFM-Regular-30" x="179.999954"/>
      </g>
     </g>
    </g>
    <g id="ytick_2">
     <g id="line2d_2">
      <g>
       <use xlink:href="#m05769a0f26" x="391.05344" y="190.759834" style="fill: #4c4f69; stroke: #4c4f69; stroke-width: 0.8"/>
      </g>
     </g>
     <g id="text_20">
      <!-- −150 -->
      <g style="fill: #4c4f69" transform="translate(398.05344 194.409834) scale(0.1 -0.1)">
       <use xlink:href="#JetBrainsMonoNFM-Regular-2212"/>
       <use xlink:href="#JetBrainsMonoNFM-Regular-31" x="59.999985"/>
       <use xlink:href="#JetBrainsMonoNFM-Regular-35" x="119.999969"/>
       <use xlink:href="#JetBrainsMonoNFM-Regular-30" x="179.999954"/>
      </g>
     </g>
    </g>
    <g id="ytick_3">
     <g id="line2d_3">
      <g>
       <use xlink:href="#m05769a0f26" x="391.05344" y="131.973222" style="fill: #4c4f69; stroke: #4c4f69; stroke-width: 0.8"/>
      </g>
     </g>
     <g id="text_21">
      <!-- −100 -->
      <g style="fill: #4c4f69" transform="translate(398.05344 135.623222) scale(0.1 -0.1)">
       <use xlink:href="#JetBrainsMonoNFM-Regular-2212"/>
       <use xlink:href="#JetBrainsMonoNFM-Regular-31" x="59.999985"/>
       <use xlink:href="#JetBrainsMonoNFM-Regular-30" x="119.999969"/>
       <use xlink:href="#JetBrainsMonoNFM-Regular-30" x="179.999954"/>
      </g>
     </g>
    </g>
    <g id="ytick_4">
     <g id="line2d_4">
      <g>
       <use xlink:href="#m05769a0f26" x="391.05344" y="73.186611" style="fill: #4c4f69; stroke: #4c4f69; stroke-width: 0.8"/>
      </g>
     </g>
     <g id="text_22">
      <!-- −50 -->
      <g style="fill: #4c4f69" transform="translate(398.05344 76.836611) scale(0.1 -0.1)">
       <use xlink:href="#JetBrainsMonoNFM-Regular-2212"/>
       <use xlink:href="#JetBrainsMonoNFM-Regular-35" x="59.999985"/>
       <use xlink:href="#JetBrainsMonoNFM-Regular-30" x="119.999969"/>
      </g>
     </g>
    </g>
    <g id="ytick_5">
     <g id="line2d_5">
      <g>
       <use xlink:href="#m05769a0f26" x="391.05344" y="14.4" style="fill: #4c4f69; stroke: #4c4f69; stroke-width: 0.8"/>
      </g>
     </g>
     <g id="text_23">
      <!-- 0 -->
      <g style="fill: #4c4f69" transform="translate(398.05344 18.05) scale(0.1 -0.1)">
       <use xlink:href="#JetBrainsMonoNFM-Regular-30"/>
      </g>
     </g>
    </g>
    <g id="text_24">
     <!-- Log Dimensionless Jerk [$m/s^3$] -->
     <g style="fill: #4c4f69" transform="translate(432.09344 82.22) rotate(-270) scale(0.12 -0.12)">
      <defs>
       <path id="STIXTwoText-4c" d="M 3443 0
L 269 0
L 269 192
Q 525 192 649 237
Q 774 282 812 410
Q 851 538 851 787
L 851 3392
Q 851 3642 812 3776
Q 774 3910 649 3961
Q 525 4013 269 4013
L 269 4205
L 2067 4205
L 2067 4013
Q 1811 4013 1673 3958
Q 1536 3904 1488 3769
Q 1440 3635 1440 3386
L 1440 608
Q 1440 397 1542 333
Q 1645 269 1926 269
L 2221 269
Q 2541 269 2739 317
Q 2938 365 3056 480
Q 3174 595 3254 784
Q 3334 973 3430 1248
L 3635 1248
L 3443 0
z
" transform="scale(0.015625)"/>
       <path id="STIXTwoText-6f" d="M 1651 -64
Q 979 -64 598 355
Q 218 774 218 1549
Q 218 2016 397 2365
Q 576 2714 899 2909
Q 1222 3104 1651 3104
Q 2310 3104 2691 2694
Q 3072 2285 3072 1574
Q 3072 1037 2889 672
Q 2707 307 2387 121
Q 2067 -64 1651 -64
z
M 1677 192
Q 1939 192 2118 313
Q 2298 435 2390 729
Q 2483 1024 2483 1542
Q 2483 2131 2268 2496
Q 2054 2861 1626 2861
Q 1261 2861 1037 2553
Q 813 2246 813 1632
Q 813 870 1040 528
Q 1267 186 1677 192
z
" transform="scale(0.015625)"/>
       <path id="STIXTwoText-67" d="M 1222 -1504
Q 806 -1504 566 -1401
Q 326 -1299 230 -1136
Q 134 -973 134 -800
Q 134 -640 265 -464
Q 397 -288 653 -38
L 653 32
L 845 -6
Q 723 -211 678 -342
Q 634 -474 634 -582
Q 634 -858 870 -998
Q 1107 -1139 1594 -1139
Q 1971 -1139 2204 -1043
Q 2438 -947 2544 -806
Q 2650 -666 2650 -531
Q 2650 -358 2538 -265
Q 2426 -173 2253 -134
Q 2080 -96 1888 -86
Q 1696 -77 1536 -77
Q 1248 -70 1101 -70
Q 954 -70 890 -67
Q 826 -64 774 -64
L 710 -32
Q 614 0 518 70
Q 422 141 358 240
Q 294 339 294 448
Q 294 563 361 688
Q 429 813 550 937
Q 672 1062 819 1178
L 819 1235
L 986 1114
Q 954 1082 909 998
Q 864 915 832 822
Q 800 730 800 666
Q 800 570 867 515
Q 934 461 1097 435
Q 1261 410 1555 410
Q 1958 410 2281 371
Q 2605 333 2790 173
Q 2976 13 2976 -352
Q 2976 -672 2819 -893
Q 2662 -1114 2403 -1248
Q 2144 -1382 1833 -1443
Q 1523 -1504 1222 -1504
z
M 1517 998
Q 1350 998 1206 1030
Q 1062 1062 928 1107
L 858 1171
Q 691 1261 572 1382
Q 454 1504 390 1673
Q 326 1843 326 2061
Q 326 2381 473 2614
Q 621 2848 883 2976
Q 1146 3104 1485 3104
Q 1677 3104 1846 3069
Q 2016 3034 2163 2963
Q 2310 2893 2419 2797
L 2419 2630
Q 2490 2534 2570 2374
Q 2650 2214 2650 1971
Q 2650 1677 2506 1456
Q 2362 1235 2109 1116
Q 1856 998 1517 998
z
M 1523 1222
Q 1766 1222 1923 1388
Q 2080 1555 2080 2010
Q 2080 2400 1913 2637
Q 1747 2874 1440 2874
Q 1190 2874 1040 2682
Q 890 2490 890 2086
Q 890 1677 1050 1449
Q 1210 1222 1523 1222
z
M 3021 2989
L 3021 2643
L 2330 2662
L 2106 2938
L 3021 2989
z
" transform="scale(0.015625)"/>
       <path id="STIXTwoText-20" transform="scale(0.015625)"/>
       <path id="STIXTwoText-44" d="M 2054 0
L 224 0
L 224 192
Q 506 192 640 233
Q 774 275 812 406
Q 851 538 851 794
L 851 3475
Q 851 3712 793 3824
Q 736 3936 601 3974
Q 467 4013 224 4013
L 224 4205
L 1984 4205
Q 2483 4205 2915 4099
Q 3347 3994 3667 3750
Q 3987 3507 4169 3110
Q 4352 2714 4352 2125
Q 4352 1574 4189 1171
Q 4026 768 3722 509
Q 3418 250 2995 125
Q 2573 0 2054 0
z
M 1818 243
Q 2400 243 2816 400
Q 3232 557 3456 953
Q 3680 1350 3680 2067
Q 3680 2982 3213 3462
Q 2746 3942 1754 3942
Q 1677 3942 1603 3942
Q 1530 3942 1440 3930
L 1440 262
Q 1536 256 1629 249
Q 1722 243 1818 243
z
" transform="scale(0.015625)"/>
       <path id="STIXTwoText-69" d="M 1645 0
L 205 0
L 205 179
Q 422 179 515 220
Q 608 262 630 364
Q 653 467 653 646
L 653 2432
Q 653 2637 582 2685
Q 512 2733 371 2733
Q 307 2733 259 2726
Q 211 2720 211 2720
L 211 2906
L 1018 3085
L 1184 3085
L 1184 646
Q 1184 461 1209 358
Q 1235 256 1334 217
Q 1434 179 1645 179
L 1645 0
z
M 928 3584
Q 768 3584 665 3693
Q 563 3802 563 3949
Q 563 4096 662 4201
Q 762 4307 928 4307
Q 1094 4307 1193 4201
Q 1293 4096 1293 3949
Q 1293 3802 1193 3693
Q 1094 3584 928 3584
z
" transform="scale(0.015625)"/>
       <path id="STIXTwoText-6d" d="M 3520 0
L 2003 0
L 2003 186
Q 2234 186 2336 230
Q 2438 275 2467 396
Q 2496 518 2496 742
L 2496 2010
Q 2496 2419 2352 2556
Q 2208 2694 1984 2694
Q 1805 2694 1648 2617
Q 1491 2541 1363 2438
Q 1235 2336 1146 2246
L 1094 2566
L 1190 2566
Q 1453 2790 1696 2947
Q 1939 3104 2266 3104
Q 2554 3104 2730 2937
Q 2906 2771 2995 2522
Q 3008 2502 3014 2480
Q 3021 2458 3027 2432
L 3027 742
Q 3027 525 3056 403
Q 3085 282 3187 234
Q 3290 186 3520 186
L 3520 0
z
M 1664 0
L 205 0
L 205 186
Q 410 186 502 221
Q 595 256 624 355
Q 653 454 653 646
L 653 2438
Q 653 2611 585 2668
Q 518 2726 384 2726
Q 314 2726 262 2720
Q 211 2714 211 2714
L 211 2899
L 1011 3085
L 1165 3085
L 1165 2496
L 1184 2355
L 1184 621
Q 1184 442 1222 349
Q 1261 256 1363 221
Q 1466 186 1664 186
L 1664 0
z
M 5306 0
L 3859 0
L 3859 186
Q 4077 186 4173 243
Q 4269 301 4291 425
Q 4314 550 4314 742
L 4314 1971
Q 4314 2266 4240 2419
Q 4166 2573 4041 2633
Q 3917 2694 3763 2694
Q 3552 2694 3347 2544
Q 3142 2394 2976 2253
L 2906 2573
L 3002 2573
Q 3264 2835 3513 2969
Q 3763 3104 4019 3104
Q 4397 3104 4621 2867
Q 4845 2630 4845 2048
L 4845 742
Q 4845 544 4867 419
Q 4890 294 4989 240
Q 5088 186 5306 186
L 5306 0
z
" transform="scale(0.015625)"/>
       <path id="STIXTwoText-73" d="M 269 -51
L 250 1050
L 416 1050
Q 518 557 716 361
Q 915 166 1267 166
Q 1510 166 1664 265
Q 1818 365 1818 589
Q 1818 742 1763 844
Q 1709 947 1555 1052
Q 1402 1158 1101 1306
Q 806 1453 620 1590
Q 435 1728 345 1894
Q 256 2061 256 2298
Q 256 2694 541 2899
Q 826 3104 1235 3104
Q 1478 3104 1632 3049
Q 1786 2995 1907 2938
L 1914 2938
L 2022 3072
L 2150 3072
L 2170 2093
L 1997 2093
Q 1894 2547 1708 2716
Q 1523 2886 1229 2886
Q 1011 2886 860 2784
Q 710 2682 710 2464
Q 710 2278 883 2131
Q 1056 1984 1459 1779
Q 1754 1626 1952 1482
Q 2150 1338 2252 1168
Q 2355 998 2355 762
Q 2355 461 2208 278
Q 2061 96 1814 13
Q 1568 -70 1280 -70
Q 1005 -70 841 -12
Q 678 45 550 96
L 538 96
L 403 -51
L 269 -51
z
" transform="scale(0.015625)"/>
       <path id="STIXTwoText-4a" d="M 762 -77
Q 557 -77 381 -22
Q 205 32 102 144
Q 0 256 0 429
Q 0 576 73 659
Q 147 742 282 742
Q 397 742 467 681
Q 538 621 586 534
Q 634 448 678 358
Q 723 269 777 208
Q 832 147 922 147
Q 1107 147 1164 300
Q 1222 454 1222 787
L 1222 3360
Q 1222 3610 1193 3754
Q 1165 3898 1033 3955
Q 902 4013 595 4013
L 595 4205
L 2400 4205
L 2400 4013
Q 2138 4013 2010 3955
Q 1882 3898 1846 3754
Q 1811 3610 1811 3360
L 1811 973
Q 1811 659 1734 454
Q 1658 250 1517 131
Q 1376 13 1184 -32
Q 992 -77 762 -77
z
" transform="scale(0.015625)"/>
       <path id="STIXTwoText-6b" d="M 1645 0
L 192 0
L 192 186
Q 480 186 560 266
Q 640 346 640 608
L 640 3808
Q 640 4013 592 4073
Q 544 4134 384 4134
Q 320 4134 243 4128
Q 166 4122 166 4122
L 166 4294
L 998 4518
L 1171 4518
L 1171 1696
L 1210 1696
L 2035 2515
Q 2054 2534 2102 2588
Q 2150 2643 2150 2720
Q 2150 2784 2086 2809
Q 2022 2835 1837 2835
L 1837 3027
L 3219 3027
L 3219 2835
Q 3066 2835 2947 2806
Q 2829 2778 2707 2698
Q 2586 2618 2410 2470
Q 2234 2323 1965 2086
L 1645 1824
L 2771 557
Q 2925 384 3024 304
Q 3123 224 3219 205
Q 3315 186 3450 186
L 3450 0
L 2035 0
L 2035 186
Q 2176 186 2230 202
Q 2285 218 2285 262
Q 2285 307 2262 348
Q 2240 390 2214 416
L 1210 1555
L 1171 1555
L 1171 582
Q 1171 339 1257 262
Q 1344 186 1645 186
L 1645 0
z
" transform="scale(0.015625)"/>
       <path id="STIXTwoText-5b" d="M 1920 -1190
L 582 -1190
L 582 4685
L 1920 4685
L 1920 4493
L 1088 4493
L 1088 -998
L 1920 -998
L 1920 -1190
z
" transform="scale(0.015625)"/>
       <path id="STIXGeneral-Italic-6d" d="M 4506 672
L 4474 627
Q 3981 -58 3552 -58
Q 3296 -58 3296 237
Q 3296 333 3379 659
L 3750 2112
Q 3795 2291 3795 2355
Q 3795 2413 3756 2451
Q 3718 2490 3667 2490
Q 3366 2490 2829 1741
Q 2592 1408 2457 1072
Q 2323 736 2138 0
L 1658 0
L 1830 595
Q 2266 2099 2266 2330
Q 2266 2490 2125 2490
Q 1965 2490 1702 2237
Q 1440 1984 1171 1574
Q 1011 1325 899 1043
Q 787 762 557 0
L 77 0
L 352 922
Q 704 2093 704 2381
Q 704 2522 442 2522
L 282 2522
L 282 2624
L 1318 2822
L 1338 2810
L 966 1472
Q 1798 2822 2374 2822
Q 2560 2822 2659 2720
Q 2758 2618 2758 2438
Q 2758 2195 2502 1466
Q 2842 2003 3069 2275
Q 3296 2547 3526 2694
Q 3731 2822 3930 2822
Q 4102 2822 4201 2710
Q 4301 2598 4301 2419
Q 4301 2336 4282 2240
L 3846 634
Q 3782 390 3782 346
Q 3782 243 3859 243
Q 4000 243 4275 582
L 4410 749
L 4506 672
z
" transform="scale(0.015625)"/>
       <path id="STIXGeneral-Regular-2f" d="M 1837 4326
L 378 -90
L -58 -90
L 1408 4326
L 1837 4326
z
" transform="scale(0.015625)"/>
       <path id="STIXGeneral-Italic-73" d="M 2342 2829
L 2214 1933
L 2112 1933
Q 2022 2675 1542 2675
Q 1370 2675 1267 2579
Q 1165 2483 1165 2310
Q 1165 2067 1510 1658
Q 1946 1152 1946 787
Q 1946 397 1686 163
Q 1427 -70 1024 -70
Q 838 -70 672 -6
Q 538 51 390 51
Q 262 51 205 -83
L 102 -83
L 230 934
L 333 934
Q 461 64 973 64
Q 1203 64 1331 192
Q 1459 320 1459 557
Q 1459 845 1101 1293
Q 698 1798 698 2131
Q 698 2451 909 2636
Q 1120 2822 1472 2822
Q 1600 2822 1830 2758
Q 1971 2714 2061 2714
Q 2189 2714 2253 2829
L 2342 2829
z
" transform="scale(0.015625)"/>
       <path id="STIXGeneral-Regular-33" d="M 390 3264
L 288 3290
Q 435 3770 748 4048
Q 1062 4326 1542 4326
Q 1990 4326 2265 4083
Q 2541 3840 2541 3450
Q 2541 2925 1946 2566
Q 2298 2413 2477 2227
Q 2758 1914 2758 1402
Q 2758 890 2464 506
Q 2246 211 1840 60
Q 1434 -90 979 -90
Q 262 -90 262 275
Q 262 378 339 442
Q 416 506 525 506
Q 685 506 915 339
Q 1197 141 1466 141
Q 1818 141 2058 425
Q 2298 710 2298 1120
Q 2298 1856 1632 2048
Q 1434 2112 979 2112
L 979 2202
Q 1338 2323 1517 2432
Q 2035 2726 2035 3290
Q 2035 3610 1852 3776
Q 1670 3942 1344 3942
Q 768 3942 390 3264
z
" transform="scale(0.015625)"/>
       <path id="STIXTwoText-5d" d="M 1638 -1190
L 301 -1190
L 301 -998
L 1133 -998
L 1133 4493
L 301 4493
L 301 4685
L 1638 4685
L 1638 -1190
z
" transform="scale(0.015625)"/>
      </defs>
      <use xlink:href="#STIXTwoText-4c" transform="translate(0 0.409375)"/>
      <use xlink:href="#STIXTwoText-6f" transform="translate(58.499985 0.409375)"/>
      <use xlink:href="#STIXTwoText-67" transform="translate(109.899979 0.409375)"/>
      <use xlink:href="#STIXTwoText-20" transform="translate(158.299973 0.409375)"/>
      <use xlink:href="#STIXTwoText-44" transform="translate(181.799957 0.409375)"/>
      <use xlink:href="#STIXTwoText-69" transform="translate(254.799942 0.409375)"/>
      <use xlink:href="#STIXTwoText-6d" transform="translate(283.299927 0.409375)"/>
      <use xlink:href="#STIXTwoText-65" transform="translate(368.499908 0.409375)"/>
      <use xlink:href="#STIXTwoText-6e" transform="translate(414.899902 0.409375)"/>
      <use xlink:href="#STIXTwoText-73" transform="translate(472.499893 0.409375)"/>
      <use xlink:href="#STIXTwoText-69" transform="translate(511.999878 0.409375)"/>
      <use xlink:href="#STIXTwoText-6f" transform="translate(540.499863 0.409375)"/>
      <use xlink:href="#STIXTwoText-6e" transform="translate(591.899857 0.409375)"/>
      <use xlink:href="#STIXTwoText-6c" transform="translate(649.499847 0.409375)"/>
      <use xlink:href="#STIXTwoText-65" transform="translate(677.799835 0.409375)"/>
      <use xlink:href="#STIXTwoText-73" transform="translate(724.199829 0.409375)"/>
      <use xlink:href="#STIXTwoText-73" transform="translate(763.699814 0.409375)"/>
      <use xlink:href="#STIXTwoText-20" transform="translate(803.199799 0.409375)"/>
      <use xlink:href="#STIXTwoText-4a" transform="translate(826.699783 0.409375)"/>
      <use xlink:href="#STIXTwoText-65" transform="translate(866.299774 0.409375)"/>
      <use xlink:href="#STIXTwoText-72" transform="translate(912.699768 0.409375)"/>
      <use xlink:href="#STIXTwoText-6b" transform="translate(950.699753 0.409375)"/>
      <use xlink:href="#STIXTwoText-20" transform="translate(1004.89975 0.409375)"/>
      <use xlink:href="#STIXTwoText-5b" transform="translate(1028.399734 0.409375)"/>
      <use xlink:href="#STIXGeneral-Italic-6d" transform="translate(1063.099731 0.409375)"/>
      <use xlink:href="#STIXGeneral-Regular-2f" transform="translate(1135.299713 0.409375)"/>
      <use xlink:href="#STIXGeneral-Italic-73" transform="translate(1163.099701 0.409375)"/>
      <use xlink:href="#STIXGeneral-Regular-33" transform="translate(1208.195789 35.684375) scale(0.7)"/>
      <use xlink:href="#STIXTwoText-5d" transform="translate(1247.605153 0.409375)"/>
     </g>
    </g>
   </g>
   <g id="QuadMesh_2">
    <path d="M 376.57344 304
L 391.05344 304
L 391.05344 291.933333
L 376.57344 291.933333
L 376.57344 304
" clip-path="url(#p3f27447d62)" style="fill: #fe640b"/>
    <path d="M 376.57344 291.933333
L 391.05344 291.933333
L 391.05344 279.866667
L 376.57344 279.866667
L 376.57344 291.933333
" clip-path="url(#p3f27447d62)" style="fill: #fc701f"/>
    <path d="M 376.57344 279.866667
L 391.05344 279.866667
L 391.05344 267.8
L 376.57344 267.8
L 376.57344 279.866667
" clip-path="url(#p3f27447d62)" style="fill: #fa7b33"/>
    <path d="M 376.57344 267.8
L 391.05344 267.8
L 391.05344 255.733333
L 376.57344 255.733333
L 376.57344 267.8
" clip-path="url(#p3f27447d62)" style="fill: #f88746"/>
    <path d="M 376.57344 255.733333
L 391.05344 255.733333
L 391.05344 243.666667
L 376.57344 243.666667
L 376.57344 255.733333
" clip-path="url(#p3f27447d62)" style="fill: #f6925a"/>
    <path d="M 376.57344 243.666667
L 391.05344 243.666667
L 391.05344 231.6
L 376.57344 231.6
L 376.57344 243.666667
" clip-path="url(#p3f27447d62)" style="fill: #f49e6e"/>
    <path d="M 376.57344 231.6
L 391.05344 231.6
L 391.05344 219.533333
L 376.57344 219.533333
L 376.57344 231.6
" clip-path="url(#p3f27447d62)" style="fill: #f1a982"/>
    <path d="M 376.57344 219.533333
L 391.05344 219.533333
L 391.05344 207.466667
L 376.57344 207.466667
L 376.57344 219.533333
" clip-path="url(#p3f27447d62)" style="fill: #efb596"/>
    <path d="M 376.57344 207.466667
L 391.05344 207.466667
L 391.05344 195.4
L 376.57344 195.4
L 376.57344 207.466667
" clip-path="url(#p3f27447d62)" style="fill: #edc1aa"/>
    <path d="M 376.57344 195.4
L 391.05344 195.4
L 391.05344 183.333333
L 376.57344 183.333333
L 376.57344 195.4
" clip-path="url(#p3f27447d62)" style="fill: #ebccbd"/>
    <path d="M 376.57344 183.333333
L 391.05344 183.333333
L 391.05344 171.266667
L 376.57344 171.266667
L 376.57344 183.333333
" clip-path="url(#p3f27447d62)" style="fill: #e9d8d1"/>
    <path d="M 376.57344 171.266667
L 391.05344 171.266667
L 391.05344 159.2
L 376.57344 159.2
L 376.57344 171.266667
" clip-path="url(#p3f27447d62)" style="fill: #e7e3e5"/>
    <path d="M 376.57344 159.2
L 391.05344 159.2
L 391.05344 147.133333
L 376.57344 147.133333
L 376.57344 159.2
" clip-path="url(#p3f27447d62)" style="fill: #e1e5f0"/>
    <path d="M 376.57344 147.133333
L 391.05344 147.133333
L 391.05344 135.066667
L 376.57344 135.066667
L 376.57344 147.133333
" clip-path="url(#p3f27447d62)" style="fill: #d7dcf1"/>
    <path d="M 376.57344 135.066667
L 391.05344 135.066667
L 391.05344 123
L 376.57344 123
L 376.57344 135.066667
" clip-path="url(#p3f27447d62)" style="fill: #cdd4f2"/>
    <path d="M 376.57344 123
L 391.05344 123
L 391.05344 110.933333
L 376.57344 110.933333
L 376.57344 123
" clip-path="url(#p3f27447d62)" style="fill: #c3cbf3"/>
    <path d="M 376.57344 110.933333
L 391.05344 110.933333
L 391.05344 98.866667
L 376.57344 98.866667
L 376.57344 110.933333
" clip-path="url(#p3f27447d62)" style="fill: #b9c3f4"/>
    <path d="M 376.57344 98.866667
L 391.05344 98.866667
L 391.05344 86.8
L 376.57344 86.8
L 376.57344 98.866667
" clip-path="url(#p3f27447d62)" style="fill: #afbaf6"/>
    <path d="M 376.57344 86.8
L 391.05344 86.8
L 391.05344 74.733333
L 376.57344 74.733333
L 376.57344 86.8
" clip-path="url(#p3f27447d62)" style="fill: #a4b2f7"/>
    <path d="M 376.57344 74.733333
L 391.05344 74.733333
L 391.05344 62.666667
L 376.57344 62.666667
L 376.57344 74.733333
" clip-path="url(#p3f27447d62)" style="fill: #9aa9f8"/>
    <path d="M 376.57344 62.666667
L 391.05344 62.666667
L 391.05344 50.6
L 376.57344 50.6
L 376.57344 62.666667
" clip-path="url(#p3f27447d62)" style="fill: #90a1f9"/>
    <path d="M 376.57344 50.6
L 391.05344 50.6
L 391.05344 38.533333
L 376.57344 38.533333
L 376.57344 50.6
" clip-path="url(#p3f27447d62)" style="fill: #8698fb"/>
    <path d="M 376.57344 38.533333
L 391.05344 38.533333
L 391.05344 26.466667
L 376.57344 26.466667
L 376.57344 38.533333
" clip-path="url(#p3f27447d62)" style="fill: #7c90fc"/>
    <path d="M 376.57344 26.466667
L 391.05344 26.466667
L 391.05344 14.4
L 376.57344 14.4
L 376.57344 26.466667
" clip-path="url(#p3f27447d62)" style="fill: #7287fd"/>
   </g>
   <g id="LineCollection_1"/>
   <g id="patch_8">
    <path d="M 376.57344 304
L 383.81344 304
L 391.05344 304
L 391.05344 14.4
L 383.81344 14.4
L 376.57344 14.4
L 376.57344 304
z
" style="fill: none; stroke: #ffffff; stroke-width: 0.8; stroke-linejoin: miter; stroke-linecap: square"/>
   </g>
  </g>
 </g>
 <defs>
  <clipPath id="p6efbffe62e">
   <rect x="66.11712" y="14.4" width="289.6" height="289.6"/>
  </clipPath>
  <clipPath id="p3f27447d62">
   <rect x="376.57344" y="14.4" width="14.48" height="289.6"/>
  </clipPath>
 </defs>
</svg>
